<svg xmlns="http://www.w3.org/2000/svg" xmlns:xlink="http://www.w3.org/1999/xlink" version="1.1" x="0px" y="0px" viewBox="0 0 100 125" enable-background="new 0 0 100 100" xml:space="preserve" width="24px" height="24px">
    <g>
        <g>
            <path fill="#ffffff" d="M73.72064,71.7207c0.76562-1.33521,1.14819-2.74719,1.05304-4.10156H75V17.22852l-43,7.71777V30L11,9l-3,3 l80,80l3-3L73.72064,71.7207z M71,34.99719v27.64148c-1.83069-0.74072-4.13409-0.80542-6.50446-0.14307L41.95563,39.95557 L71,34.99719z"/>
            <path fill="#ffffff" d="M56.80469,68.14258c-1.21973,2.12109-1.39648,4.39258-0.48242,6.23242 c1.12305,2.26367,3.60449,3.47266,6.52246,3.47266c1.56201,0,3.24719-0.36865,4.91742-1.08545l-9.99957-9.99963 C57.40002,67.20459,57.07874,67.66614,56.80469,68.14258z"/>
            <path fill="#ffffff" d="M32,68.65723c-0.63043-0.25684-1.31458-0.44653-2.05371-0.54102 c-2.18945-0.28418-4.64453,0.18555-6.91504,1.3125c-2.26953,1.12598-4.12549,2.80078-5.22607,4.71387 c-1.2207,2.12109-1.39648,4.39355-0.48291,6.23242c1.12305,2.2627,3.60449,3.47266,6.52295,3.47266 c1.78906,0,3.74268-0.45508,5.64844-1.40039c2.26953-1.12598,4.12598-2.80078,5.22656-4.71387 c0.78314-1.3606,1.13019-2.78271,1.04102-4.11426H36V45l-4-4V68.65723z"/>
        </g>
    </g>
</svg>
