<?xml version="1.0" encoding="utf-8"?>
<!-- Generator: Adobe Illustrator 26.0.1, SVG Export Plug-In . SVG Version: 6.00 Build 0)  -->
<svg version="1.1" id="Layer_5" xmlns="http://www.w3.org/2000/svg" xmlns:xlink="http://www.w3.org/1999/xlink" x="0px" y="0px"
	 viewBox="0 0 128 128" style="enable-background:new 0 0 128 128;" xml:space="preserve">
<style type="text/css">
	.st0{fill-rule:evenodd;clip-rule:evenodd;fill:#FF6A61;}
</style>
<g>
	<path class="st0" d="M76.7,79.3c0-0.7,0.6-1.3,1.3-1.3c0.7,0,1.3,0.6,1.3,1.3v20h7.5c0.7,0,1.3-0.3,1.7-0.7c0.4-0.4,0.7-1,0.7-1.7
		V80.6c0-5.2-2.1-9.9-5.5-13.3s-8.1-5.5-13.3-5.5h-6.6l0,0l0,0h-6.6c-5.2,0-9.9,2.1-13.3,5.5c-3.4,3.4-5.5,8.1-5.5,13.3V97
		c0,0.7,0.3,1.3,0.7,1.7c0.4,0.4,1,0.7,1.7,0.7h7.5v-20c0-0.7,0.6-1.3,1.3-1.3s1.3,0.6,1.3,1.3v20h25.8V79.3L76.7,79.3z M63.8,59.1
		L63.8,59.1c4.2,0,8-1.7,10.7-4.4s4.4-6.5,4.4-10.7s-1.7-7.9-4.4-10.7C71.8,30.7,68,29,63.8,29s-7.9,1.7-10.7,4.4
		c-2.7,2.7-4.4,6.5-4.4,10.7s1.7,7.9,4.4,10.7C55.9,57.5,59.7,59.1,63.8,59.1L63.8,59.1z M72.9,59.3c4.9,0.6,9.4,2.8,12.7,6.2
		c3.9,3.9,6.3,9.2,6.3,15.1V97c0,1.4-0.6,2.6-1.5,3.6c-0.9,0.9-2.2,1.5-3.6,1.5H78H49.6h-8.8c-1.4,0-2.6-0.6-3.6-1.5
		c-0.9-0.9-1.5-2.2-1.5-3.6V80.6c0-5.9,2.4-11.2,6.3-15.1c3.3-3.3,7.8-5.6,12.7-6.2c-1.3-0.8-2.4-1.7-3.5-2.7C48,53.4,46,49,46,44.1
		s2-9.3,5.2-12.5s7.6-5.2,12.5-5.2s9.3,2,12.5,5.2s5.2,7.6,5.2,12.5s-2,9.3-5.2,12.5C75.3,57.6,74.1,58.5,72.9,59.3L72.9,59.3z
		 M63.8,4.2c16.6,0,31.6,6.7,42.4,17.6s17.6,25.9,17.6,42.4s-6.7,31.6-17.6,42.4s-25.9,17.6-42.4,17.6s-31.6-6.7-42.4-17.6
		S3.8,80.7,3.8,64.2c0-16.6,6.7-31.6,17.6-42.4C32.3,10.9,47.3,4.2,63.8,4.2L63.8,4.2z M104.4,23.6c10.4,10.4,16.8,24.7,16.8,40.6
		s-6.4,30.2-16.8,40.6s-24.7,16.8-40.6,16.8s-30.2-6.4-40.6-16.8C12.9,94.4,6.4,80,6.4,64.2S12.9,34,23.2,23.6
		C33.6,13.2,48,6.8,63.8,6.8S94,13.2,104.4,23.6z"/>
</g>
</svg>
