<?xml version="1.0" encoding="utf-8"?>
<!-- Generator: Adobe Illustrator 26.0.1, SVG Export Plug-In . SVG Version: 6.00 Build 0)  -->
<svg version="1.1" id="Layer_1" xmlns="http://www.w3.org/2000/svg" xmlns:xlink="http://www.w3.org/1999/xlink" x="0px" y="0px"
	 viewBox="0 0 128 128" style="enable-background:new 0 0 128 128;" xml:space="preserve">
<style type="text/css">
	.st0{display:none;}
	.st1{display:inline;}
	.st2{fill-rule:evenodd;clip-rule:evenodd;}
	.st3{fill-rule:evenodd;clip-rule:evenodd;fill:#000333;}
</style>
<g id="Layer_2_00000129890100527556889230000002718733365312905349_" class="st0">
	<g transform="translate(0,-952.36216)" class="st1">
		<path class="st2" d="M39.6,1032.2v19.2c0,0.6,0.3,1.1,0.9,1.4l22.8,10.4c0.4,0.2,0.9,0.2,1.3,0l22.8-12.2c0.5-0.3,0.8-0.8,0.8-1.3
			v-17.4h-3v16.5l-21.4,11.4l-21.3-9.7v-18.2h-2.9C39.6,1032.3,39.6,1032.2,39.6,1032.2z"/>
		<path d="M26.3,989.7c-0.2,0-0.4,0.1-0.6,0.2c-3.9,2-7.9,3.9-11.9,5.9c-0.5,0.3-0.8,0.8-0.8,1.3v12.1c0,0.6,0.3,1.1,0.8,1.4
			c4,2,7.9,3.9,11.8,5.9c0.4,0.2,1,0.2,1.4,0c4-2,7.8-4.1,11.8-5.9c0.5-0.2,0.9-0.8,0.9-1.4v-12.1c0-0.6-0.3-1.1-0.8-1.4
			c-4-2-7.9-3.9-11.9-5.9C26.8,989.7,26.6,989.7,26.3,989.7L26.3,989.7z M26.4,992.9c3.5,1.7,6.9,3.4,10.3,5.2v10.2
			c-3.5,1.7-6.9,3.4-10.3,5.1c-3.4-1.8-6.9-3.5-10.3-5.2V998C19.4,996.3,22.9,994.6,26.4,992.9z"/>
		<path class="st2" d="M2,1018.1v19.2c0,0.6,0.3,1.1,0.9,1.4l22.8,10.4c0.4,0.2,1,0.2,1.4-0.1l15.5-8.6l-1.5-2.7l-14.8,8.2
			l-21.2-9.7V1018L2,1018.1L2,1018.1z"/>
		<path d="M101.6,989.7c-0.2,0-0.4,0.1-0.6,0.2c-3.9,2-7.9,3.9-11.9,5.9c-0.5,0.3-0.8,0.8-0.8,1.4v12.1c0,0.6,0.3,1.1,0.9,1.4
			c4,1.8,7.8,3.9,11.8,5.9c0.4,0.2,0.9,0.2,1.4,0c3.9-2,7.9-3.9,11.8-5.9c0.5-0.3,0.8-0.8,0.8-1.4v-12.1c0-0.6-0.3-1.1-0.8-1.3
			c-3.9-2-7.9-4-11.9-5.9C102.1,989.7,101.8,989.7,101.6,989.7L101.6,989.7z M101.6,992.9c3.5,1.7,6.9,3.4,10.3,5.2v10.2
			c-3.4,1.7-6.9,3.4-10.3,5.2c-3.4-1.7-6.8-3.5-10.3-5.1v-10.2C94.8,996.3,98.2,994.6,101.6,992.9z"/>
		<path class="st2" d="M123,1018.1v18.2l-21.2,9.7l-14.8-8.2l-1.5,2.7l15.5,8.6c0.4,0.2,0.9,0.2,1.4,0.1l22.8-10.4
			c0.5-0.2,0.9-0.8,0.9-1.4v-19.2L123,1018.1L123,1018.1z"/>
		<path d="M63.9,1003.8c-0.2,0-0.4,0.1-0.6,0.2c-3.9,2-7.9,3.9-11.9,5.9c-0.5,0.3-0.8,0.8-0.8,1.3v12.1c0,0.6,0.3,1.1,0.8,1.4
			c4,2,7.9,3.9,11.8,5.9c0.4,0.2,0.9,0.2,1.4,0c4-2,7.8-4.1,11.8-5.9c0.5-0.2,0.9-0.8,0.9-1.4v-12.1c0-0.6-0.3-1.1-0.8-1.4
			c-3.9-2-7.9-3.9-11.9-5.9C64.4,1003.9,64.2,1003.8,63.9,1003.8L63.9,1003.8z M64,1007c3.4,1.7,6.9,3.4,10.3,5.2v10.2
			c-3.5,1.6-6.9,3.4-10.3,5.1c-3.4-1.8-6.9-3.4-10.3-5.2v-10.2C57,1010.4,60.5,1008.7,64,1007z"/>
		<path d="M63.9,969.4c-0.2,0-0.4,0.1-0.6,0.2c-3.9,2-7.9,3.9-11.9,5.9c-0.5,0.3-0.8,0.8-0.8,1.3v12.1c0,0.6,0.3,1.1,0.8,1.4
			c4,2,7.9,3.9,11.8,5.9c0.4,0.2,0.9,0.2,1.4,0c4-2,7.8-4.1,11.8-5.9c0.5-0.2,0.9-0.8,0.9-1.4v-12.1c0-0.6-0.3-1.1-0.8-1.4
			c-3.9-2-7.9-3.9-11.9-5.9C64.4,969.4,64.2,969.3,63.9,969.4L63.9,969.4z M64,972.6c3.5,1.7,6.9,3.4,10.3,5.2V988
			c-3.5,1.7-6.9,3.4-10.3,5.2c-3.4-1.8-6.9-3.5-10.3-5.2v-10.2C57,976,60.5,974.3,64,972.6z"/>
	</g>
</g>
<g>
	<g>
		<path class="st3" d="M48.1,3.9c8.2,0,15.6,3.3,21,8.7s8.7,12.8,8.7,21s-3.3,15.6-8.7,21c-5.4,5.3-12.8,8.7-21,8.7
			s-15.6-3.3-21-8.7s-8.7-12.8-8.7-21s3.3-15.6,8.7-21S40,3.9,48.1,3.9L48.1,3.9z M66.8,14.9c4.7,4.7,7.7,11.4,7.7,18.7
			s-3,14-7.7,18.7S55.4,60,48.1,60s-14-3-18.7-7.7s-7.7-11.5-7.7-18.7s3-14,7.7-18.7c4.8-4.8,11.5-7.7,18.7-7.7S62,10,66.8,14.9z"/>
	</g>
	<g>
		<path class="st3" d="M100.5,14.5c4.3,0,8.1,1.7,10.9,4.5s4.5,6.7,4.5,10.9s-1.7,8.1-4.5,10.9s-6.7,4.5-10.9,4.5
			c-4.3,0-8.1-1.7-10.9-4.5s-4.5-6.7-4.5-10.9c0-4.3,1.7-8.1,4.5-10.9C92.3,16.2,96.2,14.5,100.5,14.5L100.5,14.5z M109.9,20.6
			c2.4,2.4,3.9,5.7,3.9,9.4s-1.5,7-3.9,9.4c-2.3,2.4-5.7,3.9-9.4,3.9s-7-1.5-9.4-3.9c-2.4-2.4-3.9-5.7-3.9-9.4s1.5-7,3.9-9.4
			c2.4-2.4,5.7-3.9,9.4-3.9C104.1,16.7,107.4,18.2,109.9,20.6z"/>
	</g>
	<g>
		<path class="st3" d="M17.5,57.7c4.3,0,8.1,1.7,10.9,4.5s4.5,6.7,4.5,10.9c0,4.2-1.7,8.1-4.5,10.9c-2.8,2.8-6.7,4.5-10.9,4.5
			c-4.3,0-8.1-1.7-10.9-4.5C3.7,81.2,2,77.3,2,73.1c0-4.3,1.7-8.1,4.5-10.9C9.3,59.4,13.1,57.7,17.5,57.7L17.5,57.7z M26.9,63.8
			c2.4,2.4,3.9,5.7,3.9,9.4c0,3.7-1.5,7-3.9,9.4c-2.3,2.4-5.7,3.9-9.4,3.9s-7-1.5-9.4-3.9c-2.4-2.4-3.9-5.7-3.9-9.4
			c0-3.7,1.5-7,3.9-9.4c2.4-2.4,5.7-3.9,9.4-3.9S24.4,61.4,26.9,63.8z"/>
	</g>
	<g>
		<path class="st3" d="M44.8,87.3c5.1,0,9.7,2,13,5.4c3.3,3.3,5.4,8,5.4,13s-2,9.7-5.4,13c-3.3,3.3-8,5.4-13,5.4
			c-5.1,0-9.7-2-13-5.4c-3.3-3.3-5.4-8-5.4-13c0-5.1,2-9.7,5.4-13C35.1,89.3,39.6,87.3,44.8,87.3L44.8,87.3z M56,94.6
			c2.9,2.9,4.6,6.8,4.6,11.2c0,4.4-1.8,8.3-4.6,11.2c-2.8,2.9-6.8,4.6-11.2,4.6s-8.3-1.8-11.2-4.6c-2.9-2.9-4.6-6.8-4.6-11.2
			c0-4.4,1.8-8.3,4.6-11.2c2.9-2.9,6.8-4.6,11.2-4.6S53.1,91.7,56,94.6z"/>
	</g>
	<g>
		<path class="st3" d="M95,53.2c8.6,0,16.3,3.4,21.9,9.1c5.6,5.6,9.1,13.4,9.1,21.9s-3.4,16.3-9.1,21.9c-5.6,5.5-13.4,9.1-21.9,9.1
			s-16.3-3.4-21.9-9.1c-5.6-5.6-9.1-13.4-9.1-21.9s3.4-16.3,9.1-21.9C78.7,56.6,86.5,53.2,95,53.2L95,53.2z M114.5,64.7
			c5,5,8.1,11.9,8.1,19.5s-3.1,14.6-8.1,19.5c-5,5-11.9,8.1-19.5,8.1s-14.6-3.1-19.5-8.1s-8.1-12-8.1-19.5s3.1-14.6,8.1-19.5
			c5.1-5.1,12-8.1,19.5-8.1S109.5,59.6,114.5,64.7z"/>
	</g>
</g>
</svg>
