<?xml version="1.0" encoding="utf-8"?>
<!-- Generator: Adobe Illustrator 26.0.1, SVG Export Plug-In . SVG Version: 6.00 Build 0)  -->
<svg version="1.1" id="Layer_1" xmlns="http://www.w3.org/2000/svg" xmlns:xlink="http://www.w3.org/1999/xlink" x="0px" y="0px"
	 viewBox="0 0 128 128" style="enable-background:new 0 0 128 128;" xml:space="preserve">
<style type="text/css">
	.st0{display:none;}
	.st1{display:inline;}
	.st2{fill:none;}
	.st3{fill:#666666;}
</style>
<g id="Layer_5" class="st0">
	<g class="st1">
		<path d="M65.7,82.7c-28.1,0-51.2-22.7-51.4-22.9l1-1c0.2,0.2,22.9,22.5,50.4,22.5s50.2-22.2,50.4-22.5l1,1
			C116.9,60.1,93.8,82.7,65.7,82.7z"/>
		<path d="M111.7,51.8c-0.2-0.2-20.9-20.5-45.9-20.5c-25.1,0-45.7,20.3-45.9,20.5l-1-1c0.2-0.2,21.3-20.9,46.9-20.9
			s46.7,20.7,46.9,20.9L111.7,51.8z"/>
		<g>
			<g>
				
					<rect x="117.1" y="60.5" transform="matrix(0.7423 -0.67 0.67 0.7423 -15.8621 96.6918)" class="st2" width="1.4" height="16.9"/>
				<rect x="117.1" y="60.5" transform="matrix(0.7424 -0.67 0.67 0.7424 -15.8607 96.6841)" width="1.4" height="16.9"/>
			</g>
			<g>
				<rect x="103" y="70.5" transform="matrix(0.87 -0.4931 0.4931 0.87 -25.4425 61.4076)" class="st2" width="1.4" height="16.9"/>
				<rect x="103" y="70.5" transform="matrix(0.8699 -0.4932 0.4932 0.8699 -25.4477 61.424)" width="1.4" height="16.9"/>
			</g>
			<g>
				
					<rect x="87.8" y="77.5" transform="matrix(0.9446 -0.3282 0.3282 0.9446 -23.3049 33.8045)" class="st2" width="1.4" height="16.9"/>
				<rect x="87.8" y="77.5" transform="matrix(0.9448 -0.3277 0.3277 0.9448 -23.2762 33.745)" width="1.4" height="16.9"/>
			</g>
			<g>
				
					<rect x="71.4" y="81.2" transform="matrix(0.9874 -0.1581 0.1581 0.9874 -13.2669 12.5261)" class="st2" width="1.4" height="16.9"/>
				<rect x="71.4" y="81.2" transform="matrix(0.9875 -0.1574 0.1574 0.9875 -13.2122 12.4659)" width="1.4" height="16.9"/>
			</g>
			<g>
				
					<rect x="46.6" y="88.5" transform="matrix(0.2404 -0.9707 0.9707 0.2404 -44.7938 121.2293)" class="st2" width="16.9" height="1.4"/>
				<rect x="46.6" y="88.5" transform="matrix(0.2402 -0.9707 0.9707 0.2402 -44.7952 121.2454)" width="16.9" height="1.4"/>
			</g>
			<g>
				<rect x="31.2" y="84" transform="matrix(0.34 -0.9404 0.9404 0.34 -53.538 93.1886)" class="st2" width="16.9" height="1.4"/>
				<rect x="31.2" y="84" transform="matrix(0.3399 -0.9405 0.9405 0.3399 -53.5334 93.205)" width="16.9" height="1.4"/>
			</g>
			<g>
				
					<rect x="16" y="76.5" transform="matrix(0.6194 -0.785 0.785 0.6194 -51.2807 48.6085)" class="st2" width="16.9" height="1.4"/>
				<rect x="16.1" y="76.5" transform="matrix(0.6192 -0.7852 0.7852 0.6192 -51.2845 48.6369)" width="16.9" height="1.4"/>
			</g>
			<g>
				
					<rect x="2.6" y="66.2" transform="matrix(0.7863 -0.6178 0.6178 0.7863 -38.9751 21.134)" class="st2" width="16.9" height="1.4"/>
				<rect x="2.6" y="66.2" transform="matrix(0.7865 -0.6176 0.6176 0.7865 -38.9608 21.1224)" width="16.9" height="1.4"/>
			</g>
		</g>
	</g>
</g>
<g id="Layer_2_00000125592708471490217670000016085641561021208241_">
	<g>
		<path class="st3" d="M115,53c-0.2-0.2-22.7-21.5-49.8-21.5C38,31.5,14.9,53.8,14.7,54l-1.1-1.1c0.2-0.2,23.7-22.7,51.5-22.7
			S115.7,51.8,116,52L115,53z"/>
		<path class="st3" d="M65.7,76.1c-9.9,0-17.9-8-17.9-17.9s8-17.9,17.9-17.9s17.9,8,17.9,17.9S75.6,76.1,65.7,76.1z M65.7,41.8
			c-9.1,0-16.5,7.4-16.5,16.5s7.4,16.5,16.5,16.5s16.5-7.4,16.5-16.5S74.8,41.8,65.7,41.8z"/>
		<path class="st3" d="M66,62.6c0-1.9,1.5-3.4,3.4-3.4c1.7,0,3.1,1.3,3.4,2.9c0.6-1.1,1-2.5,1-3.9c0-4.4-3.6-8-8-8
			c-0.9,0-1.8,0.2-2.6,0.5c1.5,0.4,2.6,1.7,2.6,3.3c0,1.9-1.5,3.4-3.4,3.4S59,55.9,59,54.1c-0.7,1.2-1.2,2.6-1.2,4.2
			c0,4.4,3.6,8,8,8c0.9,0,1.8-0.2,2.6-0.4C66.9,65.4,66,64.1,66,62.6z"/>
		<path class="st3" d="M113.5,62.9c2.3-1.9,3.6-3.2,3.7-3.3l0.5-0.5l-0.5-0.5c-0.1-0.1-1.4-1.4-3.9-3.4L124,43.4l-1-0.9l-10.8,11.9
			c-2.9-2.3-6.8-5.2-11.7-8.1l8-14.1l-1.2-0.7l-8,14.1c-3.8-2.2-8-4.2-12.7-5.9l5.3-15.3L90.6,24l-4.8,13.9l-0.5,1.4
			c-4.3-1.5-8.9-2.6-13.7-3.1l2.5-15.9L72.7,20l-2.5,16c-1.5-0.1-3-0.2-4.5-0.2c-2.8,0-5.5,0.2-8.1,0.6l-4-15.9l0,0l0,0l-1.4,0.3
			l3.9,15.8c-4.7,0.8-9.1,2.2-13.3,3.8l-5.5-15.2l0,0l0,0L36,25.7L41.6,41c-4.2,1.8-8.1,3.8-11.5,5.9l-10.3-13l-1.1,0.9l0,0l0,0
			l10.2,12.9c-4.8,3-8.6,5.9-11.1,8l-1-0.8L4.9,45.5l0,0l0,0L4,46.6l0,0l0,0l12.7,10c-1.5,1.3-2.3,2.1-2.3,2.1l-0.5,0.5l0.5,0.5
			c0,0,0.8,0.8,2.1,1.9L4,71.4l0,0l0,0l0.6,0.8l0.2,0.3l12.7-10c2.5,2.1,6.3,5.1,11.2,8.1l-10,12.6l0,0l0,0l1.1,0.9l10.1-12.8
			c3.4,2.1,7.4,4.2,11.6,5.9l-5.4,14.9l0,0l0,0l0.9,0.3l0.4,0.1l0,0l5.4-14.9c4.1,1.6,8.6,3,13.3,3.8l-3.8,15.4l1.4,0.3l0,0
			l3.9-15.6c2.7,0.4,5.4,0.6,8.2,0.6c1.5,0,3-0.1,4.5-0.2L72.7,98l1.4-0.2l-2.5-15.5c4.8-0.5,9.4-1.7,13.7-3.1L90.6,94l0,0l1.3-0.5
			l-5.2-15c4.6-1.7,8.9-3.8,12.7-6l7.8,13.8l1.2-0.7l0,0l-7.8-13.8c4.9-2.9,8.9-5.8,11.7-8.1L123,75.6l1-0.9l0,0l0,0L113.5,62.9z
			 M65.7,81.2c-25.2,0-46.3-18.7-49.9-22c3.6-3.3,24.7-22,49.9-22s46.3,18.7,49.9,22C112,62.5,90.9,81.2,65.7,81.2z"/>
	</g>
</g>
</svg>
