<?xml version="1.0" encoding="utf-8"?>
<!-- Generator: Adobe Illustrator 26.0.1, SVG Export Plug-In . SVG Version: 6.00 Build 0)  -->
<svg version="1.1" id="Layer_3" xmlns="http://www.w3.org/2000/svg" xmlns:xlink="http://www.w3.org/1999/xlink" x="0px" y="0px"
	 viewBox="0 0 128 128" style="enable-background:new 0 0 128 128;" xml:space="preserve">
<style type="text/css">
	.st0{fill:#000333;}
</style>
<g>
	<path class="st0" d="M120.1,50.1H7.9c-0.9,0-1.6-0.7-1.6-1.6c0-0.9,0.7-1.6,1.6-1.6H120c0.9,0,1.6,0.7,1.6,1.6
		C121.7,49.3,120.9,50.1,120.1,50.1z"/>
	<path class="st0" d="M120.1,81.1H7.9c-0.9,0-1.6-0.7-1.6-1.6s0.7-1.6,1.6-1.6H120c0.9,0,1.6,0.7,1.6,1.6
		C121.7,80.4,120.9,81.1,120.1,81.1z"/>
	<path class="st0" d="M120.1,112.2H7.9c-0.9,0-1.6-0.7-1.6-1.6S7,109,7.9,109H120c0.9,0,1.6,0.7,1.6,1.6S120.9,112.2,120.1,112.2z"
		/>
	<path class="st0" d="M120.1,19H7.9c-0.9,0-1.6-0.7-1.6-1.6s0.7-1.6,1.6-1.6H120c0.9,0,1.6,0.7,1.6,1.6
		C121.7,18.2,120.9,19,120.1,19z"/>
</g>
</svg>
