<?xml version="1.0" encoding="utf-8"?>
<!-- Generator: Adobe Illustrator 26.0.1, SVG Export Plug-In . SVG Version: 6.00 Build 0)  -->
<svg version="1.1" id="Layer_1" xmlns="http://www.w3.org/2000/svg" xmlns:xlink="http://www.w3.org/1999/xlink" x="0px" y="0px"
	 viewBox="0 0 128 128" style="enable-background:new 0 0 128 128;" xml:space="preserve">
<style type="text/css">
	.st0{display:none;}
	.st1{display:inline;}
	.st2{fill:#666666;}
</style>
<g id="Layer_2_00000096034352693871784870000007850359743590665609_" class="st0">
	<g class="st1">
		<path d="M115,53c-0.2-0.2-22.7-21.5-49.8-21.5C38,31.5,14.9,53.8,14.7,54l-1.1-1.1c0.2-0.2,23.7-22.7,51.5-22.7S115.7,51.8,116,52
			L115,53z"/>
		<path d="M65.7,76.1c-9.9,0-17.9-8-17.9-17.9s8-17.9,17.9-17.9s17.9,8,17.9,17.9S75.6,76.1,65.7,76.1z M65.7,41.8
			c-9.1,0-16.5,7.4-16.5,16.5s7.4,16.5,16.5,16.5s16.5-7.4,16.5-16.5S74.8,41.8,65.7,41.8z"/>
		<path d="M66,62.6c0-1.9,1.5-3.4,3.4-3.4c1.7,0,3.1,1.3,3.4,2.9c0.6-1.1,1-2.5,1-3.9c0-4.4-3.6-8-8-8c-0.9,0-1.8,0.2-2.6,0.5
			c1.5,0.4,2.6,1.7,2.6,3.3c0,1.9-1.5,3.4-3.4,3.4S59,55.9,59,54.1c-0.7,1.2-1.2,2.6-1.2,4.2c0,4.4,3.6,8,8,8c0.9,0,1.8-0.2,2.6-0.4
			C66.9,65.4,66,64.1,66,62.6z"/>
		<path d="M113.5,62.9c2.3-1.9,3.6-3.2,3.7-3.3l0.5-0.5l-0.5-0.5c-0.1-0.1-1.4-1.4-3.9-3.4L124,43.4l-1-0.9l-10.8,11.9
			c-2.9-2.3-6.8-5.2-11.7-8.1l8-14.1l-1.2-0.7l-8,14.1c-3.8-2.2-8-4.2-12.7-5.9l5.3-15.3L90.6,24l-4.8,13.9l-0.5,1.4
			c-4.3-1.5-8.9-2.6-13.7-3.1l2.5-15.9L72.7,20l-2.5,16c-1.5-0.1-3-0.2-4.5-0.2c-2.8,0-5.5,0.2-8.1,0.6l-4-15.9l0,0l0,0l-1.4,0.3
			l3.9,15.8c-4.7,0.8-9.1,2.2-13.3,3.8l-5.5-15.2l0,0l0,0L36,25.7L41.6,41c-4.2,1.8-8.1,3.8-11.5,5.9l-10.3-13l-1.1,0.9l0,0l0,0
			l10.2,12.9c-4.8,3-8.6,5.9-11.1,8l-1-0.8L4.9,45.5l0,0l0,0L4,46.6l0,0l0,0l12.7,10c-1.5,1.3-2.3,2.1-2.3,2.1l-0.5,0.5l0.5,0.5
			c0,0,0.8,0.8,2.1,1.9L4,71.4l0,0l0,0l0.6,0.8l0.2,0.3l12.7-10c2.5,2.1,6.3,5.1,11.2,8.1l-10,12.6l0,0l0,0l1.1,0.9l10.1-12.8
			c3.4,2.1,7.4,4.2,11.6,5.9l-5.4,14.9l0,0l0,0l0.9,0.3l0.4,0.1l0,0l5.4-14.9c4.1,1.6,8.6,3,13.3,3.8l-3.8,15.4l1.4,0.3l0,0
			l3.9-15.6c2.7,0.4,5.4,0.6,8.2,0.6c1.5,0,3-0.1,4.5-0.2L72.7,98l1.4-0.2l-2.5-15.5c4.8-0.5,9.4-1.7,13.7-3.1L90.6,94l0,0l1.3-0.5
			l-5.2-15c4.6-1.7,8.9-3.8,12.7-6l7.8,13.8l1.2-0.7l0,0l-7.8-13.8c4.9-2.9,8.9-5.8,11.7-8.1L123,75.6l1-0.9l0,0l0,0L113.5,62.9z
			 M65.7,81.2c-25.2,0-46.3-18.7-49.9-22c3.6-3.3,24.7-22,49.9-22s46.3,18.7,49.9,22C112,62.5,90.9,81.2,65.7,81.2z"/>
	</g>
</g>
<path class="st2" d="M116.1,64c0,28.7-23.3,52.1-52.1,52.1S11.9,92.7,11.9,64S35.3,11.9,64,11.9S116.1,35.3,116.1,64z M64,20.2
	c-24.2,0-43.8,19.6-43.8,43.8s19.6,43.8,43.8,43.8s43.8-19.6,43.8-43.8S88.2,20.2,64,20.2z M69.5,91V58.1c0-3.1-2.4-5.5-5.5-5.5l0,0
	c-3.1,0-5.5,2.4-5.5,5.5V91c0,3.1,2.4,5.5,5.5,5.5l0,0C67.1,96.4,69.5,94,69.5,91z M64,31.6c-4.3,0-7.7,3.4-7.7,7.7s3.4,7.7,7.7,7.7
	s7.7-3.4,7.7-7.7S68.3,31.6,64,31.6z"/>
</svg>
