<?xml version="1.0" encoding="utf-8"?>
<!-- Generator: Adobe Illustrator 26.0.1, SVG Export Plug-In . SVG Version: 6.00 Build 0)  -->
<svg version="1.1" id="Layer_5" xmlns="http://www.w3.org/2000/svg" xmlns:xlink="http://www.w3.org/1999/xlink" x="0px" y="0px"
	 viewBox="0 0 128 128" style="enable-background:new 0 0 128 128;" xml:space="preserve">
<style type="text/css">
	.st0{fill:#FF6A61;}
</style>
<g>
	<path class="st0" d="M74.3,115.4C60,114,57.1,109.3,53,103c0,0-1.8-4.4-1.9-4.4l-33.2,0C11,98.6,5.4,93,5.4,86.1V25.1
		c0-6.9,5.6-12.5,12.5-12.5h92.2c6.9,0,12.5,5.6,12.5,12.5v60.9c0,6.9-5.6,12.5-12.5,12.5l-37.7,0c-1.5,4.3,5.1,10.6,5.2,10.8l3.8,6
		L74.3,115.4L74.3,115.4z M19.3,16.1c-5.6,0-10.2,4.6-10.2,10.2V82c0,4.8,4.1,12,8.9,12l35.8,1.3c1.9,0,3.5,1.4,3.8,3.2v0
		c-0.2,9.7,10.8,11.6,16.3,13.4c-0.5-3.3-8.3-10.6-5.7-14.8l0,0c0.7-1.1,2-1.8,3.3-1.8l37.7-0.6c7.5,0,10.5-10,10.5-17.5V26.4
		c0-5.6-4.6-10.2-10.2-10.2H24.5H19.3z"/>
	<path class="st0" d="M78.2,46.8c-3.2-3.2-8.4-3.2-11.6,0L64,49.4l-2.6-2.6c-3.2-3.2-8.4-3.2-11.6,0c-1.6,1.6-2.4,3.7-2.4,5.8
		c0,2.1,0.8,4.2,2.4,5.8l2.7,2.7l10.7,10.7c0.2,0.3,0.5,0.5,0.8,0.7c0.3-0.2,0.5-0.4,0.8-0.7L75.5,61l2.7-2.7
		c1.6-1.6,2.4-3.7,2.4-5.8C80.6,50.4,79.8,48.4,78.2,46.8z"/>
</g>
</svg>
