<?xml version="1.0" encoding="utf-8"?>
<!-- Generator: Adobe Illustrator 26.0.1, SVG Export Plug-In . SVG Version: 6.00 Build 0)  -->
<svg version="1.1" id="Layer_1" xmlns="http://www.w3.org/2000/svg" xmlns:xlink="http://www.w3.org/1999/xlink" x="0px" y="0px"
	 viewBox="0 0 128 128" style="enable-background:new 0 0 128 128;" xml:space="preserve">
<style type="text/css">
	.st0{fill:#000333;}
</style>
<g transform="translate(0,-952.36218)">
	<path class="st0" d="M3.3,966c-0.8,0.1-1.4,0.8-1.3,1.6c0.1,0.8,0.8,1.4,1.6,1.3c15.1,0,26.6,0.8,36,3.2s16.7,6.6,23.4,13.6
		c0.5,0.6,1.5,0.6,2,0l0,0c6.7-7,14-11.1,23.4-13.6s21-3.2,36-3.2c0.8,0,1.4-0.6,1.5-1.4s-0.6-1.5-1.4-1.5l0,0
		c-15.2,0-26.9,0.7-36.8,3.3c-9.4,2.5-16.9,6.8-23.7,13.5c-6.8-6.7-14.4-11-23.7-13.5c-9.8-2.6-21.6-3.3-36.8-3.3L3.3,966
		C3.4,966,3.4,966,3.3,966z M3.5,973.1c-0.1,0-0.1,0-0.2,0c-0.7,0.2-1.1,0.8-1.1,1.4v73.4c0,0.8,0.6,1.4,1.4,1.4
		c15.1,0,26.6,0.8,36,3.2s16.7,6.6,23.4,13.6c0.5,0.6,1.5,0.6,2,0l0,0c6.7-7,14-11.1,23.4-13.6s21-3.2,36-3.2c0.8,0,1.4-0.6,1.4-1.4
		v-73.4c0-0.8-0.6-1.5-1.4-1.5s-1.4,0.6-1.5,1.4l0,0v72c-14.4,0.1-25.8,0.8-35.3,3.3c-8.7,2.3-15.8,6.2-22.3,12.2v-70.2
		c0-0.8-0.6-1.5-1.4-1.5c-0.1,0-0.2,0-0.2,0c-0.7,0.1-1.3,0.7-1.3,1.5v70.2c-6.4-5.9-13.6-9.8-22.3-12.2c-9.5-2.5-20.9-3.2-35.3-3.3
		v-72c0-0.8-0.6-1.5-1.4-1.5C3.6,973.1,3.5,973.1,3.5,973.1z M14.8,983.2c-0.8,0.1-1.4,0.8-1.3,1.6s0.8,1.4,1.6,1.3l0,0
		c11.6,0,20.8,1.4,28.3,4.2c0.7,0.3,1.6,0,1.9-0.8c0.3-0.7,0-1.6-0.8-1.9c0,0-0.1,0-0.2-0.1c-8-3-17.4-4.4-29.3-4.4
		C15,983.2,14.9,983.2,14.8,983.2z M113,983.2c-11.9,0-21.3,1.4-29.3,4.4c-0.8,0.2-1.2,1-1,1.8s1,1.2,1.8,1c0.1,0,0.1,0,0.2-0.1
		c7.6-2.9,16.7-4.2,28.3-4.2c0.8,0,1.4-0.6,1.5-1.4S113.9,983.3,113,983.2C113.1,983.2,113,983.2,113,983.2z M14.8,999.1
		c-0.8,0.1-1.4,0.8-1.3,1.6c0.1,0.8,0.8,1.4,1.6,1.3c16.3,0,27.6,2.8,36.7,8.4c0.7,0.4,1.6,0.2,2-0.5s0.2-1.6-0.5-2l0,0
		c-9.6-5.9-21.6-8.8-38.2-8.8C15,999.1,14.9,999.1,14.8,999.1z M113,999.1c-16.6,0-28.6,2.9-38.2,8.8c-0.7,0.4-0.9,1.3-0.5,2
		s1.3,0.9,2,0.5l0,0c9.1-5.6,20.4-8.4,36.7-8.4c0.8,0,1.4-0.6,1.5-1.4S113.9,999.1,113,999.1C113.1,999.1,113,999.1,113,999.1z
		 M14.8,1014.9c-0.8,0.1-1.4,0.8-1.3,1.6s0.8,1.4,1.6,1.3c16.3,0,27.6,2.8,36.7,8.4c0.7,0.4,1.6,0.2,2-0.5s0.2-1.6-0.5-2l0,0
		c-9.6-5.9-21.6-8.8-38.2-8.8C15,1014.9,14.9,1014.9,14.8,1014.9z M113,1014.9c-16.6,0-28.6,2.9-38.2,8.8c-0.7,0.4-0.9,1.3-0.5,2
		s1.3,0.9,2,0.5l0,0c9.1-5.6,20.4-8.4,36.7-8.4c0.8,0,1.4-0.6,1.5-1.4S113.9,1015,113,1014.9C113.1,1014.9,113,1014.9,113,1014.9z
		 M14.8,1030.8c-0.8,0.1-1.4,0.8-1.3,1.6s0.8,1.4,1.6,1.3c16.3,0,27.6,2.8,36.7,8.4c0.7,0.4,1.6,0.2,2-0.5s0.2-1.6-0.5-2l0,0
		c-9.6-5.9-21.6-8.8-38.2-8.8C15,1030.8,14.9,1030.8,14.8,1030.8z M113,1030.8c-16.6,0-28.6,2.9-38.2,8.8c-0.7,0.4-0.9,1.3-0.5,2
		s1.3,0.9,2,0.5l0,0c9.1-5.6,20.4-8.4,36.7-8.4c0.8,0,1.4-0.6,1.5-1.4S113.9,1030.8,113,1030.8C113.1,1030.8,113,1030.8,113,1030.8z
		"/>
</g>
</svg>
