<?xml version="1.0" encoding="utf-8"?>
<!-- Generator: Adobe Illustrator 26.0.1, SVG Export Plug-In . SVG Version: 6.00 Build 0)  -->
<svg version="1.1" xmlns="http://www.w3.org/2000/svg" xmlns:xlink="http://www.w3.org/1999/xlink" x="0px" y="0px"
	 viewBox="0 0 128 128" style="enable-background:new 0 0 128 128;" xml:space="preserve">
<style type="text/css">
	.st0{display:none;}
	.st1{display:inline;fill:none;stroke:#FF6A61;stroke-width:2;stroke-miterlimit:10;}
	.st2{display:inline;}
	.st3{fill-rule:evenodd;clip-rule:evenodd;fill:#FF6A61;}
	.st4{fill:#FF6A61;}
</style>
<g id="Layer_5" class="st0">
	<polygon class="st1" points="43.2,82 38.2,95.8 33.2,82 25.1,75.8 33.2,69.5 38.2,55.7 43.2,69.5 51.3,75.8 	"/>
	<g class="st2">
		<path class="st3" d="M63.5,4.3c16.7,0,31.7,6.7,42.6,17.7s17.7,26,17.7,42.6s-6.7,31.7-17.7,42.6s-26,17.7-42.6,17.7
			s-31.7-6.7-42.6-17.7S3.3,81.1,3.3,64.6C3.3,47.9,10,32.8,20.9,22C31.9,11,47,4.3,63.5,4.3L63.5,4.3z M104.3,23.8
			c10.4,10.4,16.9,24.8,16.9,40.8s-6.4,30.3-16.9,40.8s-24.8,16.9-40.8,16.9s-30.3-6.4-40.8-16.9C12.4,94.9,5.9,80.4,5.9,64.6
			s6.5-30.3,16.9-40.8C33.2,13.3,47.7,6.9,63.5,6.9S93.9,13.3,104.3,23.8z"/>
	</g>
</g>
<g id="Layer_5_copy">
	<g>
		<path class="st3" d="M63.5,4.3c16.7,0,31.7,6.7,42.6,17.7s17.7,26,17.7,42.6s-6.7,31.7-17.7,42.6s-26,17.7-42.6,17.7
			s-31.7-6.7-42.6-17.7S3.3,81.1,3.3,64.6C3.3,47.9,10,32.8,20.9,22C31.9,11,47,4.3,63.5,4.3L63.5,4.3z M104.3,23.8
			c10.4,10.4,16.9,24.8,16.9,40.8s-6.4,30.3-16.9,40.8s-24.8,16.9-40.8,16.9s-30.3-6.4-40.8-16.9C12.4,94.9,5.9,80.4,5.9,64.6
			s6.5-30.3,16.9-40.8C33.2,13.3,47.7,6.9,63.5,6.9S93.9,13.3,104.3,23.8z"/>
	</g>
	<g>
		<polygon class="st4" points="77.2,40.8 76.3,59.9 82.5,41.8 101.6,42.8 83.5,36.6 84.4,17.5 78.2,35.6 59.2,34.7 		"/>
		<polygon class="st4" points="98.3,54.5 90.9,54.1 97.9,56.6 97.5,64 99.9,56.9 107.3,57.3 100.3,54.9 100.7,47.5 		"/>
		<polygon class="st4" points="94.8,33.2 95.9,30.1 99.3,30.2 96.1,29.1 96.3,25.8 95.2,28.9 91.8,28.8 95,29.9 		"/>
		<polygon class="st4" points="60.6,27 62.1,22.5 66.9,22.7 62.4,21.1 62.7,16.3 61.1,20.9 56.2,20.7 60.8,22.2 		"/>
		<polygon class="st4" points="66.2,44.4 66.3,41.8 65.5,44.2 63,44 65.3,44.8 65.2,47.4 66,45 68.6,45.1 		"/>
	</g>
</g>
</svg>
