<?xml version="1.0" encoding="utf-8"?>
<!-- Generator: Adobe Illustrator 26.0.1, SVG Export Plug-In . SVG Version: 6.00 Build 0)  -->
<svg version="1.1" id="Layer_3" xmlns="http://www.w3.org/2000/svg" xmlns:xlink="http://www.w3.org/1999/xlink" x="0px" y="0px"
	 viewBox="0 0 128 128" style="enable-background:new 0 0 128 128;" xml:space="preserve">
<style type="text/css">
	.st0{fill:#000333;}
</style>
<path class="st0" d="M58.3,94.6c3.4,5.9,7.6,5.9,11,0H58.3z M20.7,77.9c-2,0.6-3-2.4-1-3.1c7.1-2.2,14.5-3.8,21.5-3.4
	c2.1,0.1,2,3.3-0.2,3.2C34.6,74.3,27.5,75.8,20.7,77.9L20.7,77.9z M108.1,74.8c2,0.6,1.1,3.7-0.9,3.1c-6.8-2.1-13.8-3.6-20.4-3.2
	c-2.1,0.1-2.3-3.1-0.2-3.2C93.5,71.1,101,72.6,108.1,74.8L108.1,74.8z M108.1,101.3c2,0.6,1.1,3.7-0.9,3.1
	c-6.8-2.1-13.8-3.6-20.4-3.2c-2.1,0.1-2.3-3.1-0.2-3.2C93.5,97.5,101,99.1,108.1,101.3L108.1,101.3z M108.1,88.1
	c2,0.6,1.1,3.7-0.9,3.1c-6.8-2.1-13.8-3.6-20.4-3.3c-2.1,0.1-2.3-3.1-0.2-3.2C93.5,84.3,101,85.8,108.1,88.1L108.1,88.1z
	 M20.7,104.4c-2,0.6-3-2.4-1-3.1c7.1-2.2,14.5-3.8,21.5-3.4c2.1,0.1,2,3.3-0.2,3.2C34.6,100.8,27.5,102.2,20.7,104.4L20.7,104.4z
	 M20.7,91.1c-2,0.6-3-2.4-1-3.1c7.1-2.2,14.5-3.8,21.5-3.4c2.1,0.1,2,3.3-0.2,3.2C34.6,87.5,27.5,89,20.7,91.1L20.7,91.1z
	 M74.4,77.1c1.8,0.3,2.9,1.6,3.4,3.2l0,0c0.4,1.2,0.4,2.6,0,3.9l0,0c-0.2,0.6-0.4,1.2-0.8,1.6c0.3,0.5,0.6,1,0.8,1.6l0,0
	c0.4,1.2,0.4,2.6,0,3.9l0,0c-0.6,1.8-1.9,3.2-4,3.2H73c-1.7,3.4-4.1,6.6-7.3,7.4v20.3c13-3.2,25.5-3.2,38.4,0v-9.4
	c0-0.9,0.7-1.6,1.6-1.6h9.9V65.1c-9.3-5.1-20-7.1-30.4-6.1C81.7,64.7,76.6,71.3,74.4,77.1L74.4,77.1z M50.6,85.8
	c-0.3-0.5-0.6-1-0.8-1.6l0,0c-0.4-1.2-0.4-2.6,0-3.9l0,0c0.5-1.6,1.6-2.9,3.4-3.2c-2.2-5.6-7.4-12.4-10.8-18
	c-10.3-1-20.9,1.1-29.9,6.1v57.2c15.5-3.8,32.8-4.2,50,0v-20.2c-3.4-0.7-6-4-7.7-7.5H54c-2.1,0-3.5-1.4-4-3.2l0,0
	C49.2,89.5,49.5,87.3,50.6,85.8L50.6,85.8z M73.7,80.2H53.8c-1.5,0-1.5,3.9,0,3.9h20C75.2,84.2,75.2,80.2,73.7,80.2L73.7,80.2z
	 M53.8,91.3h20c1.5,0,1.5-3.9,0-3.9h-20C52.3,87.4,52.3,91.3,53.8,91.3L53.8,91.3z M62.2,3.6c0-2.1,3.2-2.1,3.2,0v8.1
	c0,2.1-3.2,2.1-3.2,0C62.2,11.7,62.2,3.6,62.2,3.6z M23.5,43.2c-2.1,0-2.1-3.2,0-3.2h8.1c2.1,0,2.1,3.2,0,3.2H23.5z M34.8,14.9
	c-1.5-1.5,0.8-3.8,2.3-2.3l5.7,5.8c1.5,1.5-0.8,3.8-2.3,2.3L34.8,14.9z M104.4,39.9c2.1,0,2.1,3.2,0,3.2h-8.2c-2.1,0-2.1-3.2,0-3.2
	H104.4z M90.1,12.9c1.5-1.5,3.8,0.8,2.3,2.3L86.6,21c-1.5,1.5-3.8-0.8-2.3-2.3L90.1,12.9z M82.8,56.8c0,0,0.1-0.1,0.1-0.2
	c1.6-2.8,2.9-5.4,3.2-7.8c2.3-14.5-7-27.8-22.4-27.8S39.1,34.4,41.4,48.8c1.2,7.8,12,18.8,15.1,28.2H71C73.2,70.3,79,63.2,82.8,56.8
	L82.8,56.8z M87.1,55.7c4.9-0.3,9.8,0,14.6,1c5.7,1.1,11.2,3.2,16.2,6.1c0.5,0.3,0.9,0.8,0.9,1.5V113c0,0.4-0.2,0.8-0.5,1.2
	l-11.5,11.5c-0.4,0.4-1,0.6-1.6,0.4c-6.8-1.8-13.5-2.8-20.2-2.8s-13.5,0.9-20.4,2.8h-1c-9.2-2.5-18-3.4-26-3.4
	c-10.2,0-19.2,1.5-26.3,3.4c-1,0.3-2-0.5-2-1.6l0,0V64.2c0-0.7,0.4-1.2,0.9-1.5c4.9-2.8,10.4-4.8,15.9-6c4.7-1,9.5-1.3,14.4-1.1
	c-2-3.9-2.6-7-2.6-11.2c0-17,13.8-28.9,30.4-26.3c15,2.4,23.4,16.5,21.1,31.1C89,51.4,88.2,53.5,87.1,55.7L87.1,55.7z M107.2,120.5
	l6-6h-6V120.5z"/>
</svg>
