<?xml version="1.0" encoding="utf-8"?>
<!-- Generator: Adobe Illustrator 28.4.1, SVG Export Plug-In . SVG Version: 6.00 Build 0)  -->
<svg version="1.1" id="Layer_1" xmlns="http://www.w3.org/2000/svg" xmlns:xlink="http://www.w3.org/1999/xlink" x="0px" y="0px"
	 viewBox="0 0 439 454" style="enable-background:new 0 0 439 454;" xml:space="preserve">
<style type="text/css">
	.st0{fill:#F1B31A;stroke:#B35000;stroke-width:5;}
	.st1{fill:#651023;stroke:#A75600;stroke-width:5;}
	.st2{fill:url(#SVGID_1_);}
	.st3{fill:url(#SVGID_00000142152679662503751460000014042414985773226369_);}
	.st4{fill:url(#SVGID_00000116232035178222308390000006753205301673728685_);}
	.st5{fill:url(#SVGID_00000106134979278316449050000011760584854550052510_);}
	.st6{fill:url(#SVGID_00000024693329460578679410000009336481120636518312_);}
	.st7{fill:url(#SVGID_00000066479592390730830640000014919031439093945014_);}
</style>
<path class="st0" d="M310.5,1.7c35.9-1.8,65.3,8,86.5,27.4c20.9,19.2,34,48,37.5,85.3l0.2,1.8c3.4,41.1,1.7,82.6-0.2,123.9
	l-0.8,17.7v0c-1.9,43-6.5,85.6-10.5,128.5c-1.1,11.8-2.8,23.7-6.3,34.7c-4.6,14.3-12.8,23.9-22.8,28.3c-10,4.4-22.2,3.8-35.5-3.2
	l0,0l0,0l-1.4-0.7c-13.8-7.4-26.9-18.5-37.8-30.7l-1.1-1.2c-55.3-63.4-121.9-97.6-201.7-99.8h0c-4-0.1-7.9-0.3-11.9-0.6h0l0,0
	l-1.8-0.1c-36.7-3-65.8-21-83-47.3c-17.2-26.3-22.7-61.2-11.9-98l0.5-1.8l0,0c10.3-34.3,33-58.2,70.2-86.5
	C143.4,41.3,221.8,6.1,310.5,1.7L310.5,1.7z"/>
<path class="st1" d="M305.5,19.4c33.7-1.6,61.3,7.3,81.1,25.2c19.5,17.6,31.9,44,35.1,78.1l0.1,1.6c3.1,37.7,1.6,75.8-0.2,113.8
	l-0.8,16.3l0,0c-1.6,37-5.6,73.7-9.2,110.6l-0.7,7.4c-1.1,10.8-2.7,21.8-5.9,31.8c-4.3,13.1-11.9,21.9-21.3,25.9
	c-9,3.9-20.1,3.5-32-2.4l-1.2-0.6l0,0l-1.3-0.7c-13-6.8-25.2-17-35.4-28.1l-1-1.1c-52-58.3-114.5-89.7-189.4-91.7h0
	c-3.8-0.1-7.4-0.3-11.1-0.5h0l0,0l-1.6-0.1c-34.5-2.7-61.7-19.2-77.8-43.3c-16.1-24.1-21.2-56-11.1-89.8l0.5-1.6l0,0
	c9.7-31.4,30.9-53.3,65.8-79.3C148.6,55.7,222.3,23.4,305.5,19.4L305.5,19.4z"/>
<linearGradient id="SVGID_1_" gradientUnits="userSpaceOnUse" x1="153.7042" y1="281.0483" x2="153.7042" y2="231.1107" gradientTransform="matrix(1 0 0 -1 0 456)">
	<stop  offset="0" style="stop-color:#F1B31A"/>
	<stop  offset="0.9327" style="stop-color:#F2B91D"/>
</linearGradient>
<path class="st2" d="M169.9,224.7c-0.7,0-1.3,0-2,0c-2.7,0.3-3.8-0.8-4.4-3.1c-1.6-6.1-1.6-6.1-8.8-6.1c-0.2,0-0.2,0-0.4,0
	c-2.7,0.2-6-0.8-8.4,0.5c-2.2,1.3-1.8,4.5-2.7,6.8c-0.2,0.7-0.4,1.7-1.3,1.8c-3.1,0.5-6.4,0.5-9.5,0c-1.5-0.2-0.7-1.7-0.4-2.3
	c1.5-5,3.1-10.1,4.7-15c3.1-9.7,6.4-19.7,9.5-29.4c0.7-2.1,1.6-3,4.2-2.8c2.4,0.2,4.7,0.2,7.1,0c2-0.2,3.1,0.7,3.7,2.5
	c4,12.6,7.9,25.1,11.9,37.5c0.7,2.3,1.5,4.8,2.4,7.1c0.7,2,0.2,3-2.2,2.8C171.9,224.5,171,224.7,169.9,224.7z M154,188.3
	c-0.2,0-0.5,0-0.7,0.2c-1.5,5.3-3.1,10.6-4.6,16c-0.4,1.2,0.2,1.8,1.5,1.8c2.4,0,4.7,0,7.1,0c1.1,0,1.6-0.3,1.5-1.3
	C157.1,199.2,155.6,193.8,154,188.3z"/>
<linearGradient id="SVGID_00000007389505239587198770000012440686919286288536_" gradientUnits="userSpaceOnUse" x1="60.8949" y1="281.0483" x2="60.8949" y2="231.1105" gradientTransform="matrix(1 0 0 -1 0 456)">
	<stop  offset="0" style="stop-color:#F1B31A"/>
	<stop  offset="0.9327" style="stop-color:#F2B91D"/>
</linearGradient>
<path style="fill:url(#SVGID_00000007389505239587198770000012440686919286288536_);" d="M42.1,199.8c0-7.2,0-14.7,0-21.9
	c0-2.1,0.7-3.1,3.2-3c5.3,0.2,10.8,0,16.1,0.2c9.9,0.2,17.5,6.1,18.2,14.2c1.1,11.4-4.2,18.8-15,20.9c-2.8,0.5-5.8,0.8-8.7,0.7
	c-2.3-0.2-3.4,0.7-3.2,3c0.2,2.8,0,5.6,0,8.4c0,1.8-0.7,2.6-2.8,2.6c-9.2-0.2-7.6,1-7.8-6.8C42,211.9,42.1,205.8,42.1,199.8z
	 M52.6,192.4c0,1,0,2,0,3.1c0.2,6.8-1.2,6.3,6.9,6.1c5.5-0.2,8.7-3.3,9-8.4c0.2-5.3-2.7-8.4-8.1-9.1c-1.8-0.2-3.7,0-5.5-0.2
	c-1.6,0-2.3,0.8-2.3,2.1C52.7,188.1,52.6,190.3,52.6,192.4z"/>
<linearGradient id="SVGID_00000068670459446644492220000004732178466931317404_" gradientUnits="userSpaceOnUse" x1="200.8153" y1="281.0483" x2="200.8153" y2="231.1105" gradientTransform="matrix(1 0 0 -1 0 456)">
	<stop  offset="0" style="stop-color:#F1B31A"/>
	<stop  offset="0.9327" style="stop-color:#F2B91D"/>
</linearGradient>
<path style="fill:url(#SVGID_00000068670459446644492220000004732178466931317404_);" d="M195.7,216c1-5.5-1.2-10.1-3.6-14.9
	c-4-7.8-7.8-15.7-11.7-23.5c-1.2-2.5-1.2-2.6,1.7-2.6c8.3-0.2,8.3-0.2,11.6,7.1c2.1,4.3,4,8.8,5.9,13.1c0.3,0.7,0.3,1.8,1.2,1.8
	c1,0,1.2-1.2,1.6-1.8c2.8-5.8,5.3-11.7,7.9-17.5c0.9-2,2.1-2.8,4.3-2.6c1.9,0.2,3.8,0,5.5,0c1.9,0,2.4,0.7,1.6,2.3
	c-1.4,2.6-2.6,5.5-4,8.1c-3.6,7.3-7.2,14.7-10.9,22c-0.9,1.7-0.9,3.5-0.9,5.3c0,3.3,0,6.6,0,9.9c0,1.7-0.7,2.3-2.4,2.3
	c-9.3-0.2-7.8,1.2-7.9-6.9C195.7,217.3,195.7,216.6,195.7,216z"/>
<linearGradient id="SVGID_00000096769784438708822170000009554605348035859131_" gradientUnits="userSpaceOnUse" x1="107.5351" y1="281.0485" x2="107.5351" y2="231.1108" gradientTransform="matrix(1 0 0 -1 0 456)">
	<stop  offset="0" style="stop-color:#F1B31A"/>
	<stop  offset="0.9327" style="stop-color:#F2B91D"/>
</linearGradient>
<path style="fill:url(#SVGID_00000096769784438708822170000009554605348035859131_);" d="M89.3,199.9c0-7.3,0-14.5,0-21.8
	c0-2.3,0.7-3.1,3.3-3.1c7.9,0.2,6.8-0.8,6.8,6.3c0,10.2,0,20.5,0,30.7c0,4,0,4,4.2,4c6.3,0,12.6,0,18.9,0c2.4,0,3.5,0.7,3.3,3
	c-0.2,6.8,0.5,5.9-6.3,5.9c-9.1,0-18,0-27.1,0c-2.4,0-3.3-0.8-3.3-3.1C89.3,214.6,89.3,207.2,89.3,199.9z"/>
<linearGradient id="SVGID_00000077292064210946018750000012104675664237530025_" gradientUnits="userSpaceOnUse" x1="219.4972" y1="375.2564" x2="219.4972" y2="155.4971" gradientTransform="matrix(1 0 0 -1 0 456)">
	<stop  offset="0" style="stop-color:#F1B31A"/>
	<stop  offset="0.9327" style="stop-color:#F2B91D"/>
</linearGradient>
<path style="fill:url(#SVGID_00000077292064210946018750000012104675664237530025_);" d="M222.7,80.9c14.6,0,29.3,0,43.9,0
	c3.1,0,3.1,0,1.9,2.7c-9.1,20.2-18.3,40.5-27.5,60.6c-0.8,1.9-0.4,2.5,1.4,3.1c12.2,4,23.2,10.4,32.1,19.7
	c13.3,13.9,20.9,30.5,22,49.9c1.5,25.3-7,46.6-25.5,63.6c-11.8,10.9-25.8,17.4-41.6,19.3c-26,3.1-48.4-4.8-66.6-23.8
	c-10.7-11.1-17.4-24.3-20.3-39.5c-0.4-1.9,0-2.6,1.9-2.6c6.9,0,13.8,0,20.7,0c1.2,0,2,0.3,2.3,1.8c2.3,10.8,8,19.4,16,26.7
	c9.8,8.9,21.6,13.1,34.6,13.3c25.9,0.3,49.6-17.9,54-45.3c4.7-29.5-15.7-57.6-45.1-62c-7.3-1.1-14.5-0.7-21.6,1.2
	c-0.7,0.1-1.5,0.7-1.9,0.1c-0.4-0.5,0.1-1.4,0.4-1.9c8.1-18.5,16.3-37.1,24.4-55.5c1.1-2.3,1.9-4.6,3.1-7c0.8-1.6,0.3-2.1-1.4-2.1
	c-7,0-14.1,0-21.1,0c-10.2,0-20.3,0-30.4,0c-2.8,0-3-0.1-3-3c0-5.6,0-11.2,0-16.7c0-2.7,0.1-2.9,2.8-2.9
	C193.1,80.9,207.8,80.9,222.7,80.9z"/>
<linearGradient id="SVGID_00000033327064438035387680000000029519100185866169_" gradientUnits="userSpaceOnUse" x1="327.8942" y1="375.5637" x2="327.8942" y2="223.3876" gradientTransform="matrix(1 0 0 -1 0 456)">
	<stop  offset="0" style="stop-color:#F1B31A"/>
	<stop  offset="0.9327" style="stop-color:#F2B91D"/>
</linearGradient>
<path style="fill:url(#SVGID_00000033327064438035387680000000029519100185866169_);" d="M303.9,221.1c0.3-6.2-0.7-12-2-18.1
	c-0.1-0.5-0.7-1.4-0.1-1.8c0.7-0.5,1.4,0.1,1.9,0.5c7.3,4,15.3,6,23.6,6c11.9,0,22.8-3.8,32-11.5c10.2-8.3,16.4-19.1,18.2-32.4
	c2-14.6-1.5-27.9-10.7-39.4c-10.7-13.3-24.8-19.7-41.6-19c-25.2,1.1-45.1,20.7-48,44.9c-0.3,2.1-0.4,4.2-0.4,6.3
	c0,0.5,0.3,1.2-0.4,1.5c-0.5,0.1-0.8-0.4-1.2-0.7c-4.5-4-9.2-7.5-14.5-10.5c-1.8-1-3.5-1.9-5.4-2.7c-1.6-0.7-2-1.5-1.8-3.1
	c2.7-12.4,8-23.8,16.3-33.5c13.1-15.5,29.8-24.5,49.9-26.7c19.5-2.1,37.4,3,53,15c17.4,13.4,27.4,31.2,29.6,53.2
	c2,20.9-3.7,39.7-16.8,55.8c-12.9,15.7-29.7,24.9-49.9,27.2c-9.6,1.1-19.1,0.3-28.5-2.2c-3.1-0.8-3.1-0.8-3.1-4.1c0-0.8,0-1.6,0-2.6
	C303.9,222.6,303.9,221.7,303.9,221.1z"/>
</svg>
