<?xml version="1.0" encoding="utf-8"?>
<!-- Generator: Adobe Illustrator 28.4.1, SVG Export Plug-In . SVG Version: 6.00 Build 0)  -->
<svg version="1.1" id="Layer_1" xmlns="http://www.w3.org/2000/svg" xmlns:xlink="http://www.w3.org/1999/xlink" x="0px" y="0px"
	 viewBox="0 0 120 120" style="enable-background:new 0 0 120 120;" xml:space="preserve">
<style type="text/css">
	.st0{fill:#FFFFFF;}
	.st1{fill:#FF9900;}
</style>
<g>
	<path d="M69.5,4.8L69.5,4.8c3,1.8,6.4,2.8,10,2.7l0,0c6.8-0.2,13.1,3.5,16.4,9.5v0c1.7,3.1,4.2,5.6,7.3,7.3l0,0
		c6,3.2,9.6,9.6,9.5,16.4l0,0c-0.1,3.5,0.8,7,2.7,10l0,0c3.6,5.8,3.6,13.1,0,18.9h0c-1.8,3-2.8,6.4-2.7,10l0,0
		c0.2,6.8-3.5,13.1-9.5,16.4l0,0c-3.1,1.7-5.6,4.2-7.3,7.3v0c-3.2,6-9.6,9.6-16.4,9.5l0,0c-3.5-0.1-7,0.8-10,2.7h0
		c-5.8,3.6-13.1,3.6-18.9,0l0,0c-3-1.8-6.4-2.8-10-2.7l0,0c-6.8,0.2-13.1-3.5-16.4-9.5v0c-1.7-3.1-4.2-5.6-7.3-7.3l0,0
		c-6-3.2-9.6-9.6-9.5-16.4l0,0c0.1-3.5-0.8-7-2.7-10l0,0c-3.6-5.8-3.6-13.1,0-18.9v0c1.8-3,2.8-6.4,2.7-10l0,0
		c-0.2-6.8,3.5-13.1,9.5-16.4l0,0c3.1-1.7,5.6-4.2,7.3-7.3v0c3.2-6,9.6-9.6,16.4-9.5l0,0c3.5,0.1,7-0.8,10-2.7l0,0
		C56.3,1.2,63.7,1.2,69.5,4.8z"/>
	<g>
		<path class="st0" d="M76.4,45.3c0,0.3-0.1,0.6-0.1,0.9c-0.3,0-0.6,0-1,0c0-3.3,0-6.6,0-10c0.4,0,0.7,0,1.2-0.1c0,1.4,0,2.7,0,3.9
			c0.7-0.3,1.4-0.7,2.1-0.8c1.3-0.2,2.4,0.5,2.9,1.8c0.4,1.2,0.4,2.4-0.1,3.5c-0.9,1.9-3.2,2.3-4.7,0.8
			C76.6,45.4,76.6,45.4,76.4,45.3z M80.6,42.9c-0.1-0.4-0.1-0.7-0.1-1c-0.3-1.1-1.1-1.7-2.1-1.6c-1,0.1-1.7,0.9-1.8,2
			c0,0.4,0,0.8,0,1.1c0.1,1,0.7,1.7,1.6,1.9c0.9,0.2,1.8-0.3,2.2-1.3C80.4,43.7,80.5,43.3,80.6,42.9z"/>
		<path class="st0" d="M30.6,42.8c0-2.2,1.3-3.6,3.4-3.6c2,0,3.3,1.4,3.3,3.5c0,2.1-1.4,3.5-3.4,3.6C31.9,46.4,30.6,45,30.6,42.8z
			 M36,42.7c0-0.2,0-0.5-0.1-0.8c-0.2-1-0.9-1.6-1.8-1.7c-0.9,0-1.6,0.5-2,1.5c-0.1,0.4-0.2,0.7-0.2,1.1c0,1.5,0.9,2.6,2,2.6
			C35.1,45.4,36,44.3,36,42.7z"/>
		<path class="st0" d="M92.1,43c-1.6,0-3.1,0-4.6,0c-0.1,2,1.2,2.6,4.2,2.1c0.1,0.3,0.1,0.5,0.2,0.7c-1.5,0.9-3.9,0.6-4.9-0.6
			c-1.1-1.3-1-3.7,0.1-5c0.9-1,2.4-1.3,3.6-0.8C91.8,40,92.4,41.4,92.1,43z M90.9,42.1c0-1.2-0.5-1.9-1.5-1.9
			c-1.1,0-1.8,0.7-1.9,1.9C88.6,42.1,89.8,42.1,90.9,42.1z"/>
		<path class="st0" d="M55.4,40.6c-0.5-0.6-0.3-1,0.4-1.1c0.5-0.1,1-0.2,1.6-0.2c1.6,0,2.5,0.8,2.6,2.4c0.1,1.5,0,2.9,0,4.5
			c-0.5,0.1-1.1,0.3-1.1-0.5c-0.6,0.2-1.1,0.6-1.7,0.7C56,46.5,55,46,54.7,45c-0.3-1,0.1-2.1,1.1-2.5c0.9-0.4,1.9-0.5,2.9-0.8
			C58.8,40.2,57.6,39.8,55.4,40.6z M58.6,42.6c-0.7,0.2-1.5,0.3-2.1,0.6c-0.6,0.2-0.7,0.8-0.6,1.4c0.2,0.6,0.7,0.8,1.3,0.8
			C58.4,45.3,58.9,44.3,58.6,42.6z"/>
		<path class="st0" d="M101.6,46.2c-0.4,0-0.6,0-1,0c-0.1-0.2-0.1-0.4-0.2-0.6c-0.6,0.3-1.2,0.6-1.8,0.7c-1.1,0.2-2-0.4-2.3-1.2
			c-0.4-1,0-2,1-2.6c0.4-0.2,0.9-0.4,1.4-0.5c0.5-0.1,1-0.1,1.5-0.2c0.1-1.6-0.9-2-3.2-1.3c-0.4-0.7-0.4-0.9,0.4-1.1
			c0.6-0.2,1.2-0.2,1.8-0.2c1.2,0,2.1,0.7,2.2,1.9c0.1,0.8,0.1,1.6,0.1,2.3c0,0.4,0,0.9,0,1.3C101.6,45.2,101.6,45.7,101.6,46.2z
			 M100.2,42.7c-0.7,0.2-1.4,0.2-2.1,0.5c-0.6,0.2-0.9,0.9-0.6,1.5c0.3,0.6,0.8,0.8,1.4,0.7C100,45.2,100.5,44.3,100.2,42.7z"/>
		<path class="st0" d="M18.9,41.8c0-1.7-1.1-2.1-3.3-1.2c-0.1-0.2-0.2-0.5-0.3-0.8c1.2-0.6,2.3-0.8,3.5-0.4c0.9,0.3,1.3,1.1,1.4,1.9
			c0.1,1.6,0,3.2,0,4.8c-0.5,0-1.1,0.3-1.1-0.6c-0.6,0.2-1.2,0.6-1.8,0.7c-1.1,0.2-2-0.4-2.3-1.3c-0.3-1,0.1-2.1,1.1-2.6
			c0.4-0.2,0.9-0.4,1.4-0.5C17.9,41.9,18.4,41.9,18.9,41.8z M18.9,42.6c-0.7,0.2-1.4,0.3-2.1,0.5c-0.6,0.3-0.9,1-0.6,1.6
			c0.3,0.7,0.8,0.8,1.4,0.6C18.8,45.1,19.2,44.3,18.9,42.6z"/>
		<path class="st0" d="M45.3,41.8c0-1.7-1-2-3.3-1.2c-0.1-0.2-0.2-0.4-0.3-0.7c1.1-0.7,2.3-0.9,3.5-0.4c1.1,0.4,1.4,1.4,1.4,2.5
			c0,1.4,0,2.8,0,4.2c-0.5,0.1-1.1,0.4-1.1-0.5c-0.7,0.2-1.3,0.6-1.9,0.7c-1.1,0.2-2-0.4-2.3-1.4c-0.3-1,0.1-2,1.1-2.5
			c0.4-0.2,0.9-0.4,1.4-0.5C44.3,41.9,44.7,41.9,45.3,41.8z M45.2,42.7c-0.7,0.2-1.4,0.2-2,0.4c-0.7,0.2-0.9,0.9-0.7,1.5
			c0.2,0.6,0.8,0.9,1.5,0.7C45.1,45.1,45.5,44.3,45.2,42.7z"/>
		<path class="st0" d="M72.1,41.7c0.1-1.5-1-1.9-3.3-1.1c-0.1-0.2-0.2-0.4-0.3-0.7c1.2-0.7,2.3-0.9,3.6-0.4c1.1,0.4,1.3,1.4,1.3,2.5
			c0,1.4,0,2.8,0,4.2c-0.5,0-1.1,0.3-1.1-0.6c-0.6,0.2-1.1,0.6-1.7,0.7c-1.1,0.2-2.1-0.3-2.4-1.2c-0.3-1,0.1-2.2,1.1-2.6
			C70.1,42.1,71.1,42,72.1,41.7z M72.1,42.6c-0.8,0.2-1.6,0.3-2.2,0.6c-0.3,0.2-0.5,0.8-0.6,1.3c0,0.5,0.4,0.8,1,0.9
			c0.8,0.1,1.7-0.5,1.8-1.3C72.2,43.7,72.1,43.3,72.1,42.6z"/>
		<path class="st0" d="M47.6,39.5c1.3-0.2,1.3-0.2,1.6,0.8c0.5,1.4,1,2.9,1.6,4.5c0.6-1.6,1.1-3.1,1.6-4.5c0.4-1,0.4-1,1.6-0.8
			c-0.7,1.8-1.4,3.5-2,5.3c-0.1,0.4-0.2,0.7-0.4,1c-0.1,0.2-0.4,0.4-0.7,0.4c-0.3,0-0.7-0.1-0.8-0.3C49.2,43.7,48.4,41.6,47.6,39.5z
			"/>
		<path class="st0" d="M25.2,45.1c0.7,0.1,1.3,0.4,1.9,0.3c0.4,0,0.9-0.4,1.1-0.7c0.3-0.5-0.1-1-0.6-1.2c-0.5-0.2-1-0.4-1.4-0.7
			c-0.7-0.4-1-1-0.9-1.8c0.1-0.8,0.6-1.4,1.3-1.6c0.6-0.1,1.3-0.1,1.9,0c0.8,0.1,0.8,0.2,0.5,1.1c-0.5-0.1-0.9-0.2-1.4-0.3
			c-0.5,0-1,0.2-1.1,0.7c-0.2,0.6,0.2,0.9,0.7,1.1c0.5,0.2,0.9,0.4,1.4,0.6c0.7,0.4,1.1,1.1,1,1.9c-0.1,0.8-0.6,1.3-1.3,1.6
			c-1.1,0.4-2.1,0.3-3.2-0.2C25.1,45.6,25.2,45.3,25.2,45.1z"/>
		<path class="st0" d="M106.7,40.3c-0.6,0-1.1,0-1.7,0c0,1.4,0,2.8,0,4.2c0,0.6,0.4,0.8,1.5,0.8c0.3,0.8,0.2,0.9-0.6,1
			c-1.3,0.1-2.1-0.5-2.2-1.9c0-0.7,0-1.4,0-2c0-0.7,0-1.3,0-2c-0.4,0-0.6-0.1-1-0.1c0-0.3,0-0.5,0-0.8c0.3,0,0.6-0.1,0.9-0.1
			c0.2-0.7-0.4-2,1.3-1.8c0,0.6,0,1.2,0,1.8c0.6,0,1.2,0.1,1.7,0.1C106.7,39.7,106.7,40,106.7,40.3z"/>
		<path class="st0" d="M66.5,36.2c0,3.3,0,6.6,0,9.9c-0.4,0-0.8,0-1.2,0c0-3.3,0-6.6,0-9.9C65.7,36.2,66,36.2,66.5,36.2z"/>
		<path class="st0" d="M83.4,36.2c0.4,0,0.7,0,1.1,0c0,3.3,0,6.6,0,9.9c-0.4,0-0.7,0-1.1,0C83.4,42.8,83.4,39.6,83.4,36.2z"/>
		<path class="st0" d="M22.2,46.1c0-3.3,0-6.6,0-9.9c0.4,0,0.8,0,1.2,0c0,3.3,0,6.6,0,9.9C23,46.1,22.6,46.1,22.2,46.1z"/>
		<path class="st0" d="M63.1,46.2c-0.4,0-0.7,0-1.1,0c0-2.2,0-4.5,0-6.7c0.4,0,0.7,0,1.1,0C63.1,41.7,63.1,43.9,63.1,46.2z"/>
		<path class="st0" d="M63.4,37.7c-0.3,0.2-0.6,0.5-0.9,0.5c-0.5,0.1-0.7-0.3-0.7-0.8c0-0.5,0.3-0.8,0.8-0.7
			c0.3,0.1,0.6,0.4,0.9,0.6C63.4,37.5,63.4,37.6,63.4,37.7z"/>
	</g>
	<g>
		<path id="path8" class="st1" d="M72.8,77.3c-5.8,4.3-14.2,6.6-21.5,6.6c-10.2,0-19.3-3.8-26.2-10c-0.5-0.5-0.1-1.2,0.6-0.8
			c7.5,4.3,16.7,7,26.3,7c6.4,0,13.5-1.3,20-4.1C72.9,75.5,73.7,76.5,72.8,77.3"/>
		<path id="path10" class="st1" d="M75.2,74.5c-0.7-0.9-4.9-0.4-6.8-0.2c-0.6,0.1-0.7-0.4-0.1-0.8c3.3-2.3,8.8-1.7,9.4-0.9
			c0.6,0.8-0.2,6.3-3.3,8.9c-0.5,0.4-0.9,0.2-0.7-0.3C74.4,79.4,75.9,75.4,75.2,74.5"/>
	</g>
	<path id="path12" class="st0" d="M68.5,57v-2.3c0-0.3,0.3-0.6,0.6-0.6h10.2c0.3,0,0.6,0.2,0.6,0.6v1.9c0,0.3-0.3,0.8-0.8,1.4
		l-5.3,7.5c2,0,4,0.2,5.8,1.2c0.4,0.2,0.5,0.6,0.5,0.9v2.4c0,0.3-0.4,0.7-0.7,0.5c-3.1-1.6-7.3-1.8-10.7,0c-0.4,0.2-0.7-0.2-0.7-0.5
		v-2.3c0-0.4,0-1,0.4-1.6l6.1-8.8h-5.3C68.8,57.5,68.5,57.3,68.5,57"/>
	<path id="path14" class="st0" d="M31.4,71.2h-3.1c-0.3,0-0.5-0.2-0.6-0.5V54.7c0-0.3,0.3-0.6,0.6-0.6h2.9c0.3,0,0.5,0.2,0.6,0.5
		v2.1h0.1c0.8-2,2.2-2.9,4.1-2.9c1.9,0,3.1,0.9,4,2.9c0.7-2,2.5-2.9,4.3-2.9c1.3,0,2.7,0.5,3.6,1.7c1,1.3,0.8,3.3,0.8,5l0,10
		c0,0.3-0.3,0.6-0.6,0.6h-3.1c-0.3,0-0.6-0.3-0.6-0.6v-8.4c0-0.7,0.1-2.3-0.1-3c-0.2-1.1-0.9-1.4-1.8-1.4c-0.7,0-1.5,0.5-1.8,1.3
		c-0.3,0.8-0.3,2.1-0.3,3v8.4c0,0.3-0.3,0.6-0.6,0.6h-3.1c-0.3,0-0.6-0.3-0.6-0.6l0-8.4c0-1.8,0.3-4.4-1.9-4.4
		c-2.2,0-2.1,2.5-2.1,4.4v8.4C32,70.9,31.8,71.2,31.4,71.2"/>
	<path id="path16" class="st0" d="M88.6,53.8c4.6,0,7.1,3.9,7.1,9c0,4.8-2.7,8.7-7.1,8.7c-4.5,0-7-3.9-7-8.9
		C81.7,57.7,84.2,53.8,88.6,53.8 M88.7,57.1c-2.3,0-2.4,3.1-2.4,5c0,1.9,0,6.1,2.4,6.1c2.4,0,2.5-3.3,2.5-5.4c0-1.3-0.1-2.9-0.5-4.2
		C90.3,57.5,89.6,57.1,88.7,57.1"/>
	<path id="path18" class="st0" d="M101.7,71.2h-3.1c-0.3,0-0.6-0.3-0.6-0.6l0-15.9c0-0.3,0.3-0.5,0.6-0.5h2.9c0.3,0,0.5,0.2,0.6,0.4
		V57h0.1c0.9-2.2,2.1-3.2,4.2-3.2c1.4,0,2.7,0.5,3.6,1.9c0.8,1.3,0.8,3.4,0.8,4.9v10c0,0.3-0.3,0.5-0.6,0.5H107
		c-0.3,0-0.5-0.2-0.5-0.5V62c0-1.7,0.2-4.3-1.9-4.3c-0.8,0-1.4,0.5-1.8,1.3c-0.4,1-0.5,1.9-0.5,3v8.6
		C102.3,70.9,102,71.2,101.7,71.2"/>
	<path id="path30" class="st0" d="M60.4,63.6v-0.7c-2.2,0-4.6,0.5-4.6,3.1c0,1.3,0.7,2.2,1.9,2.2c0.9,0,1.6-0.5,2.1-1.4
		C60.5,65.8,60.4,64.8,60.4,63.6 M63.6,71.1c-0.2,0.2-0.5,0.2-0.7,0.1c-1-0.9-1.2-1.2-1.8-2.1c-1.7,1.7-2.9,2.3-5.1,2.3
		c-2.6,0-4.6-1.6-4.6-4.8c0-2.5,1.4-4.2,3.3-5.1c1.7-0.7,4-0.9,5.8-1.1V60c0-0.7,0.1-1.6-0.4-2.2C59.7,57.2,59,57,58.3,57
		c-1.2,0-2.2,0.6-2.5,1.9c-0.1,0.3-0.3,0.6-0.5,0.6l-3-0.3c-0.3-0.1-0.5-0.3-0.5-0.6c0.7-3.6,4-4.7,6.9-4.7c1.5,0,3.5,0.4,4.7,1.5
		c1.5,1.4,1.4,3.3,1.4,5.3v4.8c0,1.4,0.6,2.1,1.2,2.9c0.2,0.3,0.2,0.6,0,0.8C65.3,69.6,64.2,70.6,63.6,71.1L63.6,71.1"/>
	<path id="path30_00000170975640362600405180000005643947588863948678_" class="st0" d="M19.9,63.6v-0.7c-2.2,0-4.6,0.5-4.6,3.1
		c0,1.3,0.7,2.2,1.9,2.2c0.9,0,1.6-0.5,2.1-1.4C19.9,65.8,19.9,64.8,19.9,63.6 M23,71.1c-0.2,0.2-0.5,0.2-0.7,0.1
		c-1-0.9-1.2-1.2-1.8-2.1c-1.7,1.7-2.9,2.3-5.1,2.3c-2.6,0-4.6-1.6-4.6-4.8c0-2.5,1.4-4.2,3.3-5.1c1.7-0.7,4-0.9,5.8-1.1V60
		c0-0.7,0.1-1.6-0.4-2.2c-0.4-0.6-1.1-0.8-1.7-0.8c-1.2,0-2.2,0.6-2.5,1.9c-0.1,0.3-0.3,0.6-0.5,0.6l-3-0.3
		c-0.3-0.1-0.5-0.3-0.5-0.6c0.7-3.6,4-4.7,6.9-4.7c1.5,0,3.5,0.4,4.7,1.5c1.5,1.4,1.4,3.3,1.4,5.3v4.8c0,1.4,0.6,2.1,1.2,2.9
		c0.2,0.3,0.2,0.6,0,0.8C24.7,69.6,23.6,70.6,23,71.1L23,71.1"/>
</g>
</svg>
