<?xml version="1.0" encoding="utf-8"?>
<!-- Generator: Adobe Illustrator 28.4.1, SVG Export Plug-In . SVG Version: 6.00 Build 0)  -->
<svg version="1.1" id="Layer_1" xmlns="http://www.w3.org/2000/svg" xmlns:xlink="http://www.w3.org/1999/xlink" x="0px" y="0px"
	 viewBox="0 0 120 120" style="enable-background:new 0 0 120 120;" xml:space="preserve">
<style type="text/css">
	.st0{fill:#FFFFFF;}
	.st1{fill:#FF9900;}
</style>
<circle cx="60" cy="60" r="56.7"/>
<g>
	<path class="st0" d="M74.7,46.9c0,0.3-0.1,0.5-0.1,0.8c-0.3,0-0.5,0-0.9,0c0-2.9,0-5.9,0-8.9c0.3,0,0.7,0,1.1-0.1
		c0,1.2,0,2.4,0,3.5c0.6-0.3,1.2-0.6,1.8-0.7c1.2-0.2,2.1,0.5,2.6,1.6c0.4,1.1,0.4,2.1-0.1,3.1c-0.8,1.7-2.8,2-4.2,0.7
		C74.8,47,74.8,47,74.7,46.9z M78.3,44.8c0-0.3-0.1-0.6-0.1-0.9c-0.3-1-1-1.5-1.8-1.4c-0.9,0.1-1.5,0.8-1.6,1.8c0,0.3,0,0.7,0,1
		c0,0.9,0.6,1.5,1.4,1.7c0.8,0.1,1.6-0.3,1.9-1.1C78.2,45.5,78.3,45.1,78.3,44.8z"/>
	<path class="st0" d="M34,44.8c0-1.9,1.2-3.2,3-3.2c1.8,0,2.9,1.2,2.9,3.1c0,1.9-1.2,3.1-3,3.2C35.2,47.9,34,46.7,34,44.8z
		 M38.8,44.6c0-0.1,0-0.4-0.1-0.7c-0.2-0.9-0.8-1.4-1.6-1.5c-0.8,0-1.5,0.4-1.8,1.3c-0.1,0.3-0.2,0.7-0.2,1c0,1.3,0.8,2.3,1.8,2.3
		C38,47.1,38.8,46.1,38.8,44.6z"/>
	<path class="st0" d="M88.5,45c-1.4,0-2.8,0-4.1,0c-0.1,1.8,1.1,2.3,3.7,1.8c0.1,0.2,0.1,0.4,0.2,0.7c-1.4,0.8-3.4,0.5-4.3-0.5
		c-0.9-1.1-0.9-3.3,0.1-4.4c0.8-0.9,2.1-1.2,3.2-0.7C88.3,42.3,88.8,43.5,88.5,45z M87.5,44.1c0-1-0.5-1.7-1.4-1.7
		c-0.9,0-1.6,0.6-1.7,1.7C85.5,44.1,86.5,44.1,87.5,44.1z"/>
	<path class="st0" d="M56,42.8c-0.4-0.5-0.2-0.9,0.3-1c0.5-0.1,0.9-0.2,1.4-0.2c1.4,0,2.2,0.7,2.3,2.2c0.1,1.3,0,2.6,0,3.9
		c-0.5,0.1-0.9,0.3-1-0.5c-0.5,0.2-1,0.5-1.5,0.6c-1,0.2-1.8-0.3-2.1-1.1c-0.3-0.9,0.1-1.9,1-2.3c0.8-0.3,1.7-0.5,2.5-0.7
		C59,42.5,57.9,42,56,42.8z M58.8,44.6c-0.7,0.2-1.3,0.3-1.9,0.5c-0.5,0.2-0.7,0.7-0.5,1.3c0.2,0.6,0.6,0.7,1.2,0.7
		C58.7,47,59.1,46.1,58.8,44.6z"/>
	<path class="st0" d="M96.9,47.7c-0.3,0-0.6,0-0.9,0c-0.1-0.2-0.1-0.4-0.1-0.5c-0.5,0.2-1.1,0.5-1.6,0.6c-0.9,0.2-1.8-0.3-2.1-1.1
		c-0.3-0.9,0-1.8,0.9-2.3c0.4-0.2,0.8-0.3,1.3-0.4c0.4-0.1,0.9-0.1,1.3-0.2c0.1-1.4-0.8-1.8-2.9-1.1c-0.4-0.7-0.4-0.8,0.4-1
		c0.5-0.1,1.1-0.2,1.6-0.2c1.1,0,1.8,0.6,2,1.7c0.1,0.7,0.1,1.4,0.1,2.1c0,0.4,0,0.8,0,1.1C96.9,46.9,96.9,47.3,96.9,47.7z
		 M95.8,44.6c-0.6,0.1-1.3,0.2-1.8,0.4c-0.6,0.2-0.8,0.8-0.6,1.3c0.2,0.6,0.7,0.7,1.3,0.6C95.6,46.8,96,46.1,95.8,44.6z"/>
	<path class="st0" d="M23.6,43.9c0-1.5-0.9-1.8-2.9-1.1c-0.1-0.2-0.2-0.4-0.3-0.7c1-0.5,2-0.7,3.1-0.3c0.8,0.3,1.2,0.9,1.2,1.7
		c0.1,1.4,0,2.8,0,4.3c-0.4,0-1,0.3-1-0.5c-0.5,0.2-1.1,0.5-1.6,0.6c-0.9,0.2-1.8-0.3-2.1-1.1c-0.3-0.9,0.1-1.8,0.9-2.3
		c0.4-0.2,0.8-0.3,1.3-0.4C22.7,43.9,23.2,43.9,23.6,43.9z M23.6,44.6c-0.6,0.2-1.3,0.2-1.8,0.5c-0.6,0.2-0.8,0.9-0.5,1.4
		c0.2,0.6,0.7,0.7,1.3,0.6C23.5,46.8,23.9,46.1,23.6,44.6z"/>
	<path class="st0" d="M47,43.9c0-1.5-0.9-1.8-2.9-1.1c-0.1-0.2-0.2-0.4-0.3-0.7c1-0.6,2-0.8,3.1-0.4c1,0.4,1.2,1.2,1.2,2.2
		c0,1.2,0,2.5,0,3.7c-0.4,0.1-1,0.3-1-0.4c-0.6,0.2-1.1,0.5-1.7,0.6c-0.9,0.2-1.8-0.4-2-1.2c-0.3-0.9,0.1-1.8,1-2.2
		c0.4-0.2,0.8-0.3,1.3-0.4C46.1,43.9,46.6,43.9,47,43.9z M47,44.6c-0.6,0.1-1.2,0.2-1.8,0.4c-0.6,0.2-0.8,0.8-0.7,1.4
		c0.2,0.5,0.7,0.8,1.4,0.6C46.9,46.8,47.2,46.1,47,44.6z"/>
	<path class="st0" d="M70.8,43.8c0.1-1.3-0.8-1.7-2.9-1c-0.1-0.2-0.2-0.4-0.3-0.6c1-0.6,2.1-0.8,3.1-0.3c1,0.4,1.2,1.3,1.2,2.2
		c0,1.2,0,2.4,0,3.7c-0.5,0-1,0.3-1-0.5c-0.5,0.2-1,0.5-1.5,0.6c-1,0.2-1.9-0.3-2.1-1.1c-0.3-0.9,0.1-1.9,1-2.3
		C69.1,44.1,69.9,44,70.8,43.8z M70.9,44.6c-0.7,0.2-1.4,0.3-2,0.6c-0.3,0.2-0.5,0.7-0.5,1.1c0,0.5,0.4,0.7,0.8,0.8
		c0.8,0.1,1.5-0.4,1.6-1.2C70.9,45.5,70.9,45.2,70.9,44.6z"/>
	<path class="st0" d="M49.1,41.8c1.1-0.2,1.1-0.2,1.4,0.7c0.4,1.3,0.9,2.6,1.4,4c0.5-1.5,1-2.7,1.4-4c0.3-0.9,0.3-0.9,1.4-0.7
		c-0.6,1.6-1.2,3.1-1.8,4.7c-0.1,0.3-0.2,0.7-0.4,0.9c-0.1,0.2-0.4,0.3-0.6,0.3c-0.2,0-0.6-0.1-0.7-0.3
		C50.5,45.6,49.8,43.7,49.1,41.8z"/>
	<path class="st0" d="M29.2,46.7c0.6,0.1,1.1,0.3,1.6,0.3c0.3,0,0.8-0.3,1-0.6c0.2-0.5-0.1-0.8-0.5-1.1c-0.4-0.2-0.9-0.4-1.3-0.6
		c-0.6-0.3-0.9-0.8-0.8-1.6c0.1-0.7,0.5-1.2,1.2-1.4c0.5-0.1,1.2-0.1,1.7,0c0.7,0.1,0.7,0.2,0.4,1c-0.4-0.1-0.8-0.2-1.2-0.2
		c-0.5,0-0.9,0.1-1,0.6c-0.1,0.5,0.2,0.8,0.6,1c0.4,0.2,0.8,0.3,1.2,0.6c0.7,0.4,0.9,0.9,0.9,1.7c-0.1,0.7-0.5,1.2-1.2,1.4
		C30.9,48,29.9,48,29,47.5C29.1,47.2,29.2,47,29.2,46.7z"/>
	<path class="st0" d="M101.5,42.5c-0.5,0-1,0-1.5,0c0,1.3,0,2.5,0,3.7c0,0.6,0.3,0.7,1.3,0.7c0.2,0.7,0.2,0.8-0.5,0.9
		c-1.2,0.1-1.9-0.5-1.9-1.7c0-0.6,0-1.2,0-1.8c0-0.6,0-1.2,0-1.8c-0.3,0-0.6-0.1-0.9-0.1c0-0.2,0-0.5,0-0.7c0.3,0,0.5-0.1,0.8-0.1
		c0.2-0.6-0.3-1.8,1.1-1.6c0,0.5,0,1,0,1.6c0.6,0,1,0,1.5,0.1C101.5,42,101.5,42.2,101.5,42.5z"/>
	<path class="st0" d="M65.8,38.9c0,3,0,5.9,0,8.8c-0.4,0-0.7,0-1,0c0-2.9,0-5.9,0-8.8C65.1,38.9,65.4,38.9,65.8,38.9z"/>
	<path class="st0" d="M80.8,38.9c0.3,0,0.6,0,1,0c0,2.9,0,5.8,0,8.8c-0.3,0-0.6,0-1,0C80.8,44.8,80.8,41.9,80.8,38.9z"/>
	<path class="st0" d="M26.5,47.7c0-3,0-5.9,0-8.8c0.4,0,0.7,0,1,0c0,2.9,0,5.8,0,8.8C27.2,47.7,26.9,47.7,26.5,47.7z"/>
	<path class="st0" d="M62.9,47.7c-0.3,0-0.6,0-1,0c0-2,0-4,0-6c0.3,0,0.6,0,1,0C62.9,43.7,62.9,45.7,62.9,47.7z"/>
	<path class="st0" d="M63.1,40.2c-0.3,0.2-0.5,0.4-0.8,0.5c-0.4,0.1-0.7-0.3-0.6-0.7c0-0.4,0.3-0.7,0.7-0.6c0.3,0.1,0.5,0.4,0.8,0.5
		C63.1,40,63.1,40.1,63.1,40.2z"/>
</g>
<g>
	<path id="path8" class="st1" d="M71.4,75.3c-5.2,3.8-12.6,5.8-19.1,5.8c-9,0-17.1-3.3-23.3-8.9c-0.5-0.4-0.1-1,0.5-0.7
		c6.6,3.9,14.8,6.2,23.3,6.2c5.7,0,12-1.2,17.8-3.6C71.5,73.7,72.3,74.7,71.4,75.3"/>
	<path id="path10" class="st1" d="M73.6,72.9c-0.7-0.8-4.4-0.4-6-0.2C67,72.7,67,72.3,67.4,72c2.9-2.1,7.8-1.5,8.3-0.8
		c0.6,0.7-0.1,5.5-2.9,7.9c-0.4,0.4-0.8,0.2-0.6-0.3C72.8,77.2,74.2,73.7,73.6,72.9"/>
</g>
<path id="path12" class="st0" d="M67.7,57.3v-2c0-0.3,0.2-0.5,0.5-0.5h9c0.3,0,0.5,0.2,0.5,0.5V57c0,0.3-0.2,0.7-0.7,1.3L72.4,65
	c1.7,0,3.6,0.2,5.1,1.1c0.4,0.2,0.5,0.5,0.5,0.8V69c0,0.3-0.3,0.6-0.7,0.5c-2.8-1.5-6.5-1.6-9.5,0c-0.3,0.2-0.6-0.2-0.6-0.5v-2
	c0-0.3,0-0.9,0.3-1.4l5.4-7.8h-4.7C67.9,57.8,67.7,57.6,67.7,57.3"/>
<path id="path14" class="st0" d="M34.7,69.9H32c-0.3,0-0.5-0.2-0.5-0.5V55.3c0-0.3,0.2-0.5,0.5-0.5h2.6c0.3,0,0.5,0.2,0.5,0.5v1.8
	h0.1c0.7-1.8,1.9-2.6,3.6-2.6c1.7,0,2.8,0.8,3.6,2.6c0.7-1.8,2.2-2.6,3.8-2.6c1.2,0,2.4,0.5,3.2,1.5c0.9,1.2,0.7,2.9,0.7,4.4l0,8.9
	c0,0.3-0.2,0.5-0.5,0.5h-2.7c-0.3,0-0.5-0.2-0.5-0.5v-7.5c0-0.6,0.1-2.1-0.1-2.6c-0.2-0.9-0.8-1.2-1.6-1.2c-0.7,0-1.4,0.4-1.6,1.2
	s-0.3,1.9-0.3,2.7v7.5c0,0.3-0.2,0.5-0.5,0.5h-2.7c-0.3,0-0.5-0.2-0.5-0.5l0-7.5c0-1.6,0.3-3.9-1.7-3.9c-2,0-1.9,2.3-1.9,3.9v7.5
	C35.3,69.7,35,69.9,34.7,69.9"/>
<path id="path16" class="st0" d="M85.5,54.5c4.1,0,6.3,3.5,6.3,7.9c0,4.3-2.4,7.7-6.3,7.7c-4,0-6.2-3.5-6.2-7.9
	C79.3,57.9,81.5,54.5,85.5,54.5 M85.5,57.4c-2,0-2.2,2.8-2.2,4.5c0,1.7,0,5.4,2.1,5.4c2.1,0,2.2-3,2.2-4.8c0-1.2-0.1-2.6-0.4-3.7
	C87,57.8,86.4,57.4,85.5,57.4"/>
<path id="path18" class="st0" d="M97,69.9h-2.7c-0.3,0-0.5-0.2-0.5-0.5l0-14.1c0-0.3,0.3-0.5,0.5-0.5h2.5c0.2,0,0.4,0.2,0.5,0.4v2.2
	h0.1c0.8-1.9,1.8-2.8,3.7-2.8c1.2,0,2.4,0.4,3.2,1.7c0.7,1.1,0.7,3,0.7,4.4v8.9c0,0.2-0.3,0.4-0.5,0.4h-2.8c-0.3,0-0.5-0.2-0.5-0.4
	v-7.7c0-1.5,0.2-3.8-1.7-3.8c-0.7,0-1.3,0.4-1.6,1.1c-0.4,0.9-0.4,1.7-0.4,2.7v7.6C97.6,69.7,97.3,69.9,97,69.9"/>
<path id="path30" class="st0" d="M60.5,63.2v-0.6c-2,0-4.1,0.4-4.1,2.8c0,1.2,0.6,2,1.7,2c0.8,0,1.5-0.5,1.9-1.2
	C60.5,65.1,60.5,64.2,60.5,63.2 M63.2,69.9c-0.2,0.2-0.4,0.2-0.6,0.1c-0.9-0.8-1.1-1.1-1.6-1.8c-1.5,1.5-2.6,2-4.5,2
	c-2.3,0-4.1-1.4-4.1-4.3c0-2.2,1.2-3.7,2.9-4.5c1.5-0.7,3.6-0.8,5.2-1V60c0-0.7,0.1-1.4-0.3-2c-0.3-0.5-1-0.7-1.5-0.7
	c-1,0-2,0.5-2.2,1.6c0,0.2-0.2,0.5-0.5,0.5l-2.7-0.3c-0.2-0.1-0.5-0.2-0.4-0.6c0.6-3.2,3.5-4.2,6.1-4.2c1.3,0,3.1,0.4,4.1,1.4
	c1.3,1.2,1.2,2.9,1.2,4.7v4.3c0,1.3,0.5,1.8,1,2.5c0.2,0.2,0.2,0.5,0,0.7C64.8,68.5,63.8,69.4,63.2,69.9L63.2,69.9"/>
<path id="path30_00000170975640362600405180000005643947588863948678_" class="st0" d="M24.5,63.2v-0.6c-2,0-4.1,0.4-4.1,2.8
	c0,1.2,0.6,2,1.7,2c0.8,0,1.5-0.5,1.9-1.2C24.5,65.1,24.5,64.2,24.5,63.2 M27.2,69.9c-0.2,0.2-0.4,0.2-0.6,0.1
	c-0.9-0.8-1.1-1.1-1.6-1.8c-1.5,1.5-2.6,2-4.5,2c-2.3,0-4.1-1.4-4.1-4.3c0-2.2,1.2-3.7,2.9-4.5c1.5-0.7,3.6-0.8,5.2-1V60
	c0-0.7,0.1-1.4-0.3-2c-0.3-0.5-1-0.7-1.5-0.7c-1,0-2,0.5-2.2,1.6c0,0.2-0.2,0.5-0.5,0.5l-2.7-0.3c-0.2-0.1-0.5-0.2-0.4-0.6
	c0.6-3.2,3.5-4.2,6.1-4.2c1.3,0,3.1,0.4,4.1,1.4c1.3,1.2,1.2,2.9,1.2,4.7v4.3c0,1.3,0.5,1.8,1,2.5c0.2,0.2,0.2,0.5,0,0.7
	C28.8,68.5,27.8,69.4,27.2,69.9L27.2,69.9"/>
</svg>
