<?xml version="1.0" encoding="utf-8"?>
<!-- Generator: Adobe Illustrator 26.0.1, SVG Export Plug-In . SVG Version: 6.00 Build 0)  -->
<svg version="1.1" id="Layer_3" xmlns="http://www.w3.org/2000/svg" xmlns:xlink="http://www.w3.org/1999/xlink" x="0px" y="0px"
	 viewBox="0 0 128 128" style="enable-background:new 0 0 128 128;" xml:space="preserve">
<style type="text/css">
	.st0{fill:#000333;}
	.st1{fill:#FFFFFF;}
</style>
<path class="st0" d="M120.8,30.1c-8.7,0-17.5,0-26.7,0c0,31.5,0,62.6,0,94.1c-26.1,0-51.9,0-78.1,0c0-2.8,0-5.5,0-8.6
	c-3.1,0-5.8,0-9,0c0-1.4,0-2.5,0-3.6c0-31,0-61.9,0-92.8C7,9.6,12.8,3.9,22.7,3.9c24.5,0,48.9,0,73.4,0c6.2,0,10.5,2.6,13.8,7.5
	c0.7,1.1,1.8,2.1,2.9,2.7C119,17.2,121.8,22.7,120.8,30.1z M82.2,112.7c0-1.7,0-3.1,0-4.5c0-27.4,0-54.7,0-82.1
	c0-6.8-1.3-13.8,5.6-19.5c-1.9,0-2.9,0-3.8,0c-20.3,0-40.6,0-60.9,0c-8.9,0-13.5,4.5-13.5,13.3c0,29.7,0,59.3,0,89
	c0,1.2,0,2.4,0,3.8C33.9,112.7,57.8,112.7,82.2,112.7z M19,121.4c24.2,0,48.1,0,72.3,0c0-1.5,0-2.8,0-4c0-30.1,0-60.1,0-90.2
	c0-6.9,4.1-12.3,10.5-14c1.6-0.4,3.3-0.5,5.3-0.8c-2.2-3.4-5-5.5-8.8-5.8C90.5,5.9,84.9,11.1,84.9,19c0,30.9,0,61.8,0,92.7
	c0,1.2,0,2.4,0,3.8c-1.8,0-3,0-4.3,0c-19.1,0-38.3,0-57.4,0c-4.9,0-4.9,0-4.5,4.9C18.7,120.7,18.9,121,19,121.4z M94.1,27.2
	c8,0,16,0,23.9,0c0.2-6.7-4.8-11.6-11.5-11.8C99.3,15.3,94.1,20.1,94.1,27.2z"/>
<path class="st1" d="M82.2,112.7c-24.5,0-48.3,0-72.6,0c0-1.4,0-2.6,0-3.8c0-29.7,0-59.3,0-89c0-8.8,4.6-13.2,13.5-13.3
	c20.3,0,40.6,0,60.9,0c0.9,0,1.9,0,3.8,0c-6.9,5.6-5.6,12.7-5.6,19.5c0,27.4,0,54.7,0,82.1C82.2,109.6,82.2,111,82.2,112.7z
	 M72.5,18.3c0.8-2.2-0.1-2.7-2.1-2.7c-16.4,0-32.8,0-49.1,0c-2.1,0-2.7,0.7-1.9,2.7C37.1,18.3,54.7,18.3,72.5,18.3z M19.4,48.1
	c-0.2,0.3-0.4,0.5-0.6,0.8c0.7,0.6,1.5,1.8,2.2,1.8c16.6,0.1,33.2,0.1,49.8,0.1c2.1,0,2.1-0.1,1.5-2.7C54.7,48.1,37,48.1,19.4,48.1z
	 M72.6,59.5c0.3-1.5,0.5-2.7-1.7-2.7c-16.6,0-33.2,0-49.8,0c-2,0-2.4,0.8-1.8,2.7C37,59.5,54.8,59.5,72.6,59.5z M19.3,89.4
	c-0.5,1.7-0.3,2.7,1.8,2.7c16.6,0,33.2,0,49.8,0c2.1,0,2.3-0.9,1.7-2.7C54.8,89.4,37.1,89.4,19.3,89.4z M19.5,98.1
	c-1.1,2.8,0.4,2.8,2.2,2.8c16.3,0,32.5,0,48.8,0c0.7,0,1.4-0.1,2.1-0.2c0.2-0.3,0.3-0.6,0.5-0.9c-0.8-0.5-1.7-1.5-2.5-1.5
	c-5.1-0.2-10.2-0.1-15.3-0.1C43.4,98.1,31.5,98.1,19.5,98.1z M19.4,24.6c-1.1,2.6,0.5,2.6,2.3,2.6c16.5,0,33,0,49.4,0
	c0.5,0,1-0.1,1.4-0.1c0.9-2.8-0.8-2.6-2.5-2.6c-16.2,0-32.3,0-48.5,0C20.9,24.5,20.1,24.6,19.4,24.6z M72.6,68.3
	c0.5-1.6,0.5-2.7-1.7-2.6c-16.6,0.1-33.2,0-49.8,0c-2.1,0-2.3,0.9-1.7,2.6C37.1,68.3,54.8,68.3,72.6,68.3z M19.4,80.5
	c-0.7,2-0.1,2.7,1.8,2.7c16.5-0.1,33-0.1,49.5,0c2.2,0,2.6-0.8,1.8-2.7C54.8,80.5,37.2,80.5,19.4,80.5z M18.8,35
	c0.3,0.3,0.5,0.6,0.8,0.8c17.7,0,35.4,0,53.1,0c0.2-0.3,0.3-0.6,0.5-0.9c-0.8-0.5-1.6-1.5-2.3-1.5c-16.6-0.1-33.2-0.1-49.8,0
	C20.3,33.5,19.5,34.5,18.8,35z"/>
<path class="st1" d="M19,121.4c-0.1-0.4-0.3-0.7-0.3-1c-0.4-4.9-0.4-4.9,4.5-4.9c19.1,0,38.3,0,57.4,0c1.3,0,2.5,0,4.3,0
	c0-1.4,0-2.6,0-3.8c0-30.9,0-61.8,0-92.7c0-7.9,5.6-13.1,13.4-12.4c3.8,0.3,6.6,2.4,8.8,5.8c-2.1,0.3-3.7,0.4-5.3,0.8
	c-6.4,1.7-10.5,7.1-10.5,14c0,30.1,0,60.1,0,90.2c0,1.2,0,2.5,0,4C67.1,121.4,43.2,121.4,19,121.4z"/>
<path class="st1" d="M94.1,27.2c0-7,5.2-11.9,12.5-11.8c6.7,0.1,11.6,5.1,11.5,11.8C110.1,27.2,102.1,27.2,94.1,27.2z"/>
<path class="st0" d="M72.5,18.3c-17.8,0-35.5,0-53.1,0c-0.8-2-0.2-2.7,1.9-2.7c16.4,0,32.8,0,49.1,0C72.4,15.6,73.3,16,72.5,18.3z"
	/>
<path class="st0" d="M19.4,48.1c17.6,0,35.3,0,52.9,0c0.6,2.5,0.6,2.7-1.5,2.7c-16.6,0-33.2,0-49.8-0.1c-0.8,0-1.5-1.2-2.2-1.8
	C19,48.7,19.2,48.4,19.4,48.1z"/>
<path class="st0" d="M72.6,59.5c-17.8,0-35.6,0-53.3,0c-0.6-1.8-0.3-2.7,1.8-2.7c16.6,0,33.2,0,49.8,0
	C73.1,56.8,72.9,57.9,72.6,59.5z"/>
<path class="st0" d="M19.3,89.4c17.8,0,35.5,0,53.2,0c0.7,1.7,0.4,2.7-1.7,2.7c-16.6,0-33.2,0-49.8,0C19,92.1,18.8,91.1,19.3,89.4z"
	/>
<path class="st0" d="M19.5,98.1c12.1,0,24,0,35.9,0c5.1,0,10.2-0.1,15.3,0.1c0.8,0,1.7,1,2.5,1.5c-0.2,0.3-0.3,0.6-0.5,0.9
	c-0.7,0.1-1.4,0.2-2.1,0.2c-16.3,0-32.5,0-48.8,0C19.9,100.9,18.4,100.9,19.5,98.1z"/>
<path class="st0" d="M19.4,24.6c0.7-0.1,1.4-0.2,2.2-0.2c16.2,0,32.3,0,48.5,0c1.7,0,3.4-0.2,2.5,2.6c-0.4,0-0.9,0.1-1.4,0.1
	c-16.5,0-33,0-49.4,0C20,27.2,18.3,27.2,19.4,24.6z"/>
<path class="st0" d="M72.6,68.3c-17.7,0-35.5,0-53.2,0c-0.6-1.7-0.4-2.7,1.7-2.6c16.6,0,33.2,0.1,49.8,0
	C73,65.7,73.1,66.7,72.6,68.3z"/>
<path class="st0" d="M19.4,80.5c17.8,0,35.5,0,53.2,0c0.7,1.9,0.3,2.7-1.8,2.7c-16.5-0.1-33-0.1-49.5,0
	C19.3,83.2,18.7,82.5,19.4,80.5z"/>
<path class="st0" d="M18.8,35c0.8-0.5,1.5-1.5,2.3-1.5c16.6-0.1,33.2-0.1,49.8,0c0.8,0,1.6,1,2.3,1.5c-0.2,0.3-0.3,0.6-0.5,0.9
	c-17.7,0-35.4,0-53.1,0C19.3,35.5,19,35.2,18.8,35z"/>
</svg>
