<?xml version="1.0" encoding="utf-8"?>
<!-- Generator: Adobe Illustrator 26.0.1, SVG Export Plug-In . SVG Version: 6.00 Build 0)  -->
<svg version="1.1" id="Layer_1" xmlns="http://www.w3.org/2000/svg" xmlns:xlink="http://www.w3.org/1999/xlink" x="0px" y="0px"
	 viewBox="0 0 100 100" style="enable-background:new 0 0 100 100;" xml:space="preserve">
<style type="text/css">
	.st0{fill:#FFFFFF;}
	.st1{fill:#D32124;}
</style>
<g>
	<path class="st0" d="M56.28,84.12c-19.05,0.12-33.77-15.41-33.65-33.68c0.11-17.99,14.97-33.26,33.46-33.13
		c18.06-0.17,33.43,14.6,33.49,33.28C89.64,68.57,75.32,84,56.28,84.12z"/>
	<path class="st0" d="M7.41,55.18c0-0.61,0.03-1.7-0.01-2.79c-0.15-4.24-0.5-8.48,0.28-12.69c0.41-2.22,0.8-4.47,1.47-6.63
		c1.02-3.32,2.5-6.45,4.31-9.45c2.77-4.58,6.28-8.46,10.47-11.74c1.35-1.05,2.75-2.04,4.03-2.98C7.95,18.61,3.2,40.85,7.41,55.18z"
		/>
	<path class="st0" d="M27.35,16.8C16.53,25.01,11.37,35.87,12.1,49.47C13.08,36.66,18.12,25.75,27.35,16.8z"/>
	<path class="st0" d="M81.29,97.36c-2.52-3.04-4.99-6.03-7.46-9.01c-0.04,0.04-0.08,0.07-0.12,0.11c1,3.37,1.99,6.74,3,10.16
		C78.27,98.19,79.74,97.79,81.29,97.36z"/>
	<path class="st0" d="M77.95,12.76c0.06,0.03,0.12,0.06,0.19,0.09c1.83-2.96,3.67-5.92,5.52-8.9c-1.31-0.84-2.58-1.66-3.99-2.56
		C79.08,5.24,78.52,9,77.95,12.76z"/>
	<path class="st0" d="M75.51,86.87c2.73,2.33,5.33,4.57,7.97,6.77c0.13,0.11,0.57,0.04,0.7-0.1c0.91-0.99,1.78-2.02,2.75-3.15
		C83.09,89.22,79.37,88.07,75.51,86.87z"/>
	<path class="st0" d="M89.34,10.23c-0.68-1.45-1.32-2.83-1.98-4.26c-2.59,2.91-5.09,5.73-7.59,8.55c0.04,0.05,0.07,0.09,0.11,0.14
		C83.01,13.19,86.15,11.72,89.34,10.23z"/>
	<path class="st1" d="M70.58,15.57c-3.2-1.38-6.56-2.22-10.03-2.61c-1.29-0.14-2.59-0.22-3.87-0.32c-0.42-1.9-0.25-2.1,1.58-2.12
		c0.89-0.01,1.78-0.09,2.65-0.13c0.12-2.07-0.09-2.47-1.69-2.52c-0.95-0.03-1.13-0.36-1.19-1.22c-0.14-1.89-0.76-2.34-2.55-2.15
		c-0.61,0.07-1.22,0.08-1.83,0.13c-1.91,0.15-3.83,0.28-5.74,0.48c-1.42,0.15-1.73,0.55-1.72,1.94c0,0.38-0.01,0.76,0.04,1.13
		c0.07,0.48-0.15,0.6-0.57,0.66c-1.84,0.23-2.27,0.94-1.71,2.86c1.45-0.1,2.91-0.21,4.55-0.32c0,0.65,0.07,1.15-0.03,1.62
		c-0.05,0.26-0.35,0.58-0.6,0.66c-0.99,0.3-2.03,0.46-3.02,0.75c-3.91,1.16-7.51,2.97-10.81,5.34c-2.7,1.94-5.23,4.08-7.19,6.81
		c-1.34,1.87-2.81,3.66-3.96,5.64c-2.11,3.65-3.51,7.58-4.23,11.77c-0.57,3.26-0.9,6.51-0.45,9.78c0.36,2.63,0.79,5.27,1.46,7.83
		c1.17,4.49,3.34,8.54,6.17,12.19c3.33,4.3,7.37,7.8,12.18,10.41c3.67,1.98,7.52,3.36,11.63,4.06
		c21.16,3.83,32.82-10.03,35.58-12.93c1.98-2.49,4.22-5.93,5.91-10.34c4.96-10.99,3.83-28.02-6.18-38.88
		C84.93,26.05,79.76,18.32,70.58,15.57z M56.28,84.12c-19.05,0.12-33.77-15.41-33.65-33.68c0.11-17.99,14.97-33.26,33.46-33.13
		c18.06-0.17,33.43,14.6,33.49,33.28C89.64,68.57,75.32,84,56.28,84.12z"/>
	<path class="st1" d="M7.41,55.18C3.2,40.85,7.95,18.61,27.96,8.91c-1.28,0.94-2.68,1.92-4.03,2.98c-4.19,3.28-7.7,7.17-10.47,11.74
		c-1.81,2.99-3.29,6.13-4.31,9.45c-0.66,2.15-1.06,4.4-1.47,6.63c-0.78,4.21-0.43,8.45-0.28,12.69C7.44,53.47,7.41,54.56,7.41,55.18
		z"/>
	<path class="st1" d="M27.35,16.8c-9.23,8.95-14.28,19.85-15.25,32.66C11.37,35.87,16.53,25.01,27.35,16.8z"/>
	<path d="M81.29,97.36c-1.55,0.43-3.02,0.83-4.57,1.26c-1.01-3.42-2.01-6.79-3-10.16c0.04-0.04,0.08-0.07,0.12-0.11
		C76.31,91.33,78.78,94.32,81.29,97.36z"/>
	<path d="M77.95,12.76C78.52,9,79.08,5.24,79.67,1.38c1.4,0.9,2.68,1.72,3.99,2.56c-1.85,2.99-3.69,5.94-5.52,8.9
		C78.07,12.82,78.01,12.79,77.95,12.76z"/>
	<path d="M75.51,86.87c3.86,1.19,7.58,2.34,11.42,3.53c-0.98,1.13-1.84,2.16-2.75,3.15c-0.13,0.14-0.57,0.2-0.7,0.1
		C80.84,91.44,78.24,89.2,75.51,86.87z"/>
	<path d="M89.34,10.23c-3.19,1.49-6.33,2.96-9.47,4.44c-0.04-0.05-0.07-0.09-0.11-0.14c2.5-2.82,5.01-5.64,7.59-8.55
		C88.02,7.4,88.66,8.78,89.34,10.23z"/>
	<path d="M84.59,63.83c-0.71-0.34-1.41-0.67-2.12-1.01c0.05-0.1,0.09-0.2,0.14-0.3c0.7,0.34,1.41,0.68,2.11,1.02
		C84.68,63.64,84.63,63.73,84.59,63.83z"/>
	<path d="M25.41,47.37c0.73,0.08,1.46,0.15,2.2,0.23c-0.01,0.11-0.02,0.22-0.04,0.33c-0.73-0.09-1.46-0.19-2.19-0.28
		C25.39,47.56,25.4,47.46,25.41,47.37z"/>
	<path d="M35.98,29.92c-0.52-0.53-1.04-1.05-1.56-1.58c0.03-0.03,0.06-0.06,0.09-0.09c0.5,0.55,1,1.1,1.5,1.65
		C36,29.9,35.99,29.91,35.98,29.92z"/>
	<path d="M76.7,70.84c0.64,0.56,1.2,1.04,1.77,1.53c-0.05,0.05-0.1,0.09-0.14,0.14C77.81,71.98,77.29,71.45,76.7,70.84z"/>
	<path d="M39.9,74.06c-0.45,0.62-0.9,1.24-1.35,1.86c-0.09-0.06-0.18-0.13-0.26-0.19c0.45-0.63,0.91-1.25,1.36-1.88
		C39.73,73.92,39.82,73.99,39.9,74.06z"/>
	<path d="M68.69,76.54c0.31,0.68,0.61,1.36,0.92,2.04c-0.09,0.04-0.19,0.08-0.28,0.13c-0.32-0.68-0.64-1.37-0.95-2.05
		C68.48,76.62,68.59,76.58,68.69,76.54z"/>
	<path d="M48.97,78.28c-0.19,0.73-0.39,1.46-0.58,2.2c-0.1-0.03-0.2-0.05-0.3-0.08c0.2-0.73,0.4-1.46,0.6-2.19
		C48.77,78.23,48.87,78.26,48.97,78.28z"/>
	<path d="M64.75,20.37c-0.2,0.71-0.41,1.43-0.61,2.14c-0.1-0.02-0.19-0.05-0.29-0.07c0.19-0.71,0.38-1.43,0.56-2.14
		C64.53,20.32,64.64,20.34,64.75,20.37z"/>
	<path d="M74.5,25.05c-0.42,0.6-0.85,1.2-1.27,1.8c-0.09-0.06-0.18-0.13-0.28-0.19c0.42-0.6,0.84-1.2,1.26-1.8
		C74.31,24.93,74.41,24.99,74.5,25.05z"/>
	<path d="M82.11,32.75c-0.6,0.41-1.2,0.82-1.8,1.23c-0.06-0.07-0.11-0.15-0.17-0.22c0.59-0.43,1.18-0.86,1.77-1.29
		C81.98,32.56,82.04,32.66,82.11,32.75z"/>
	<path d="M26.25,58.15c0.71-0.18,1.43-0.36,2.14-0.55c0.03,0.11,0.05,0.21,0.08,0.32c-0.73,0.18-1.45,0.37-2.18,0.55
		C26.28,58.37,26.26,58.26,26.25,58.15z"/>
	<path d="M32.73,66.99c-0.61,0.43-1.22,0.85-1.82,1.28c-0.06-0.09-0.12-0.18-0.19-0.26c0.61-0.42,1.22-0.84,1.83-1.27
		C32.61,66.82,32.67,66.91,32.73,66.99z"/>
	<path d="M44.1,24.16c-0.3-0.67-0.6-1.34-0.9-2.01c0.1-0.04,0.2-0.09,0.29-0.13c0.3,0.67,0.6,1.33,0.89,2
		C44.29,24.06,44.2,24.11,44.1,24.16z"/>
	<path d="M28.29,36.95c0.67,0.32,1.34,0.64,2,0.96c-0.05,0.1-0.1,0.2-0.15,0.3c-0.66-0.32-1.33-0.64-1.99-0.96
		C28.2,37.15,28.25,37.05,28.29,36.95z"/>
	<path d="M86.53,42.61c-0.68,0.17-1.36,0.33-2.03,0.5c-0.02-0.1-0.05-0.19-0.07-0.29c0.68-0.17,1.36-0.35,2.03-0.52
		C86.48,42.4,86.51,42.5,86.53,42.61z"/>
	<path d="M85.23,52.84c0.74,0.07,1.49,0.14,2.23,0.21c-0.01,0.1-0.02,0.2-0.02,0.3c-0.73-0.07-1.47-0.14-2.2-0.21
		C85.23,53.05,85.23,52.95,85.23,52.84z"/>
	<path d="M59.01,79.27c0.03,0.69,0.06,1.38,0.09,2.06c-0.08,0.01-0.16,0.01-0.24,0.02c0-0.69,0-1.39,0-2.08
		C58.91,79.27,58.96,79.27,59.01,79.27z"/>
	<path d="M83.21,83.1"/>
</g>
</svg>
