<?xml version="1.0" encoding="UTF-8"?>
<svg id="Layer_1" data-name="Layer 1" xmlns="http://www.w3.org/2000/svg" viewBox="0 0 48 48">
  <defs>
    <style>
      .cls-1 {
        fill: #000;
        stroke-width: 0px;
      }
    </style>
  </defs>
  <path class="cls-1" d="M12,33.85c3.41.5,6.18,1.76,7.21,5.37,3.2-.56,6.39-.57,9.61,0,1.02-3.6,3.8-4.88,7.19-5.36-2.34-1.44-3.16-3.04-2.6-5.08.49-1.78,2.1-3.02,3.95-3.04,1.87-.02,3.5,1.17,4.04,2.94.61,2.04-.17,3.64-2.55,5.19.57.1,1.12.18,1.67.31,1.61.4,3.04,1.15,4.15,2.41.74.84,1.27,1.81,1.31,2.94.06,1.6.01,3.21.01,4.86h-9.28c.36.91.7,1.77,1.07,2.7-.38.07-.64.13-.89.17-1.19-4-4.11-6.08-7.89-7.01-3.68-.91-7.41-.87-11.05.31-2.04.66-3.81,1.8-5.18,3.48-.71.87-1.23,1.84-1.51,2.94-.02.09-.06.18-.11.29-.28-.06-.54-.11-.9-.19.36-.91.7-1.77,1.06-2.66H2.06c-.02-.12-.05-.19-.05-.27,0-1.4-.03-2.8,0-4.2.05-1.8.93-3.18,2.32-4.26,1.25-.97,2.69-1.5,4.25-1.71.13-.02.26-.03.38-.05.06,0,.12-.03.31-.07-1.16-.49-1.99-1.2-2.45-2.27-.48-1.09-.5-2.19-.04-3.28.73-1.75,2.46-2.74,4.4-2.53,1.72.19,3.2,1.6,3.53,3.37.37,1.94-.57,3.59-2.71,4.72ZM45.12,43.53c0-1.29.02-2.51,0-3.73-.02-1.01-.45-1.86-1.1-2.62-.7-.81-1.56-1.38-2.54-1.78-2.05-.83-4.18-.81-6.32-.5-1.68.24-3.16.96-4.32,2.25-.59.66-.98,1.42-1.1,2.32.1.04.16.08.24.1,2.28.74,4.27,1.91,5.86,3.74.11.13.36.2.54.2,1.99.01,3.99,0,5.98,0,.9,0,1.8,0,2.76,0ZM2.97,43.5s.03.01.05.01c2.93,0,5.85.02,8.78,0,.15,0,.33-.12.43-.24,1.53-1.76,3.44-2.92,5.64-3.64.15-.05.29-.11.43-.17-.11-.8-.42-1.47-.88-2.06-.78-1.01-1.82-1.66-3-2.11-1.73-.66-3.53-.63-5.33-.5-1.51.11-2.89.59-4.11,1.5-1.01.75-1.85,1.7-1.97,2.97-.13,1.38-.03,2.79-.03,4.22ZM34.15,29.9c0,1.81,1.49,3.29,3.29,3.27,1.79-.02,3.24-1.49,3.25-3.27,0-1.81-1.46-3.28-3.28-3.28-1.82,0-3.27,1.46-3.26,3.29ZM10.63,26.61c-1.82,0-3.28,1.46-3.28,3.28,0,1.8,1.5,3.3,3.29,3.28,1.79-.02,3.25-1.48,3.25-3.27,0-1.83-1.44-3.29-3.26-3.29Z"/>
  <path class="cls-1" d="M39.95,24.35c-1.01-1.12-1.94-2.16-2.87-3.2-1.02-1.14-2.05-2.27-3.06-3.42-.22-.25-.42-.28-.75-.24-2.05.3-4.11.57-6.17.81-.38.04-.56.16-.7.51-.69,1.66-1.41,3.31-2.12,4.97-.07.17-.16.34-.28.59-.14-.32-.25-.56-.36-.8-.69-1.61-1.38-3.22-2.06-4.84-.12-.29-.29-.39-.6-.42-2.1-.26-4.21-.54-6.31-.84-.31-.04-.5.02-.7.25-1.85,2.08-3.71,4.15-5.57,6.23-.11.13-.21.27-.32.41-.03-.02-.07-.05-.1-.07.18-1.34.36-2.67.54-4.01.18-1.34.34-2.68.55-4.02.06-.39-.03-.56-.39-.72-1.49-.68-2.87-1.52-3.98-2.76-1.81-2.02-1.81-4.36,0-6.38,1.22-1.36,2.77-2.24,4.41-2.96,2.87-1.26,5.89-1.92,8.98-2.31,3.35-.42,6.71-.49,10.07-.19,4.11.37,8.12,1.15,11.84,3.03,1.46.74,2.8,1.65,3.77,3.01,1.34,1.87,1.18,3.97-.43,5.78-1.11,1.25-2.5,2.11-4.01,2.79-.4.18-.47.4-.41.81.36,2.5.69,5,1.02,7.51.02.12,0,.25,0,.5ZM38.7,21.64c0-.23.01-.35,0-.45-.24-1.77-.46-3.54-.73-5.31-.08-.5.03-.73.51-.93,1.41-.58,2.72-1.32,3.83-2.39.67-.65,1.21-1.39,1.41-2.32.3-1.39-.31-2.48-1.22-3.44-.85-.9-1.88-1.56-2.98-2.11-3.35-1.67-6.94-2.42-10.62-2.81-3.52-.37-7.04-.34-10.55.09-3.03.37-5.99,1.01-8.81,2.23-1.59.69-3.1,1.52-4.25,2.85-.83.96-1.31,2.04-.96,3.33.26.98.88,1.74,1.63,2.4,1.1.97,2.37,1.66,3.71,2.22.33.14.42.29.36.64-.18,1.14-.32,2.29-.47,3.44-.11.81-.21,1.63-.34,2.59.26-.29.43-.46.59-.64,1.29-1.44,2.58-2.87,3.86-4.32.19-.22.38-.31.67-.24,2.39.56,4.81.87,7.26.97.33.01.48.15.59.44.31.78.65,1.54.98,2.31.26.61.53,1.22.83,1.92.11-.23.18-.37.24-.51.53-1.24,1.08-2.48,1.59-3.73.13-.32.32-.41.64-.44,1.98-.21,3.96-.45,5.94-.69.55-.07,1.17-.38,1.63-.22.47.16.78.77,1.16,1.19,1.14,1.27,2.28,2.53,3.5,3.89Z"/>
  <path class="cls-1" d="M24.02,38.54c-3.61.01-6.55-2.92-6.56-6.52,0-3.62,2.91-6.55,6.52-6.56,3.63,0,6.56,2.89,6.59,6.5.02,3.63-2.9,6.57-6.55,6.58ZM29.67,31.99c0-3.16-2.55-5.67-5.74-5.66-3.04,0-5.61,2.6-5.6,5.67.01,3.14,2.56,5.67,5.7,5.66,3.12-.01,5.64-2.55,5.64-5.66Z"/>
</svg>