<?xml version="1.0" encoding="UTF-8"?>
<svg id="Layer_1" data-name="Layer 1" xmlns="http://www.w3.org/2000/svg" viewBox="0 0 48 48">
  <defs>
    <style>
      .cls-1 {
        fill: #000;
        stroke-width: 0px;
      }
    </style>
  </defs>
  <path class="cls-1" d="M46,24.02c-.03,12.18-9.89,22-22.06,21.98-12.15-.03-21.96-9.91-21.94-22.08.03-12.14,9.91-21.94,22.1-21.92,12.09.02,21.93,9.92,21.9,22.02ZM24.01,2.99c-11.58-.02-21,9.37-21.03,20.98-.03,11.59,9.36,21.01,20.99,21.04,11.58.04,21.01-9.37,21.04-20.99.02-11.59-9.38-21.01-21-21.03Z"/>
  <path class="cls-1" d="M38.65,12.91c-.06.67-.46,1.28-1.06,1.51-.65.25-1.24.12-1.75-.35-.62-.58-1.21-1.21-1.88-1.74-6.4-5.02-15.34-4.3-20.86,1.66-.61.66-1.54.74-2.23.19-.64-.51-.79-1.48-.3-2.14.23-.32.53-.59.82-.86,2.95-2.76,6.37-4.64,10.4-5.18,6.1-.83,11.37.98,15.79,5.26.24.23.5.47.68.74.18.27.26.6.39.91Z"/>
  <path class="cls-1" d="M11.68,28.04c0,1.35,0,2.71,0,4.06,0,.5-.23.87-.62,1.02-.67.27-1.38-.2-1.39-.94-.01-.83,0-1.67,0-2.5,0-1.93,0-3.86,0-5.8,0-.44.18-.77.58-.96.39-.19.76-.12,1.08.15.27.22.35.53.35.87,0,1.36,0,2.73,0,4.09Z"/>
  <path class="cls-1" d="M37.2,28.04c0-1.38,0-2.77,0-4.15,0-.45.2-.78.61-.97.37-.17.83-.11,1.09.21.16.19.3.46.3.7.02,2.79.02,5.57.01,8.36,0,.58-.44,1.01-1,1.01-.57,0-1-.43-1.01-1.04,0-1.37,0-2.75,0-4.12h0Z"/>
  <path class="cls-1" d="M42.69,28.03c0,.92,0,1.83,0,2.75,0,.4-.07.47-.46.47-.57,0-1.14,0-1.71,0-.36,0-.44-.07-.44-.42,0-1.88,0-3.76,0-5.65,0-.27.12-.4.38-.4.61,0,1.22,0,1.83,0,.29,0,.4.13.4.41,0,.95,0,1.89,0,2.84Z"/>
  <path class="cls-1" d="M6.18,28.02c0-.93,0-1.85,0-2.78,0-.39.07-.46.46-.46.57,0,1.14,0,1.71,0,.35,0,.43.09.43.43,0,1.86,0,3.72,0,5.59,0,.37-.08.44-.45.44-.58,0-1.16,0-1.74,0-.34,0-.41-.08-.41-.42,0-.94,0-1.87,0-2.81Z"/>
  <path class="cls-1" d="M9.76,14.46c.21.2.38.37.57.52.18.14.39.25.62.38-1.68,2.55-2.59,5.35-2.71,8.42h-1.49c.12-3.39,1.12-6.49,3.01-9.32Z"/>
  <path class="cls-1" d="M37.96,15.41c.4-.31.78-.61,1.18-.92,1.87,2.79,2.86,5.88,2.99,9.29h-1.49c-.12-3.05-1.01-5.85-2.68-8.37Z"/>
  <g>
    <path class="cls-1" d="M21.94,24.3c1.41,0,1.47.05,1.86,1.27.99,3.15,1.97,6.3,2.95,9.45.24.76-.12,1.39-.8,1.41-.49.02-.81-.24-.96-.69-.16-.49-.32-.98-.46-1.47-.08-.28-.2-.4-.52-.39-1.3.02-2.59.02-3.89,0-.3,0-.45.08-.53.38-.12.46-.28.92-.42,1.37-.21.65-.69.94-1.24.76-.54-.18-.76-.67-.57-1.3,1.03-3.34,2.08-6.67,3.11-10.01.26-.84.93-.8,1.46-.77ZM22.13,26.58s-.08,0-.12,0c-.55,1.78-1.11,3.56-1.67,5.35h3.47c-.57-1.82-1.12-3.58-1.67-5.35Z"/>
    <path class="cls-1" d="M30.7,30.43c0,1.62,0,3.23,0,4.85,0,.73-.36,1.16-.95,1.16-.59,0-.94-.44-.94-1.17,0-3.27,0-6.53,0-9.8,0-.73.37-1.16.95-1.16.59,0,.94.43.94,1.17,0,1.65,0,3.3,0,4.95Z"/>
  </g>
</svg>