<?xml version="1.0" encoding="UTF-8"?>
<svg id="Layer_1" data-name="Layer 1" xmlns="http://www.w3.org/2000/svg" viewBox="0 0 48 48">
  <defs>
    <style>
      .cls-1 {
        fill: #000;
      }

      .cls-1, .cls-2 {
        stroke-width: 0px;
      }

      .cls-2 {
        fill: #fff;
      }
    </style>
  </defs>
  <path class="cls-1" d="M7.54,20.14c-.16,0-.28-.02-.41-.02-1.11,0-2.22,0-3.32,0-1.16,0-1.81-.66-1.82-1.82,0-3.19,0-6.38,0-9.58,0-1.18.65-1.83,1.84-1.83,4.51,0,9.02,0,13.53,0,.62,0,1.12.23,1.47.74.12.19.23.18.42.13,7.92-2.3,16.15,1.39,19.8,8.88.13.27.27.38.58.37,1.5-.02,3-.01,4.5,0,1.24,0,1.87.64,1.87,1.88,0,3.15,0,6.31,0,9.46,0,1.22-.64,1.86-1.85,1.86-1.39,0-2.79,0-4.18,0-.25,0-.36.08-.46.31-2.27,5.36-6.18,8.9-11.88,10.15-6.09,1.34-11.42-.29-15.8-4.77-2.66-2.73-4.16-6.04-4.62-9.81-.22-1.84-.14-3.67.25-5.48.03-.14.05-.28.09-.45ZM13.24,21.71c-.12-.6-.24-1.16-.32-1.72-.08-.54.07-.68.61-.69,1.25,0,2.5,0,3.75,0,.71,0,1.04-.32,1.04-1.02,0-3.19,0-6.38,0-9.57,0-.68-.33-1.01-1.01-1.01-4.49,0-8.99,0-13.48,0-.71,0-1.02.32-1.02,1.03,0,3.15,0,6.3,0,9.45,0,.84.28,1.11,1.13,1.11,2.08,0,4.17,0,6.25,0,.31,0,.5.09.61.41.4,1.16,1.28,1.74,2.44,2ZM34.77,31.77c1-.07,2.01-.84,2.38-1.89.14-.39.35-.51.75-.51,2.08.02,4.17,0,6.25,0,.74,0,1.04-.3,1.04-1.04,0-3.17,0-6.33,0-9.5,0-.72-.3-1.03-1.01-1.03-4.51,0-9.01,0-13.52,0-.65,0-1,.33-1,.98,0,3.2,0,6.41,0,9.61,0,.65.35.97,1,.98,1.28,0,2.55,0,3.83,0,.49,0,.64.15.58.64-.08.59-.2,1.17-.3,1.74ZM23.5,23.65v-5.75c-1.47-.23-2.9-.46-4.36-.69,0,.33,0,.71,0,1.08,0,1.15-.67,1.82-1.82,1.82-1.04,0-2.08,0-3.13,0-.14,0-.27.01-.41.02,0,.6.18,1.09.62,1.77.24.36.11.7-.29.69-1.59-.02-2.95-.54-3.78-1.98-.25-.43-.49-.53-.93-.51-1.02.03-1.05,0-1.22,1.01-.14.83-.22,1.67-.32,2.53h15.64ZM14.77,24.5c.04,2.69.43,5.27,1.23,7.71,1.24-.45,2.42-.97,3.66-1.29,1.25-.33,2.54-.46,3.82-.67v-5.75h-8.71ZM7.93,24.5c-.2,3.23,2.16,8.99,4.27,10.55,1.04-.8,2.06-1.6,3.1-2.4-.89-2.61-1.3-5.34-1.35-8.15h-6.02ZM24.35,40.24c.11,0,.19.01.26,0,.19-.03.38-.07.57-.11,1.22-.31,2.24-.97,3.13-1.84,1.49-1.46,2.47-3.23,3.22-5.18-2.25-1.22-4.62-1.87-7.18-1.93v9.06ZM16.26,33.14c.5.98.94,1.94,1.47,2.84.9,1.52,2.04,2.82,3.65,3.66.66.34,1.35.58,2.12.61v-9.07c-2.55.06-4.92.71-7.24,1.96ZM31.5,15.08c-.3-1.16-1.51-3.31-2.49-4.46-.88-1.02-1.88-1.88-3.16-2.35-.47-.17-.98-.27-1.49-.4v9.12c2.56-.07,4.93-.71,7.14-1.9ZM23.5,7.9c-1.46.05-2.85.26-4.21.71-.08.03-.15.2-.15.3,0,2.37,0,4.74,0,7.11,0,.11.14.28.24.31.64.17,1.28.35,1.94.45.71.12,1.43.16,2.18.24V7.9ZM31.86,32.21c.17-.61.35-1.28.55-2.01-.63,0-1.18-.02-1.74,0-1.16.06-1.86-.85-1.84-1.86.03-1.14,0-2.29,0-3.44,0-.14-.01-.27-.02-.4h-4.48v5.73c1.3.22,2.58.35,3.82.67,1.24.32,2.42.84,3.7,1.3ZM28.84,23.66c0-1.62,0-3.19,0-4.77,0-1.25.66-1.89,1.91-1.9.45,0,.9,0,1.4,0-.13-.42-.23-.77-.31-1.04-1.26.45-2.45.97-3.68,1.29-1.24.32-2.52.45-3.81.66v5.74h4.48ZM12.75,35.68c2.12,2.02,4.47,3.38,7.2,4.06-2.07-1.63-3.34-3.82-4.36-6.29-.96.76-1.88,1.47-2.84,2.23ZM35.12,35.67c-.97-.75-1.89-1.47-2.82-2.19q-1.9,3.76-4.42,6.3c2.78-.74,5.13-2.08,7.24-4.11ZM35.09,12.52c-1.4-1.67-5.74-4.1-7.15-4.04,2.08,1.6,3.34,3.76,4.35,6.22.95-.74,1.87-1.45,2.81-2.18ZM35.7,13.1c-1.06.82-2.09,1.61-3.13,2.41.11.37.25.76.34,1.16.06.28.2.34.46.33,1.51-.01,3.02,0,4.53,0,.12,0,.24-.02.41-.03-.71-1.46-1.58-2.74-2.62-3.87ZM34.24,30.2c-.29,0-.54-.02-.78.01-.09.01-.22.12-.25.21-.22.76-.42,1.52-.61,2.25,1.03.8,2.06,1.59,3.11,2.4,1.28-1.4,2.31-3.01,3.07-4.89-.36.1-.73-.19-.93.21-.79,1.58-2.14,2.24-3.83,2.32-.16,0-.41-.09-.48-.21-.07-.13,0-.38.09-.52.34-.53.53-1.09.6-1.78Z"/>
  <path class="cls-2" d="M13.24,21.71c-1.15-.26-2.04-.84-2.44-2-.11-.32-.3-.41-.61-.41-2.08,0-4.17,0-6.25,0-.85,0-1.13-.27-1.13-1.11,0-3.15,0-6.3,0-9.45,0-.71.31-1.03,1.02-1.03,4.49,0,8.99,0,13.48,0,.68,0,1.01.32,1.01,1.01,0,3.19,0,6.38,0,9.57,0,.7-.33,1.02-1.04,1.02-1.25,0-2.5,0-3.75,0-.54,0-.69.15-.61.69.08.56.21,1.12.32,1.72ZM13.69,17.4c-.05-.15-.09-.27-.13-.39-.82-2.36-1.64-4.71-2.45-7.08-.1-.3-.26-.35-.54-.35-.29,0-.46.05-.57.37-.62,1.84-1.26,3.66-1.89,5.49-.23.66-.45,1.31-.69,1.99h.92c.28-.82.56-1.63.84-2.44.06-.19.14-.3.38-.29.66.02,1.33.02,1.99,0,.23,0,.32.08.39.28.19.59.4,1.18.61,1.77q.25.73,1.02.68s.05-.01.12-.03Z"/>
  <path class="cls-2" d="M34.77,31.77c.1-.58.22-1.16.3-1.74.06-.49-.08-.64-.58-.64-1.28,0-2.55,0-3.83,0-.65,0-1-.32-1-.98,0-3.2,0-6.41,0-9.61,0-.65.35-.98,1-.98,4.51,0,9.01,0,13.52,0,.71,0,1.01.31,1.01,1.03,0,3.17,0,6.33,0,9.5,0,.74-.3,1.04-1.04,1.04-2.08,0-4.17,0-6.25,0-.4,0-.61.12-.75.51-.36,1.04-1.38,1.82-2.38,1.89ZM33.31,27.84c1.19,0,2.3-.21,3.27-.84.49-.32.81-.33,1.32-.02,1.05.65,2.23.88,3.46.86v-.86c-1.8-.2-2.81-.5-3.38-1.03,1.25-1.36,1.92-3,2.3-4.79.02-.09.18-.2.28-.21.32-.03.64,0,.95,0v-.93h-3.53c-.02-.24-.03-.43-.04-.61h-.85c-.01.21-.03.4-.04.63h-3.54v.92h5.89c-.36,1.7-.97,3.22-2.19,4.46-.81-.69-1.35-1.53-1.77-2.5-.28.1-.54.19-.83.3.42,1.08,1.05,1.97,1.86,2.79-.96.68-2.03.9-3.15.96v.89Z"/>
  <path class="cls-2" d="M23.5,23.65H7.86c.11-.87.18-1.7.32-2.53.17-1,.2-.98,1.22-1.01.44-.01.69.09.93.51.83,1.44,2.19,1.96,3.78,1.98.4,0,.52-.33.29-.69-.44-.69-.62-1.17-.62-1.77.13,0,.27-.02.41-.02,1.04,0,2.08,0,3.13,0,1.15,0,1.81-.67,1.82-1.82,0-.38,0-.75,0-1.08,1.46.23,2.89.46,4.36.69v5.75Z"/>
  <path class="cls-2" d="M14.77,24.5h8.71v5.75c-1.28.22-2.57.35-3.82.67-1.24.32-2.42.85-3.66,1.29-.81-2.44-1.2-5.03-1.23-7.71Z"/>
  <path class="cls-2" d="M7.93,24.5h6.02c.05,2.81.47,5.53,1.35,8.15-1.04.81-2.07,1.6-3.1,2.4-2.11-1.56-4.47-7.32-4.27-10.55Z"/>
  <path class="cls-2" d="M24.35,40.24v-9.06c2.56.06,4.93.71,7.18,1.93-.75,1.95-1.73,3.73-3.22,5.18-.89.87-1.91,1.53-3.13,1.84-.19.05-.38.08-.57.11-.07.01-.15,0-.26,0Z"/>
  <path class="cls-2" d="M16.26,33.14c2.32-1.26,4.68-1.9,7.24-1.96v9.07c-.77-.03-1.46-.27-2.12-.61-1.6-.83-2.74-2.14-3.65-3.66-.53-.9-.97-1.86-1.47-2.84Z"/>
  <path class="cls-2" d="M31.5,15.08c-2.22,1.19-4.58,1.83-7.14,1.9V7.86c.51.14,1.02.23,1.49.4,1.28.47,2.28,1.34,3.16,2.35.99,1.14,2.19,3.3,2.49,4.46Z"/>
  <path class="cls-2" d="M23.5,7.9v9.12c-.75-.08-1.47-.12-2.18-.24-.65-.11-1.3-.28-1.94-.45-.1-.03-.24-.2-.24-.31-.01-2.37-.01-4.74,0-7.11,0-.1.08-.27.15-.3,1.35-.45,2.75-.66,4.21-.71Z"/>
  <path class="cls-2" d="M31.86,32.21c-1.27-.46-2.46-.98-3.7-1.3-1.24-.32-2.52-.45-3.82-.67v-5.73h4.48c0,.13.02.26.02.4,0,1.15.02,2.29,0,3.44-.03,1,.68,1.92,1.84,1.86.55-.03,1.11,0,1.74,0-.2.73-.38,1.4-.55,2.01Z"/>
  <path class="cls-2" d="M28.84,23.66h-4.48v-5.74c1.28-.22,2.57-.34,3.81-.66,1.24-.32,2.42-.84,3.68-1.29.08.26.18.61.31,1.04-.5,0-.95,0-1.4,0-1.25,0-1.91.65-1.91,1.9,0,1.57,0,3.15,0,4.77Z"/>
  <path class="cls-2" d="M12.75,35.68c.96-.75,1.88-1.47,2.84-2.23,1.02,2.47,2.29,4.65,4.36,6.29-2.73-.68-5.08-2.04-7.2-4.06Z"/>
  <path class="cls-2" d="M35.12,35.67c-2.1,2.02-4.46,3.36-7.24,4.11q2.52-2.54,4.42-6.3c.93.73,1.85,1.44,2.82,2.19Z"/>
  <path class="cls-2" d="M35.09,12.52c-.94.73-1.85,1.44-2.81,2.18-1.01-2.46-2.27-4.62-4.35-6.22,1.41-.07,5.75,2.37,7.15,4.04Z"/>
  <path class="cls-2" d="M35.7,13.1c1.04,1.13,1.91,2.41,2.62,3.87-.17.01-.29.03-.41.03-1.51,0-3.02,0-4.53,0-.26,0-.4-.05-.46-.33-.09-.4-.23-.8-.34-1.16,1.04-.8,2.06-1.59,3.13-2.41Z"/>
  <path class="cls-2" d="M34.24,30.2c-.07.69-.26,1.25-.6,1.78-.09.14-.16.39-.09.52.07.12.31.22.48.21,1.69-.08,3.03-.74,3.83-2.32.2-.39.57-.11.93-.21-.76,1.89-1.79,3.49-3.07,4.89-1.05-.81-2.08-1.6-3.11-2.4.2-.72.39-1.49.61-2.25.03-.09.16-.2.25-.21.24-.03.49-.01.78-.01Z"/>
  <path class="cls-1" d="M13.69,17.4c-.07.02-.09.03-.12.03q-.77.04-1.02-.68c-.2-.59-.41-1.18-.61-1.77-.07-.2-.16-.29-.39-.28-.66.02-1.33.02-1.99,0-.24,0-.32.1-.38.29-.27.81-.56,1.62-.84,2.44h-.92c.23-.68.46-1.33.69-1.99.63-1.83,1.28-3.66,1.89-5.49.11-.31.28-.37.57-.37.28,0,.43.05.54.35.8,2.36,1.63,4.72,2.45,7.08.04.12.08.24.13.39ZM10.57,11.05c-.35.98-.65,1.86-.97,2.76h1.92c-.31-.9-.61-1.77-.95-2.76Z"/>
  <path class="cls-1" d="M33.31,27.84v-.89c1.13-.06,2.2-.27,3.15-.96-.81-.81-1.44-1.7-1.86-2.79.29-.1.55-.2.83-.3.42.96.97,1.81,1.77,2.5,1.22-1.24,1.84-2.75,2.19-4.46h-5.89v-.92h3.54c.01-.23.03-.42.04-.63h.85c.01.19.02.38.04.61h3.53v.93c-.31,0-.63-.02-.95,0-.1,0-.27.12-.28.21-.38,1.79-1.05,3.43-2.3,4.79.57.53,1.58.83,3.38,1.03v.86c-1.23.02-2.42-.21-3.46-.86-.5-.31-.82-.3-1.32.02-.97.63-2.08.85-3.27.84Z"/>
  <path class="cls-2" d="M10.57,11.05c.34.98.64,1.86.95,2.76h-1.92c.32-.9.62-1.77.97-2.76Z"/>
</svg>