<?xml version="1.0" encoding="UTF-8"?>
<svg id="Layer_1" data-name="Layer 1" xmlns="http://www.w3.org/2000/svg" viewBox="0 0 48 48">
  <defs>
    <style>
      .cls-1 {
        fill: #231f20;
        stroke-width: 0px;
      }
    </style>
  </defs>
  <g>
    <path class="cls-1" d="M22.14,45.81c.11-.46.29-.9.43-1.36.07-.23.14-.45.22-.67.04-.12.02-.19-.09-.26-.52-.37-1.04-.75-1.56-1.13-.04-.03-.08-.04-.1-.1.05-.06.11-.03.17-.03.62,0,1.24,0,1.85,0,.16,0,.23-.05.28-.21.18-.59.38-1.18.57-1.77.02-.05.04-.11.06-.17.09.05.08.13.11.2.19.59.38,1.18.57,1.77.04.13.11.18.24.18.62,0,1.24,0,1.85,0,.06,0,.13-.01.19.02-.02.07-.09.1-.14.14-.49.36-.99.72-1.49,1.08-.12.09-.15.17-.1.31.2.6.39,1.2.59,1.8.02.06.03.13.05.2h-.03c-.44-.36-.91-.67-1.36-1.01-.15-.11-.28-.29-.45-.3-.18,0-.31.19-.47.3-.46.33-.93.65-1.36,1.01h-.03Z"/>
    <path class="cls-1" d="M46,23.33c-.27.14-.5.34-.75.52-.32.23-.64.47-.96.69-.11.08-.14.15-.09.28.2.59.39,1.17.58,1.76.02.06.06.11.03.18-.08,0-.13-.05-.18-.09-.5-.36-.99-.71-1.49-1.08-.12-.09-.2-.09-.31,0-.51.38-1.03.75-1.54,1.12-.04.03-.07.06-.12.06-.05-.06,0-.12.02-.17.19-.58.37-1.17.57-1.75.06-.18.02-.26-.13-.36-.51-.36-1.01-.73-1.52-1.1-.03-.02-.07-.04-.08-.09.05-.05.12-.02.18-.02.61,0,1.23,0,1.84,0,.17,0,.24-.06.29-.21.18-.57.37-1.15.55-1.72.02-.07.02-.15.09-.2.07.04.07.12.09.18.19.59.38,1.18.57,1.77.04.13.1.18.24.18.7,0,1.41,0,2.11,0v.03Z"/>
    <path class="cls-1" d="M2,23.3c.69,0,1.39,0,2.08,0,.16,0,.23-.05.28-.2.18-.58.38-1.17.57-1.75.02-.06.04-.12.07-.18.09.05.08.12.1.18.19.57.38,1.13.55,1.7.06.2.15.25.35.25.6-.01,1.19,0,1.79,0,.06,0,.12-.02.18.02,0,.06-.06.07-.09.1-.52.38-1.04.76-1.56,1.13-.11.08-.13.14-.09.27.2.61.4,1.22.59,1.83.01.05.05.09.01.17-.25-.18-.49-.35-.74-.53-.31-.23-.63-.46-.94-.69-.1-.07-.17-.07-.27,0-.51.38-1.03.75-1.54,1.12-.05.03-.08.08-.15.08-.04-.07.01-.13.03-.19.19-.59.38-1.19.58-1.78.04-.13.02-.2-.09-.27-.52-.37-1.04-.75-1.56-1.13-.05-.03-.1-.05-.15-.08,0-.01,0-.02,0-.03Z"/>
    <path class="cls-1" d="M25.82,7.82c-.36-.26-.7-.5-1.04-.75-.21-.15-.43-.3-.64-.47-.1-.08-.17-.07-.27,0-.52.38-1.04.75-1.56,1.13-.04.03-.07.07-.13.07-.03-.06,0-.12.02-.17.19-.59.38-1.19.58-1.78.05-.15.02-.23-.1-.31-.51-.36-1.01-.73-1.52-1.1-.04-.03-.09-.05-.12-.11.05-.06.12-.04.19-.04.61,0,1.21,0,1.82,0,.18,0,.26-.06.31-.23.18-.57.37-1.14.56-1.72.02-.05.02-.11.07-.16.07.03.07.1.09.15.19.58.39,1.16.57,1.75.05.16.13.2.28.2.61,0,1.21,0,1.82,0,.07,0,.14-.02.2.03,0,.07-.06.08-.1.11-.51.37-1.02.75-1.53,1.11-.12.09-.15.17-.1.31.2.59.39,1.19.58,1.78.02.05.05.1.02.19Z"/>
    <path class="cls-1" d="M36.48,39.72c-.12.16-.25.22-.36.3-.44.32-.88.64-1.32.95-.1.07-.12.14-.08.26.2.6.39,1.2.58,1.8.02.06.04.12.05.18-.07.04-.09-.02-.13-.04-.53-.38-1.05-.75-1.57-1.14-.11-.08-.18-.09-.3,0-.49.36-.98.72-1.47,1.07-.06.05-.13.09-.2.14-.04-.07,0-.12.02-.17.19-.6.38-1.2.58-1.8.05-.15.01-.24-.11-.33-.52-.36-1.02-.73-1.53-1.1-.03-.02-.06-.05-.09-.08.05-.07.12-.04.18-.04.63,0,1.26,0,1.89,0,.14,0,.2-.04.24-.18.19-.61.39-1.22.59-1.83.01-.04.01-.09.09-.12.07.2.13.4.2.6.15.45.3.9.44,1.36.04.13.1.18.24.18.62,0,1.24,0,1.85,0,.06,0,.12,0,.23,0Z"/>
    <path class="cls-1" d="M11.55,39.75c.07-.04.14-.02.2-.02.61,0,1.21,0,1.82,0,.16,0,.23-.04.28-.2.18-.59.38-1.18.57-1.77.02-.05.04-.11.06-.17.08.03.08.1.09.16.2.6.4,1.21.59,1.82.04.12.1.16.22.16.62,0,1.25,0,1.87,0,.06,0,.12,0,.21,0-.04.1-.12.13-.18.18-.48.35-.95.7-1.43,1.04-.15.11-.19.21-.13.38.2.58.38,1.16.57,1.75.02.05.03.1.04.15-.06.04-.09-.01-.12-.04-.52-.38-1.04-.75-1.55-1.13-.12-.09-.2-.1-.33,0-.49.37-1,.73-1.5,1.09-.05.04-.1.07-.16.11-.03-.08,0-.13.03-.19.19-.57.37-1.14.56-1.72q.08-.25-.13-.4c-.49-.36-.98-.71-1.48-1.07-.04-.03-.09-.05-.11-.12Z"/>
    <path class="cls-1" d="M9.38,36.31c-.1-.07-.21-.14-.31-.22-.46-.33-.92-.66-1.37-1-.11-.09-.19-.08-.3,0-.51.38-1.03.75-1.54,1.12-.04.03-.07.07-.13.08-.05-.04,0-.07,0-.11.2-.63.4-1.27.61-1.9.04-.12.01-.18-.09-.26-.53-.38-1.05-.76-1.57-1.14-.03-.02-.06-.05-.1-.08.07-.05.13-.03.19-.03.61,0,1.21,0,1.82,0,.18,0,.26-.05.32-.22.18-.58.37-1.16.56-1.73.02-.06.03-.12.08-.17.07.04.07.11.09.17.2.59.39,1.19.58,1.78.04.13.11.18.25.18.62,0,1.24,0,1.86,0,.06,0,.12,0,.19,0,.02.08-.04.09-.07.11-.52.38-1.03.76-1.56,1.13-.12.08-.14.16-.1.3.2.6.39,1.21.59,1.81.02.05.06.1.02.18Z"/>
    <path class="cls-1" d="M37.5,32.78c.14,0,.28,0,.43,0,.54,0,1.08,0,1.61,0,.14,0,.2-.04.25-.18.19-.6.38-1.2.58-1.8.02-.05.02-.12.07-.15.07.04.07.11.09.18.19.58.38,1.15.56,1.73.05.17.13.22.31.22.61,0,1.21,0,1.82,0h.19c0,.08-.05.09-.08.11-.52.38-1.04.76-1.57,1.14-.11.08-.13.14-.09.27.2.6.4,1.21.59,1.81.02.06.06.11.03.2-.19-.13-.37-.26-.54-.39-.38-.27-.76-.54-1.12-.82-.13-.1-.22-.09-.34,0-.49.36-.98.72-1.47,1.07-.06.04-.11.08-.18.12-.03-.08,0-.13.02-.18.19-.6.38-1.2.59-1.8.05-.15.02-.22-.11-.31-.52-.37-1.04-.75-1.56-1.13-.03-.02-.05-.04-.08-.06v-.04Z"/>
    <path class="cls-1" d="M31.67,10.34c-.03-.07.01-.12.03-.18.19-.59.38-1.18.58-1.76.05-.15.01-.23-.11-.31-.5-.36-1-.72-1.51-1.09-.05-.03-.09-.07-.14-.11.03-.06.08-.03.12-.03.61,0,1.23,0,1.84,0q.28,0,.37-.26c.19-.59.38-1.18.57-1.76.01-.04,0-.09.06-.12.05.04.05.1.07.15.2.6.4,1.2.58,1.8.05.15.13.2.28.2.62,0,1.24,0,1.86,0,.05,0,.11,0,.16,0,0,.01,0,.03.01.04-.1.07-.2.15-.3.22-.45.33-.91.66-1.36.99-.12.08-.13.16-.09.29.2.59.39,1.18.58,1.76.02.06.06.11.03.18-.09,0-.14-.06-.19-.1-.5-.36-.99-.72-1.49-1.08-.11-.08-.19-.08-.3,0-.51.38-1.02.74-1.53,1.11-.04.03-.08.08-.15.07Z"/>
    <path class="cls-1" d="M9.37,17.31c-.25-.18-.5-.36-.74-.54-.31-.22-.63-.44-.93-.68-.11-.09-.19-.07-.3,0-.51.37-1.02.74-1.53,1.11-.04.03-.08.08-.15.07-.02-.07.02-.12.03-.18.19-.59.38-1.18.58-1.76.05-.15.02-.22-.1-.31-.5-.35-.99-.72-1.49-1.08-.04-.03-.1-.05-.12-.12.06-.06.13-.03.19-.03.61,0,1.23,0,1.84,0,.14,0,.2-.05.24-.18.19-.59.38-1.18.57-1.76.02-.06.02-.14.11-.19.1.31.2.6.3.9.12.36.24.72.35,1.08.04.12.11.16.23.16.62,0,1.25,0,1.87,0,.06,0,.13-.01.19.02,0,.06-.05.07-.08.1-.52.38-1.04.76-1.57,1.14-.1.07-.12.14-.08.26.21.62.4,1.24.6,1.86.01.04.04.07,0,.14Z"/>
    <path class="cls-1" d="M38.59,17.3c.09-.29.18-.57.27-.84.12-.38.24-.76.37-1.14.04-.12.02-.19-.09-.27-.53-.37-1.05-.76-1.57-1.14-.03-.02-.05-.04-.09-.07.06-.05.13-.03.18-.03.61,0,1.23,0,1.84,0,.17,0,.25-.05.29-.21.18-.57.37-1.15.55-1.72.02-.07.03-.15.09-.2.07.04.07.12.09.18.19.58.38,1.16.56,1.75.04.14.11.2.27.2.61,0,1.23,0,1.84,0,.06,0,.13-.02.18.03,0,.07-.07.09-.11.12-.49.36-.98.72-1.48,1.07-.15.1-.18.19-.12.37.2.57.38,1.15.57,1.73.02.05.05.1.03.17-.09,0-.14-.06-.2-.11-.49-.35-.98-.7-1.46-1.06-.12-.09-.21-.09-.33,0-.48.36-.96.7-1.44,1.05-.07.05-.13.11-.24.14Z"/>
    <path class="cls-1" d="M16.32,10.37c-.35-.26-.69-.5-1.03-.74-.22-.16-.45-.32-.67-.49-.09-.07-.16-.07-.26,0-.5.37-1.01.74-1.51,1.1-.05.04-.1.1-.18.09-.02-.07.01-.12.03-.18.19-.59.38-1.18.58-1.76.05-.14.02-.22-.1-.3-.5-.35-.99-.72-1.49-1.08-.05-.04-.12-.07-.15-.13.04-.05.1-.02.15-.02.64,0,1.27,0,1.91,0,.14,0,.2-.05.25-.18.19-.61.39-1.21.59-1.81.02-.05.04-.1.06-.16.07.02.06.08.07.12.2.61.4,1.22.59,1.83.05.15.12.21.28.21.67,0,1.35,0,2.03,0,0,.07-.06.08-.1.11-.52.38-1.04.76-1.57,1.14-.11.08-.13.15-.09.27.2.59.39,1.19.58,1.78.02.06.06.11.03.21Z"/>
  </g>
  <g>
    <path class="cls-1" d="M34.5,33.35c-.21.1-.42.28-.63.28-2.38.02-4.76.01-7.14.01-.49,0-.6-.11-.6-.61,0-.74,0-1.48,0-2.21,0-.35.16-.5.5-.49.65,0,1.31,0,1.99,0v-10.8c-.54.39-1.02.74-1.5,1.09-.46.33-.61.3-.88-.22-.3-.58-.59-1.17-.9-1.75-.17-.32-.11-.55.19-.77,1.5-1.08,2.99-2.17,4.48-3.25.41-.3.85-.37,1.31-.13.47.25.65.66.65,1.19,0,3.27,0,6.53,0,9.8,0,1.49,0,2.98,0,4.47,0,.29.09.38.37.37.49-.02.99-.03,1.48,0,.24.02.47.15.7.22v2.79Z"/>
    <path class="cls-1" d="M13.5,23.84c.23-.08.47-.22.7-.22.87-.03,1.74-.01,2.68-.01,0-.5,0-.96,0-1.42,0-.46,0-.93,0-1.39,0-.38.16-.55.54-.55.74,0,1.48,0,2.21,0,.43,0,.56.13.56.57,0,.78,0,1.56,0,2.34,0,.13,0,.27,0,.46.51,0,.99,0,1.46,0,.42,0,.85,0,1.27,0,.51,0,.62.11.63.63,0,.7,0,1.39,0,2.09,0,.48-.12.6-.61.6-.75,0-1.5,0-2.26,0-.15,0-.29.01-.49.02,0,.5,0,.98,0,1.45,0,.45,0,.9,0,1.35,0,.36-.17.53-.52.53-.75,0-1.5,0-2.26,0-.42,0-.54-.14-.54-.58,0-.9,0-1.8,0-2.77-.28,0-.53,0-.79,0-.66,0-1.31.02-1.97-.01-.21-.01-.42-.18-.63-.28,0-.93,0-1.86,0-2.79Z"/>
  </g>
</svg>