<?xml version="1.0" encoding="UTF-8"?>
<svg id="Layer_1" data-name="Layer 1" xmlns="http://www.w3.org/2000/svg" viewBox="0 0 48 48">
  <defs>
    <style>
      .cls-1 {
        fill: #000;
      }

      .cls-1, .cls-2 {
        stroke-width: 0px;
      }

      .cls-3 {
        opacity: .9;
      }

      .cls-2 {
        fill: #fff;
      }
    </style>
  </defs>
  <g class="cls-3">
    <path class="cls-1" d="M13.83,18.06c.94-1.43,1.83-2.71,2.64-4.03.79-1.3,1.83-1.89,3.4-1.79,1.89.12,3.8.06,5.7,0,.44-.01.93-.27,1.29-.55,1.99-1.56,3.02-3.73,3.71-6.09.35-1.17,1.03-2.06,2.37-2.21,1.97-.23,3.39,1.47,2.91,3.4-.81,3.19-2.13,6.12-4.37,8.54-1.89,2.04-2.39,4.33-2.32,7.07.17,6.6.06,13.21.05,19.81,0,1.97-.81,3.14-2.44,3.64-.99.3-1.92.12-2.75-.47-.44-.31-.77-.36-1.23-.02-1.08.8-2.27.84-3.44.22-1.2-.64-1.79-1.69-1.79-3.06,0-3.89-.02-7.79.01-11.68,0-.86-.17-1.27-1.14-1.37-2.48-.24-3.96-1.63-4.17-4.25-.24-2.84-.19-5.71-.16-8.57,0-.98.21-1.99.5-2.93.61-1.95,2.02-3.09,4.01-3.48.24-.05.8.28.79.39-.04.43-.15,1.11-.42,1.22-2.54,1-3.82,3.33-3.14,6.2ZM20.4,14c.33.66.56,1.13.8,1.58,1.09,2.06,1.98,4.18,1.63,6.59-.27,1.84-.8,3.58-2.68,4.4-.71.31-.89.69-.89,1.4.02,4.67,0,9.34.02,14.01,0,.4.05.81.19,1.18.26.73.83,1.09,1.6.99.76-.1,1.23-.57,1.37-1.32.06-.33.04-.68.04-1.02,0-4.17.02-8.35-.01-12.52,0-.74.23-.98.96-.97.75,0,.85.36.85.99-.02,4.24-.02,8.47,0,12.71,0,.53.14,1.13.41,1.57.35.57.99.75,1.65.51.89-.33,1.14-1.07,1.15-1.95.01-8.1.06-16.19-.01-24.29-.01-1.08-.62-2.17-1.05-3.22-.12-.28-.55-.61-.86-.62-1.64-.06-3.28-.03-5.18-.03ZM19.3,15.99c.09.04.18.07.27.11-.2-.34-.39-.69-.62-1.01-.57-.79-.81-.79-1.34.05-1.29,2.05-2.56,4.11-3.81,6.18-.5.82-.3,1.47.52,1.97.97.59,1.95.56,2.91-.33,1.14-1.05,2.17-2.21,3.24-3.34.43-.45.47-.97-.05-1.38-.56-.44-.91,0-1.22.4-.75.95-1.49,1.91-2.23,2.87-.35.44-.79.66-1.29.28-.51-.38-.39-.89-.05-1.32,1.21-1.51,2.45-2.99,3.68-4.49ZM28.9,15.65c.23-.14.4-.19.48-.3,1.86-2.52,3.91-4.93,4.54-8.13.08-.39.33-.8.27-1.16-.07-.37-.37-.87-.67-.96-.29-.08-.79.22-1.05.49-.24.24-.3.67-.44,1.02-.71,1.87-1.25,3.8-2.87,5.23-1.41,1.24-1.33,1.34-.53,3.1.09.19.15.4.28.72ZM13.95,25.33c.14,1.46,1.59,2.73,3.04,2.46.21-.04.45-.67.42-1.01-.05-.55.45-1.46-.37-1.6-1-.16-2.05.08-3.09.14ZM20.94,21.67c-.86,1.07-2.1,1.75-1.52,3.31,1.07-.33,1.75-1.73,1.52-3.31Z"/>
    <path class="cls-1" d="M22.62,2c2.73,0,4.94,2.21,4.92,4.92-.01,2.65-2.22,4.86-4.88,4.89-2.71.02-4.94-2.18-4.95-4.9,0-2.74,2.17-4.91,4.91-4.91ZM22.48,10.06c1.73.06,3.24-1.3,3.31-2.99.07-1.8-1.25-3.26-3.03-3.35-1.78-.08-3.23,1.28-3.29,3.08-.05,1.75,1.3,3.2,3.01,3.26Z"/>
    <path class="cls-2" d="M20.4,14c1.9,0,3.54-.03,5.18.03.3.01.74.33.86.62.42,1.05,1.04,2.14,1.05,3.22.08,8.1.02,16.19.01,24.29,0,.88-.26,1.61-1.15,1.95-.66.25-1.3.06-1.65-.51-.27-.44-.4-1.04-.41-1.57-.03-4.23-.03-8.47,0-12.71,0-.63-.09-.99-.85-.99-.73,0-.97.23-.96.97.03,4.17.02,8.35.01,12.52,0,.34.02.69-.04,1.02-.14.75-.61,1.22-1.37,1.32-.78.1-1.34-.27-1.6-.99-.13-.37-.19-.79-.19-1.18-.01-4.67,0-9.34-.02-14.01,0-.71.18-1.09.89-1.4,1.88-.82,2.41-2.56,2.68-4.4.35-2.41-.54-4.53-1.63-6.59-.24-.46-.46-.92-.8-1.58Z"/>
    <path class="cls-2" d="M19.3,15.99c-1.23,1.49-2.47,2.98-3.68,4.49-.34.42-.46.93.05,1.32.5.37.94.16,1.29-.28.75-.95,1.49-1.91,2.23-2.87.32-.41.67-.84,1.22-.4.51.4.47.92.05,1.38-1.06,1.13-2.1,2.29-3.24,3.34-.96.89-1.93.92-2.91.33-.82-.5-1.02-1.15-.52-1.97,1.25-2.07,2.53-4.13,3.81-6.18.53-.84.76-.84,1.34-.05.23.32.41.67.62,1.01-.09-.04-.18-.07-.27-.11Z"/>
    <path class="cls-2" d="M28.9,15.65c-.12-.33-.19-.53-.28-.72-.8-1.76-.88-1.85.53-3.1,1.62-1.43,2.15-3.36,2.87-5.23.13-.35.19-.77.44-1.02.27-.27.77-.57,1.05-.49.3.09.6.6.67.96.06.36-.19.77-.27,1.16-.62,3.21-2.68,5.62-4.54,8.13-.08.11-.24.16-.48.3Z"/>
    <path class="cls-2" d="M13.95,25.33c1.03-.06,2.09-.3,3.09-.14.83.13.33,1.05.37,1.6.03.34-.22.97-.42,1.01-1.45.26-2.9-1-3.04-2.46Z"/>
    <path class="cls-2" d="M20.94,21.67c.24,1.58-.45,2.97-1.52,3.31-.58-1.56.66-2.24,1.52-3.31Z"/>
    <path class="cls-2" d="M22.48,10.06c-1.72-.06-3.06-1.52-3.01-3.26.05-1.8,1.51-3.16,3.29-3.08,1.78.08,3.11,1.55,3.03,3.35-.07,1.69-1.58,3.05-3.31,2.99Z"/>
  </g>
</svg>