<?xml version="1.0" encoding="UTF-8"?>
<svg id="Layer_1" data-name="Layer 1" xmlns="http://www.w3.org/2000/svg" viewBox="0 0 48 48">
  <defs>
    <style>
      .cls-1 {
        fill: #000;
      }

      .cls-1, .cls-2 {
        stroke: #010101;
        stroke-miterlimit: 10;
        stroke-width: .07px;
      }

      .cls-2 {
        fill: #fff;
      }
    </style>
  </defs>
  <path class="cls-1" d="M7.34,19.57c-.48-3.79-.96-7.54-1.45-11.28-.05-.39.05-.59.48-.73,5.72-1.82,11.44-3.67,17.16-5.49.29-.09.67-.11.96-.01,5.88,1.87,11.75,3.77,17.71,5.68-.07,1.22-.13,2.45-.22,3.67-.37,5.12-.74,10.24-1.14,15.36-.15,1.92-.18,3.87-.64,5.73-1,4.07-3.68,7.06-7.64,9.11-2.66,1.37-5.29,2.78-7.91,4.21-.45.25-.76.24-1.2-.04-2.74-1.77-5.5-3.53-8.27-5.28-2.31-1.46-4.05-3.37-5.21-5.72-.24-.48-.5-.66-1.06-.61-.5.05-1.01.01-1.51,0-1.19-.01-1.58-.35-1.59-1.42-.01-2.39,0-4.78,0-7.17,0-1.39-.02-2.77-.02-4.16,0-1.28.16-1.47,1.54-1.86ZM13.49,34.22c.9,1.38,2.01,2.38,3.3,3.21,2.25,1.44,4.51,2.86,6.74,4.32.38.25.65.26,1.04.05,2.36-1.28,4.76-2.49,7.1-3.81,2.85-1.6,4.77-3.91,5.45-6.91.42-1.85.5-3.76.65-5.65.36-4.68.67-9.37,1.02-14.05.04-.52-.12-.77-.67-.94-3.72-1.17-7.49-2.26-11.13-3.62-2.1-.78-3.91-.72-5.97.03-3.53,1.28-7.15,2.35-10.74,3.48-.68.21-1.12.45-.9,1.22.13.44.12.91.18,1.37.28,2.23.57,4.47.86,6.77,1.08,0,2.11,0,3.14,0,1.01.01,1.48.44,1.54,1.34.01.15.04.29.07.44,2.09-.13,3.36-1.31,3.43-3.22.04-1-.08-2.02.06-3,.11-.79.34-1.65.82-2.28.71-.94,1.91-1.12,3.1-.89,1.21.24,1.59,1.18,1.72,2.14.19,1.45.2,2.92.35,4.37.1.94.7,1.51,1.73,1.59,1.17.08,2.34.02,3.51.04,1.2.02,2.41-.03,3.59.12,1.15.15,1.69.77,1.7,1.79.03,3.08.07,6.16-.03,9.24-.07,2.15-1.63,3.43-3.97,3.43-2.94,0-5.88-.08-8.82.03-1.72.07-3.16-.23-4.44-1.32-.74-.63-1.75-.73-2.78-.76-.05.94-.55,1.46-1.68,1.47ZM15.27,32.12c1.68.06,2.9.69,4.05,1.51.39.28.93.53,1.41.54,3.53.04,7.05.03,10.58.02,1.86,0,3.18-1.06,3.23-2.78.08-3.08.03-6.16.02-9.24,0-.72-.44-1.2-1.2-1.26-1.13-.09-2.28-.08-3.42-.09-1.23-.02-2.46.04-3.68-.05-1.21-.1-2.07-.89-2.22-1.98-.13-.94-.1-1.89-.19-2.84-.07-.76-.16-1.53-.35-2.27-.17-.64-.64-1.07-1.44-1.08-1.41-.02-2.37.56-2.57,1.84-.2,1.26-.15,2.55-.2,3.83-.08,1.96-1.17,3.22-3.23,3.71-.29.07-.59.13-.78.18v9.97ZM10.29,34.2c.12.28.18.47.27.65,1.09,2.11,2.67,3.84,4.76,5.18,2.75,1.76,5.52,3.51,8.27,5.28.36.23.6.21.96.02,2.73-1.46,5.5-2.87,8.21-4.36,4.67-2.58,7.1-6.4,7.4-11.39.2-3.38.46-6.76.71-10.14.26-3.56.51-7.12.8-10.68.04-.53-.14-.75-.69-.92-5.49-1.74-10.96-3.52-16.45-5.27-.31-.1-.72-.08-1.03.02-3.33,1.05-6.64,2.13-9.96,3.2-2.37.76-4.73,1.53-7.13,2.3.49,3.89.97,7.72,1.45,11.56h2.03c-.35-2.9-.68-5.75-1.08-8.59-.08-.56.05-.76.6-.93,4.62-1.47,9.22-2.97,13.85-4.43.48-.15,1.12-.13,1.6.01,2.89.88,5.76,1.83,8.63,2.75,1.94.63,3.88,1.26,5.79,1.89,0,.38.02.68,0,.99-.43,5.92-.85,11.83-1.3,17.75-.31,4.14-2.44,7.3-6.28,9.45-2.36,1.32-4.8,2.54-7.18,3.83-.43.23-.7.14-1.05-.08-1.49-.96-2.97-1.92-4.48-2.86-2.25-1.4-4.55-2.74-6.01-4.95-.09-.13-.3-.25-.46-.26-.72-.03-1.43-.01-2.24-.01ZM14.45,26.96c0-1.9-.03-3.8.01-5.7.02-.75-.32-.99-1.1-.98-1.93.03-3.86,0-5.79.01-.97,0-1.13.13-1.13,1.02,0,3.77,0,7.55-.01,11.32,0,.69.26.96,1.03.95,1.99-.03,3.97-.02,5.96,0,.75.01,1.05-.23,1.04-.94-.03-1.9-.01-3.8-.01-5.7Z"/>
  <path class="cls-2" d="M13.49,34.22c1.14,0,1.63-.52,1.68-1.47,1.04.04,2.04.13,2.78.76,1.28,1.09,2.72,1.38,4.44,1.32,2.93-.12,5.88-.03,8.82-.03,2.34,0,3.9-1.28,3.97-3.43.09-3.08.05-6.16.03-9.24,0-1.03-.55-1.65-1.7-1.79-1.18-.15-2.39-.1-3.59-.12-1.17-.02-2.35.05-3.51-.04-1.03-.07-1.63-.64-1.73-1.59-.16-1.45-.17-2.92-.35-4.37-.12-.96-.51-1.9-1.72-2.14-1.19-.24-2.39-.05-3.1.89-.48.63-.71,1.49-.82,2.28-.14.99-.02,2-.06,3-.08,1.91-1.34,3.09-3.43,3.22-.02-.14-.06-.29-.07-.44-.06-.91-.54-1.33-1.54-1.34-1.03-.01-2.06,0-3.14,0-.29-2.3-.58-4.53-.86-6.77-.06-.46-.06-.93-.18-1.37-.22-.76.22-1,.9-1.22,3.59-1.13,7.21-2.19,10.74-3.48,2.06-.75,3.88-.81,5.97-.03,3.64,1.36,7.4,2.44,11.13,3.62.55.17.71.41.67.94-.35,4.68-.66,9.37-1.02,14.05-.15,1.89-.23,3.8-.65,5.65-.68,3-2.6,5.31-5.45,6.91-2.34,1.31-4.74,2.53-7.1,3.81-.39.21-.66.2-1.04-.05-2.23-1.46-4.49-2.88-6.74-4.32-1.3-.83-2.41-1.83-3.3-3.21Z"/>
  <path class="cls-2" d="M15.27,32.12v-9.97c.2-.04.49-.11.78-.18,2.06-.49,3.15-1.75,3.23-3.71.05-1.28,0-2.57.2-3.83.2-1.28,1.16-1.86,2.57-1.84.79.01,1.27.44,1.44,1.08.19.74.28,1.51.35,2.27.09.94.06,1.9.19,2.84.15,1.09,1.01,1.88,2.22,1.98,1.22.1,2.45.03,3.68.05,1.14.02,2.28,0,3.42.09.76.06,1.2.54,1.2,1.26,0,3.08.06,6.16-.02,9.24-.05,1.72-1.36,2.78-3.23,2.78-3.53.01-7.05.02-10.58-.02-.48,0-1.01-.26-1.41-.54-1.15-.82-2.37-1.45-4.05-1.51Z"/>
  <path class="cls-2" d="M10.29,34.2c.81,0,1.53-.02,2.24.01.16,0,.37.13.46.26,1.46,2.21,3.76,3.55,6.01,4.95,1.5.94,2.99,1.9,4.48,2.86.34.22.62.32,1.05.08,2.38-1.3,4.82-2.51,7.18-3.83,3.85-2.15,5.97-5.32,6.28-9.45.45-5.91.87-11.83,1.3-17.75.02-.31,0-.61,0-.99-1.92-.63-3.85-1.26-5.79-1.89-2.87-.93-5.74-1.87-8.63-2.75-.49-.15-1.12-.17-1.6-.01-4.62,1.45-9.23,2.96-13.85,4.43-.55.18-.68.37-.6.93.4,2.84.72,5.69,1.08,8.59h-2.03c-.48-3.83-.96-7.66-1.45-11.56,2.4-.77,4.76-1.54,7.13-2.3,3.32-1.07,6.63-2.15,9.96-3.2.31-.1.72-.11,1.03-.02,5.49,1.75,10.96,3.52,16.45,5.27.55.17.73.39.69.92-.29,3.56-.54,7.12-.8,10.68-.24,3.38-.5,6.76-.71,10.14-.3,4.99-2.73,8.81-7.4,11.39-2.71,1.5-5.48,2.9-8.21,4.36-.36.19-.6.21-.96-.02-2.75-1.77-5.51-3.52-8.27-5.28-2.09-1.34-3.67-3.07-4.76-5.18-.09-.18-.15-.37-.27-.65Z"/>
  <path class="cls-2" d="M14.45,26.96c0,1.9-.02,3.8.01,5.7.01.71-.29.95-1.04.94-1.99-.03-3.97-.04-5.96,0-.77.01-1.04-.26-1.03-.95.02-3.77,0-7.55.01-11.32,0-.89.16-1.02,1.13-1.02,1.93,0,3.86.02,5.79-.01.78-.01,1.11.23,1.1.98-.04,1.9-.01,3.8-.01,5.7Z"/>
</svg>