<?xml version="1.0" encoding="UTF-8"?>
<svg id="Layer_1" data-name="Layer 1" xmlns="http://www.w3.org/2000/svg" viewBox="0 0 48 48">
  <defs>
    <style>
      .cls-1 {
        fill: #000;
      }

      .cls-1, .cls-2 {
        stroke-width: 0px;
      }

      .cls-2 {
        fill: #fff;
      }
    </style>
  </defs>
  <path class="cls-1" d="M9.73,46c-.08-.26-.23-.52-.24-.78-.02-2.68-.01-5.35-.01-8.03,0-.17,0-.34,0-.55-1.01,0-1.98,0-2.95,0-.7,0-.79-.09-.79-.79,0-3.52,0-7.04,0-10.57,0-.71.07-.78.8-.78.96,0,1.91,0,2.94,0v-.57c0-7.01,0-14.03,0-21.04,0-.81.07-.88.88-.88,7.86,0,15.72,0,23.58,0,.39,0,.67.1.94.38,2.32,2.34,4.64,4.67,6.97,7,.26.26.38.53.38.9,0,11.64,0,23.28,0,34.92,0,.3.01.61-.29.8H9.73ZM33.88,2.94H10.44v21.55h.54c4.84,0,9.68,0,14.52,0,.75,0,.82.07.82.8,0,3.51,0,7.02,0,10.52,0,.73-.08.81-.81.81-4.85,0-9.71,0-14.56,0-.17,0-.33,0-.51,0v8.44h30.89V10.41c-.18,0-.33,0-.49,0-2.08,0-4.15,0-6.23,0-.61,0-.73-.12-.73-.72,0-2.09,0-4.18,0-6.27,0-.15,0-.31,0-.48ZM25.39,35.71v-10.29H6.68v10.29h18.72ZM40.58,9.47c-1.94-1.92-3.87-3.83-5.78-5.73v5.73h5.78Z"/>
  <path class="cls-2" d="M33.88,2.94c0,.17,0,.32,0,.48,0,2.09,0,4.18,0,6.27,0,.6.12.72.73.72,2.08,0,4.15,0,6.23,0,.15,0,.31,0,.49,0v34.66H10.44v-8.44c.17,0,.34,0,.51,0,4.85,0,9.71,0,14.56,0,.73,0,.81-.08.81-.81,0-3.51,0-7.02,0-10.52,0-.73-.07-.8-.82-.8-4.84,0-9.68,0-14.52,0h-.54V2.94h23.44ZM25.89,18.86c-2.78,0-5.55,0-8.33,0-.93,0-1.86,0-2.79,0-.3,0-.56.08-.57.44-.01.38.26.46.58.47.07,0,.14,0,.21,0,7.26,0,14.51,0,21.77,0,.35,0,.73.04.8-.44.04-.32-.23-.47-.8-.47-3.62,0-7.24,0-10.86,0ZM25.88,16.96c3.61,0,7.22,0,10.83,0,.62,0,.89-.14.85-.46-.07-.51-.49-.43-.84-.43-7.23,0-14.47,0-21.7,0-.13,0-.26,0-.39.01-.26.02-.44.15-.44.43,0,.3.18.43.46.45.13,0,.26,0,.39,0,3.61,0,7.22,0,10.83,0ZM25.9,21.68c-3.64,0-7.28,0-10.91,0-.59,0-.83.13-.79.47.06.51.46.42.79.42,7.25,0,14.49,0,21.74,0,.14,0,.32.04.42-.03.16-.1.38-.28.38-.42,0-.15-.22-.33-.38-.43-.1-.07-.28-.02-.42-.02-3.61,0-7.22,0-10.83,0ZM28.48,13.25c-2.79,0-5.58,0-8.37,0-.33,0-.7-.04-.74.43-.03.32.2.46.76.46,5.55,0,11.11,0,16.66,0,.11,0,.26.04.34-.02.17-.12.3-.29.44-.44-.15-.14-.28-.31-.46-.42-.09-.06-.25-.01-.38-.01-2.75,0-5.5,0-8.24,0ZM33.08,28.21c1.22,0,2.43,0,3.65,0,.59,0,.83-.13.84-.45,0-.32-.25-.47-.82-.47-2.43,0-4.87,0-7.3,0-.14,0-.31-.03-.42.04-.15.1-.36.28-.35.41.02.16.21.33.37.44.09.06.25.02.38.02,1.22,0,2.43,0,3.65,0ZM33.12,30.11c-1.14,0-2.29,0-3.43,0-.2,0-.43-.05-.59.02-.18.08-.38.27-.41.45-.02.12.23.3.39.41.08.06.22.03.34.03,2.48,0,4.95,0,7.43,0,.14,0,.32.02.42-.05.13-.1.28-.27.29-.41,0-.12-.14-.3-.27-.38-.1-.07-.27-.06-.42-.06-1.24,0-2.49,0-3.73,0ZM33.12,25.39c1.3,0,2.6,0,3.91,0,.3,0,.52-.13.53-.44,0-.31-.21-.45-.51-.45-2.62,0-5.24,0-7.85,0-.15,0-.34.09-.44.2-.08.09-.1.34-.03.42.11.13.32.25.49.25,1.3.02,2.6.01,3.91.01ZM33.11,36.64c1.29,0,2.58,0,3.86,0,.31,0,.57-.1.58-.43.01-.37-.26-.47-.58-.47-.07,0-.14,0-.21,0-2.43,0-4.86,0-7.3,0-.14,0-.31-.04-.42.03-.15.09-.37.27-.35.4.02.16.21.33.36.45.07.06.22.02.34.02,1.24,0,2.49,0,3.73,0ZM33.1,33.82c1.12,0,2.23,0,3.35,0,.23,0,.48.05.68-.03.17-.07.38-.27.4-.44.02-.12-.24-.29-.39-.41-.07-.05-.19-.01-.29-.01-2.49,0-4.98,0-7.47,0-.13,0-.29-.04-.38.03-.14.11-.31.28-.32.44,0,.13.18.3.32.39.11.07.28.03.42.03,1.23,0,2.46,0,3.69,0ZM15.56,14.14c.3,0,.6,0,.9,0,.28,0,.48-.14.48-.44,0-.29-.19-.44-.47-.44-.6,0-1.2,0-1.8,0-.28,0-.47.14-.47.44,0,.3.18.43.47.44.3,0,.6,0,.9,0Z"/>
  <path class="cls-2" d="M25.39,35.71H6.68v-10.29h18.72v10.29ZM14.34,30.53c0,1.06,0,2.12,0,3.17,0,.46.16.62.58.6,1.98-.06,3.61-1.74,3.62-3.74.01-1.94-1.54-3.61-3.47-3.73-.62-.04-.72.06-.73.69,0,1,0,2,0,3ZM10.27,30.98c.51,0,.94.02,1.36,0,1.1-.07,1.95-.98,1.95-2.06,0-1.09-.83-2-1.93-2.08-.51-.04-1.03-.02-1.54-.02-.63,0-.73.1-.73.72,0,2,0,4,0,6.01,0,.56.13.8.45.77.5-.05.44-.44.44-.78,0-.83,0-1.65,0-2.54ZM20.23,27.7c.94,0,1.82,0,2.71,0,.31,0,.55-.09.55-.45,0-.36-.25-.44-.55-.45-.06,0-.11,0-.17,0-.9,0-1.8,0-2.7,0-.66,0-.77.11-.77.78,0,1.99,0,3.98,0,5.96,0,.06,0,.11,0,.17,0,.32.1.59.47.58.34-.01.44-.27.44-.57,0-.5,0-1,0-1.5,0-.4,0-.79,0-1.21.23,0,.4,0,.57,0,.49,0,.98.03,1.46-.03.16-.02.41-.28.41-.43,0-.15-.24-.33-.42-.43-.1-.06-.28-.02-.42-.02-.52,0-1.05,0-1.58,0v-2.41Z"/>
  <path class="cls-2" d="M40.58,9.47h-5.78V3.75c1.91,1.89,3.84,3.8,5.78,5.73Z"/>
  <path class="cls-1" d="M25.89,18.86c3.62,0,7.24,0,10.86,0,.57,0,.85.15.8.47-.07.48-.45.44-.8.44-7.26,0-14.51,0-21.77,0-.07,0-.14,0-.21,0-.31-.01-.59-.09-.58-.47.01-.35.28-.44.57-.44.93,0,1.86,0,2.79,0,2.78,0,5.55,0,8.33,0Z"/>
  <path class="cls-1" d="M25.88,16.96c-3.61,0-7.22,0-10.83,0-.13,0-.26,0-.39,0-.28-.02-.46-.15-.46-.45,0-.28.17-.41.44-.43.13-.01.26-.01.39-.01,7.23,0,14.47,0,21.7,0,.35,0,.77-.08.84.43.04.32-.23.46-.85.46-3.61,0-7.22,0-10.83,0Z"/>
  <path class="cls-1" d="M25.9,21.68c3.61,0,7.22,0,10.83,0,.14,0,.32-.05.42.02.16.1.38.28.38.43,0,.14-.22.32-.38.42-.1.07-.28.03-.42.03-7.25,0-14.49,0-21.74,0-.33,0-.74.08-.79-.42-.04-.34.2-.47.79-.47,3.64,0,7.28,0,10.91,0Z"/>
  <path class="cls-1" d="M28.48,13.25c2.75,0,5.5,0,8.24,0,.13,0,.29-.04.38.01.17.11.31.28.46.42-.14.15-.27.32-.44.44-.08.06-.22.02-.34.02-5.55,0-11.11,0-16.66,0-.56,0-.79-.13-.76-.46.05-.47.41-.43.74-.43,2.79,0,5.58,0,8.37,0Z"/>
  <path class="cls-1" d="M33.08,28.21c-1.22,0-2.43,0-3.65,0-.13,0-.29.04-.38-.02-.16-.11-.35-.28-.37-.44-.01-.12.2-.31.35-.41.1-.07.28-.04.42-.04,2.43,0,4.87,0,7.3,0,.57,0,.83.15.82.47,0,.32-.25.45-.84.45-1.22,0-2.43,0-3.65,0Z"/>
  <path class="cls-1" d="M33.12,30.11c1.24,0,2.49,0,3.73,0,.14,0,.31-.01.42.06.13.09.28.26.27.38-.01.15-.16.32-.29.41-.1.07-.28.05-.42.05-2.48,0-4.95,0-7.43,0-.11,0-.26.03-.34-.03-.16-.11-.4-.3-.39-.41.03-.17.23-.36.41-.45.17-.08.39-.02.59-.02,1.14,0,2.29,0,3.43,0Z"/>
  <path class="cls-1" d="M33.12,25.39c-1.3,0-2.6,0-3.91-.01-.17,0-.38-.12-.49-.25-.07-.08-.05-.33.03-.42.09-.11.29-.2.44-.2,2.62-.01,5.24,0,7.85,0,.3,0,.52.14.51.45,0,.31-.22.44-.53.44-1.3,0-2.6,0-3.91,0Z"/>
  <path class="cls-1" d="M33.11,36.64c-1.24,0-2.49,0-3.73,0-.11,0-.26.04-.34-.02-.15-.12-.34-.29-.36-.45-.01-.12.2-.3.35-.4.11-.06.28-.03.42-.03,2.43,0,4.86,0,7.3,0,.07,0,.14,0,.21,0,.32,0,.6.1.58.47-.01.33-.27.43-.58.43-1.29,0-2.58,0-3.86,0Z"/>
  <path class="cls-1" d="M33.1,33.82c-1.23,0-2.46,0-3.69,0-.14,0-.31.03-.42-.03-.14-.09-.32-.26-.32-.39.01-.16.18-.33.32-.44.08-.06.25-.03.38-.03,2.49,0,4.98,0,7.47,0,.1,0,.23-.03.29.01.16.12.41.29.39.41-.02.17-.23.37-.4.44-.2.08-.45.03-.68.03-1.12,0-2.23,0-3.35,0Z"/>
  <path class="cls-1" d="M15.56,14.14c-.3,0-.6,0-.9,0-.28,0-.47-.14-.47-.44,0-.3.19-.43.47-.44.6,0,1.2,0,1.8,0,.28,0,.47.15.47.44,0,.29-.19.43-.48.44-.3,0-.6,0-.9,0Z"/>
  <path class="cls-1" d="M14.34,30.53c0-1,0-2,0-3,0-.64.11-.73.73-.69,1.93.12,3.49,1.79,3.47,3.73-.01,2-1.64,3.68-3.62,3.74-.42.01-.58-.14-.58-.6,0-1.06,0-2.12,0-3.17ZM15.25,33.35c1.52-.27,2.5-1.56,2.38-3.06-.1-1.27-1.23-2.46-2.38-2.49v5.55Z"/>
  <path class="cls-1" d="M10.27,30.98c0,.89,0,1.72,0,2.54,0,.34.06.73-.44.78-.32.03-.45-.22-.45-.77,0-2,0-4,0-6.01,0-.62.1-.72.73-.72.51,0,1.03-.01,1.54.02,1.1.08,1.94.99,1.93,2.08,0,1.09-.85,1.99-1.95,2.06-.43.03-.86,0-1.36,0ZM10.3,30.09c.47,0,.91.03,1.34,0,.57-.06.99-.53,1.02-1.09.03-.6-.31-1.14-.9-1.23-.48-.08-.98-.02-1.47-.02v2.34Z"/>
  <path class="cls-1" d="M20.23,27.7v2.41c.53,0,1.06,0,1.58,0,.14,0,.32-.05.42.02.17.11.41.28.42.43,0,.15-.25.41-.41.43-.48.06-.97.03-1.46.03-.17,0-.34,0-.57,0,0,.42,0,.82,0,1.21,0,.5,0,1,0,1.5,0,.31-.1.56-.44.57-.37.01-.47-.26-.47-.58,0-.06,0-.11,0-.17,0-1.99,0-3.98,0-5.96,0-.67.11-.78.77-.78.9,0,1.8,0,2.7,0,.06,0,.11,0,.17,0,.3,0,.56.09.55.45,0,.35-.25.45-.55.45-.89,0-1.77,0-2.71,0Z"/>
  <path class="cls-2" d="M15.25,33.35v-5.55c1.15.03,2.27,1.21,2.38,2.49.12,1.51-.86,2.79-2.38,3.06Z"/>
  <path class="cls-2" d="M10.3,30.09v-2.34c.49,0,.99-.06,1.47.02.59.09.93.63.9,1.23-.03.56-.45,1.03-1.02,1.09-.43.04-.88,0-1.34,0Z"/>
</svg>