<?xml version="1.0" encoding="UTF-8"?>
<svg id="Layer_1" data-name="Layer 1" xmlns="http://www.w3.org/2000/svg" viewBox="0 0 48 48">
  <defs>
    <style>
      .cls-1 {
        fill: #333;
      }

      .cls-1, .cls-2 {
        stroke-width: 0px;
      }

      .cls-3 {
        fill: none;
        stroke: #010101;
        stroke-miterlimit: 10;
        stroke-width: .2px;
      }

      .cls-4 {
        fill: #010101;
        font-family: Skia-Regular, Skia;
        font-size: 4.56px;
        font-variation-settings: 'wght' 1, 'wdth' 1;
      }

      .cls-2 {
        fill: #fff;
      }
    </style>
  </defs>
  <path class="cls-1" d="M45.96,38.76c0,3.44-2.79,6.23-6.23,6.24-3.44,0-6.23-2.79-6.24-6.22,0-3.46,2.8-6.28,6.25-6.27,3.43.01,6.22,2.81,6.21,6.25ZM44.59,38.79c.01-2.7-2.14-4.89-4.84-4.91-2.67-.02-4.87,2.17-4.88,4.87,0,2.67,2.15,4.86,4.81,4.88,2.69.02,4.89-2.15,4.9-4.84Z"/>
  <path class="cls-2" d="M44.59,38.79c-.01,2.69-2.22,4.86-4.9,4.84-2.67-.02-4.82-2.21-4.81-4.88,0-2.69,2.21-4.89,4.88-4.87,2.7.02,4.85,2.21,4.84,4.91ZM38.99,39.17c-.14-.18-.25-.33-.38-.48-.14-.16-.29-.31-.44-.44-.34-.3-.71-.31-1-.04-.3.28-.3.68.03,1.03.42.44.86.88,1.3,1.3.35.33.72.34,1.07.01.9-.85,1.79-1.72,2.69-2.58.29-.28.35-.62.11-.96-.25-.36-.72-.37-1.09-.02-.74.69-1.46,1.4-2.28,2.18Z"/>
  <g id="Become_A_Star" data-name="Become A Star">
    <path class="cls-3" d="M41.15,40.17v1.53h-.36v-1.42h-2.13v1.42h-.36v-1.53l-2.08-2.08.25-.25,2.08,2.08h2.34l2.08-2.08.25.25-2.08,2.08ZM38.27,38.6l.43.32,1.03-.82,1.03.83.45-.31-.46-1.17.93-.55v-.54h-1.32l-.36-1.29h-.56l-.35,1.29h-1.32v.54l.92.53-.43,1.17ZM38.16,36.72h1.21l.35-1.29h.02l.35,1.29h1.2l-.99.58.47,1.2h0l-1.05-.84-1.04.83h0l.44-1.2-.97-.56h0Z"/>
  </g>
  <g id="The_Book" data-name="The Book">
    <path class="cls-3" d="M19.69,5.49v4.7l-3.5.97-3.5-.97v-4.7c0-.22.1-.44.27-.58,0,0,.01,0,.02-.01v5.07l3.21.89,3.21-.89v-5.07s.01,0,.02.01c.17.14.27.36.27.58ZM16.19,10.29l-2.63-.75v-4.36c0-.23.11-.44.29-.58.18-.14.42-.18.64-.12l1.22.35c.2.06.36.18.47.35.11-.16.28-.29.47-.35l1.22-.35c.22-.06.46-.02.64.12s.29.35.29.58v4.36l-2.63.75ZM16.33,9.94l2.19-.63v-4.14c0-.14-.06-.27-.17-.35-.08-.06-.17-.09-.26-.09-.04,0-.08,0-.12.02l-1.22.35c-.24.07-.41.29-.41.54v4.3h0ZM16.04,5.64c0-.25-.17-.47-.41-.54l-1.22-.35c-.13-.04-.27-.01-.38.07s-.17.21-.17.35v4.14l2.19.62v-4.3h0Z"/>
  </g>
  <g id="_1_Connect" data-name="+1 Connect">
    <g>
      <path class="cls-3" d="M13.46,25.08h-3.8c-.72,0-1.31.59-1.31,1.31v1.17c0,.72.59,1.31,1.31,1.31h1.05l.56.47c.08.07.19.11.29.11s.2-.04.29-.11l.58-.48h1.03c.72,0,1.31-.59,1.31-1.31v-1.17c0-.72-.59-1.31-1.31-1.31h0Z"/>
      <path class="cls-3" d="M14.48,27.56c0,.56-.46,1.02-1.02,1.02h-1.09s-.07.01-.09.03l-.62.51c-.05.05-.14.05-.2,0l-.61-.51s-.06-.04-.09-.04h-1.1c-.56,0-1.02-.46-1.02-1.02v-1.17c0-.56.46-1.02,1.02-1.02h3.79c.56,0,1.02.46,1.02,1.02,0,0,0,1.17,0,1.17Z"/>
      <path class="cls-3" d="M15.06,30.77v-1.46c0-.08.07-.15.15-.15s.15.07.15.15v1.46c0,.72-.59,1.31-1.31,1.31h-3.8c-.72,0-1.31-.59-1.31-1.31v-.58c0-.08.07-.15.15-.15s.15.07.15.15v.58c0,.56.46,1.02,1.02,1.02h3.79c.56,0,1.02-.46,1.02-1.02Z"/>
      <path class="cls-3" d="M12.44,30.19c0,.08-.07.15-.15.15h-2.04c-.08,0-.15-.07-.15-.15s.07-.15.15-.15h2.04c.08,0,.15.06.15.15Z"/>
      <path class="cls-3" d="M13.17,30.33c-.08,0-.15-.07-.15-.15s.07-.15.15-.15h.88c.08,0,.15.07.15.15s-.07.15-.15.15h-.88Z"/>
      <path class="cls-3" d="M12,30.92h2.04c.08,0,.15.07.15.15s-.07.15-.15.15h-2.04c-.08,0-.15-.07-.15-.15s.07-.15.15-.15Z"/>
      <path class="cls-3" d="M10.1,31.06c0-.08.07-.15.15-.15h.88c.08,0,.15.07.15.15s-.07.15-.15.15h-.88c-.08,0-.15-.07-.15-.15Z"/>
    </g>
  </g>
  <text class="cls-4" transform="translate(12.84 41.06)"><tspan x="0" y="0">Star</tspan></text>
  <path class="cls-1" d="M41.31,7.36c-.89-.26-1.83-.33-2.82-.5,0-.59,0-1.27,0-1.94-.01-1.22-.72-1.92-1.94-1.92-3.8,0-7.6,0-11.4,0-1.25,0-1.94.7-1.95,1.95,0,.66,0,1.32,0,2,0,0-.15,1.4,0,1.42,0,.66,0,1.3,0,1.95,0,1.32.68,2,2,2,3.75,0,7.5,0,11.25,0,1.36,0,2.03-.67,2.04-2.01,0-.64,0-1.28,0-1.99.5.04.93.05,1.36.11,3.36.44,6.08,3.31,6.27,6.59.21,3.68-2.04,6.84-5.49,7.68-1.7.41-3.44.17-5.17.2-.02,0-.03-.04-.06-.08.06-.07.13-.14.19-.21.32-.36.35-.75.07-1.03-.29-.29-.67-.27-1.03.07-.48.46-.95.93-1.41,1.4-.36.37-.38.71-.04,1.06.49.51,1,1.02,1.51,1.51.3.29.64.3.96.02.27-.24.27-.64,0-.96-.09-.11-.19-.23-.35-.41,1.14,0,2.17.01,3.2,0,.55,0,1.1-.02,1.64-.1,3.94-.6,7.03-3.9,7.31-7.75.3-4.21-2.2-7.91-6.16-9.05ZM36.47,10.95c-3.75,0-7.5,0-11.25,0-.58,0-.65-.07-.65-.64,0-1.76,0-3.52,0-5.28,0-.57.08-.65.64-.65,1.87,0,3.75,0,5.62,0s3.75,0,5.62,0c.57,0,.65.08.65.65,0,1.76,0,3.52,0,5.28,0,.57-.07.65-.65.65Z"/>
  <path class="cls-1" d="M9.51,38.88c0-.71,0-1.36,0-2,0-1.33.67-2,2-2,3.81,0,7.63,0,11.44,0,1.31,0,2,.69,2,2.01,0,1.76,0,3.52,0,5.29,0,1.32-.71,2.03-2.05,2.03-3.78,0-7.57,0-11.35,0-1.37,0-2.05-.68-2.05-2.06,0-.63,0-1.25,0-1.81-.98-.17-1.9-.24-2.78-.48-3.97-1.11-6.5-4.84-6.21-9.07.27-3.88,3.46-7.24,7.4-7.78.51-.07,1.03-.09,1.55-.09,2.26,0,4.52,0,6.87,0,0-.61,0-1.2,0-1.79,0-1.54.65-2.19,2.17-2.19,3.67,0,7.34,0,11.01,0,1.46,0,2.13.68,2.13,2.13,0,1.75,0,3.49,0,5.24,0,1.24-.71,1.95-1.96,1.95-3.8,0-7.6,0-11.4,0-1.25,0-1.95-.71-1.96-1.95,0-.66,0-1.32,0-2-.19-.01-.33-.03-.47-.03-2.2,0-4.4,0-6.6,0-3.76.02-6.71,2.53-7.34,6.24-.67,3.95,2.38,7.93,6.38,8.3.38.03.76.05,1.2.08ZM24,20.3c-1.88,0-3.75,0-5.63,0-.54,0-.66.12-.66.65,0,1.75,0,3.49,0,5.24,0,.62.07.69.71.69,3.72,0,7.44,0,11.15,0,.63,0,.71-.08.71-.69,0-1.73,0-3.46,0-5.19,0-.59-.11-.7-.71-.7-1.86,0-3.72,0-5.58,0ZM17.26,42.78c1.87,0,3.75,0,5.62,0,.44,0,.65-.15.65-.61-.01-1.76-.01-3.52,0-5.28,0-.44-.18-.58-.62-.58-3.78.01-7.56,0-11.34,0-.57,0-.63.06-.63.65,0,1.71,0,3.43,0,5.14,0,.63.05.68.7.68,1.87,0,3.75,0,5.62,0Z"/>
  <path class="cls-1" d="M31.16,40.23c-1.31,0-2.49,0-3.67,0-.16,0-.32,0-.48,0-.47-.03-.77-.33-.75-.72.02-.38.31-.63.77-.63,1.16,0,2.33,0,3.49,0,.18,0,.35,0,.65,0-.17-.18-.27-.29-.36-.4-.27-.32-.29-.64,0-.96.24-.27.67-.28.96,0,.53.5,1.04,1.01,1.54,1.54.32.34.29.67-.05,1.03-.46.48-.93.95-1.4,1.41-.36.35-.73.38-1.03.1-.3-.28-.29-.65.04-1.03.07-.08.14-.16.29-.33Z"/>
  <g id="Talk_to_Star" data-name="Talk to Star">
    <path class="cls-3" d="M32.38,29.72h-1.02v-.58h-.29v.58h-2.92v-.58h-.29v.58h-1.02c-.4,0-.73.33-.73.73v5.69h7.01v-5.69c0-.4-.33-.73-.73-.73ZM26.83,30.02h5.55c.24,0,.44.2.44.44v1.02h-6.42v-1.02c0-.24.2-.44.44-.44ZM26.39,35.85v-4.09h6.42v4.09h-6.42ZM31.05,33.22h-.9l-.28-.91h-.56l-.26.91h-.92l-.09.47.68.49-.25.82.4.31.72-.49.71.48.43-.29-.27-.83.7-.52-.12-.45h0ZM30.13,34.08l.27.82-.09.06-.71-.48-.71.48-.08-.06.26-.83-.7-.51v-.04h.9l.26-.91h.12l.28.91h.9v.04s-.69.53-.69.53h0Z"/>
  </g>
  <text class="cls-4" transform="translate(25.48 9.12)"><tspan x="0" y="0">Read</tspan></text>
  <text class="cls-4" transform="translate(18.35 24.85)"><tspan x="0" y="0">Share</tspan></text>
</svg>