<?xml version="1.0" encoding="UTF-8"?>
<svg id="Layer_1" data-name="Layer 1" xmlns="http://www.w3.org/2000/svg" viewBox="0 0 48 48">
  <defs>
    <style>
      .cls-1 {
        fill: #010101;
        stroke-width: 0px;
      }
    </style>
  </defs>
  <path class="cls-1" d="M31.62,42.82c-.28-1.03-.51-1.93-.75-2.82-.41-1.51-.83-3.01-1.24-4.52-.25-.91.09-1.35,1.03-1.35,3.5,0,6.99,0,10.49,0,1.88,0,3.05-1.16,3.05-3.02,0-8.12-.02-16.24.02-24.36,0-1.52-1.22-3-2.96-2.94-2.33.07-4.66.02-6.99.02-.71,0-1.09-.31-1.11-.88-.01-.52.3-.9.82-.9,2.67,0,5.35-.08,8.02.03,2.22.09,3.99,2.21,3.99,4.55,0,5.02,0,10.05,0,15.07,0,3.21.01,6.42,0,9.63-.01,2.13-1.35,3.86-3.41,4.41-.47.13-.98.17-1.47.18-2.9.02-5.81,0-8.71,0-.23,0-.45,0-.78,0,.23.89.44,1.71.67,2.53.56,2.04,1.11,4.08,1.68,6.12.13.47.18.9-.27,1.24-.48.35-.89.13-1.3-.17-4.2-3.09-8.4-6.16-12.6-9.26-.44-.32-.87-.47-1.41-.47-3.86.02-7.72,0-11.58.01-2.45,0-4.27-1.49-4.74-3.88-.05-.24-.06-.49-.06-.74,0-8.16.03-16.31-.02-24.47-.02-2.78,2.23-4.85,4.79-4.81,5.58.08,11.16.02,16.73.02.7,0,1.1.31,1.11.87.01.56-.43.92-1.15.92-5.52,0-11.04.05-16.56-.02-2.06-.03-3.15,1.55-3.13,3.12.05,8.04.03,16.09.03,24.13,0,1.95,1.14,3.08,3.1,3.08,4.07,0,8.14,0,12.21.02.37,0,.79.14,1.09.36,3.55,2.58,7.09,5.18,10.63,7.78.21.16.43.3.77.54Z"/>
  <path class="cls-1" d="M22.31,12.92c-.92-.88-1.79-1.73-2.67-2.57-.32-.31-.64-.62-.48-1.13.16-.5.57-.61,1.02-.68,1.6-.25,3.2-.52,4.8-.75.36-.05.58-.19.74-.52.73-1.47,1.49-2.92,2.22-4.39.2-.4.44-.71.94-.71.5,0,.74.31.94.71.74,1.46,1.5,2.92,2.23,4.39.16.33.38.47.74.52,1.64.24,3.27.52,4.91.77.44.07.77.23.92.66.16.45-.09.76-.39,1.06-1.16,1.16-2.31,2.33-3.49,3.48-.28.27-.37.54-.31.91.26,1.54.5,3.09.75,4.63.02.15.04.3.05.46.05.84-.58,1.29-1.34.91-1.49-.74-2.97-1.48-4.43-2.26-.42-.23-.74-.21-1.16,0-1.4.74-2.82,1.44-4.23,2.17-.41.21-.8.37-1.22.04-.4-.31-.36-.73-.29-1.15.21-1.34.43-2.67.64-4.01.03-.17.03-.34.05-.61-.37.02-.75-.05-1.06.08-.68.28-1.37.58-1.96,1-.77.55-.98.61-1.68,0-2.6-2.25-6.57-.91-7.23,2.47-.27,1.39.03,2.7,1.02,3.72,2.27,2.34,4.6,4.62,6.91,6.92.03.03.07.04.15.08.14-.13.29-.26.43-.41,1.82-1.82,3.64-3.65,5.47-5.47.16-.16.33-.34.54-.41.41-.14.8-.07,1.06.32.29.44.18.84-.17,1.19-1.13,1.14-2.27,2.27-3.4,3.4-1.07,1.07-2.13,2.13-3.2,3.2-.51.51-.91.56-1.43.05-2.24-2.21-4.46-4.44-6.7-6.65-.95-.93-1.82-1.88-2.24-3.19-.77-2.4-.03-5.09,1.9-6.69,1.98-1.64,4.81-1.91,7.01-.6.54.32.89.29,1.41-.01.63-.37,1.36-.57,2.21-.92ZM35.96,10.08c-1.46-.23-2.71-.46-3.96-.62-.65-.08-1.06-.37-1.34-.98-.54-1.15-1.15-2.27-1.77-3.5-.63,1.22-1.24,2.34-1.77,3.49-.29.63-.72.91-1.39.99-1.24.16-2.48.38-3.82.59.21.22.34.37.48.52.81.81,1.61,1.63,2.43,2.42.37.35.47.73.38,1.23-.23,1.31-.42,2.62-.63,4.03.24-.11.41-.17.57-.25,1.02-.52,2.05-1.02,3.06-1.56.49-.26.91-.26,1.4,0,1.02.55,2.07,1.06,3.11,1.58.14.07.29.11.51.19-.16-.96-.28-1.82-.44-2.68-.36-2.02-.36-2.02,1.1-3.46.65-.64,1.31-1.26,2.09-2.01Z"/>
</svg>