<?xml version="1.0" encoding="UTF-8"?>
<svg id="Layer_1" data-name="Layer 1" xmlns="http://www.w3.org/2000/svg" viewBox="0 0 48 48">
  <defs>
    <style>
      .cls-1 {
        fill: #000;
        stroke-width: 0px;
      }
    </style>
  </defs>
  <path class="cls-1" d="M34.08,32.26c.2,0,.39,0,.58,0,2.99,0,5.97,0,8.96,0,1.53,0,2.38.85,2.38,2.39,0,2.69,0,5.38,0,8.07,0,1.5-.86,2.36-2.37,2.36-3.46,0-6.92,0-10.37,0-1.53,0-2.4-.86-2.4-2.39,0-1.02,0-2.04,0-3.06,0-.03-.02-.05-.03-.09-6.58,3.22-13.11,3.24-19.44-.54-4.83-2.89-7.86-7.2-8.98-12.73C.09,14.82,8.07,4.47,18.96,3.09c6.26-.79,11.75,1.05,16.23,5.49,4.48,4.43,6.26,9.89,5.66,16.17.2.04.4.07.6.11,1.51.32,2.62,1.57,2.69,3.11.04.81,0,1.62,0,2.46h-1.29c0-.65-.03-1.28,0-1.91.08-1.53-1.01-2.5-2.44-2.43-1.37.06-2.75,0-4.12.01-1.43,0-2.28.86-2.28,2.3,0,1.24,0,2.48,0,3.72,0,.03.02.05.05.13ZM7.65,34.14c.09-.45.15-.8.22-1.15.4-2.03,1.34-3.63,3.42-4.31.68-.22,1.39-.39,2.1-.5,1.06-.17,2.14-.26,3.2-.43.56-.09,1.11-1.06.94-1.6-.02-.08-.09-.15-.16-.21-1.2-1.12-2.05-2.47-2.69-3.97-.06-.14-.16-.28-.28-.37-1.22-.94-1.79-2.66-1.21-4.08.28-.69.44-1.36.45-2.08,0-.18.04-.35.08-.53.46-2.58,1.74-4.56,4.18-5.67,1.57-.71,3.22-.83,4.9-.63,1.47.18,2.81.7,3.94,1.67,1.83,1.57,2.52,3.65,2.65,5.98.02.27.09.55.21.79.78,1.45.32,3.55-.98,4.52-.15.12-.29.3-.36.47-.64,1.46-1.48,2.79-2.65,3.89-.09.08-.18.21-.18.33-.03.89.43,1.44,1.32,1.57,1.99.29,4.05.27,5.94,1.32,0-.32,0-.56,0-.81.01-2.08,1.47-3.54,3.55-3.55.96,0,1.92,0,2.88,0,.27,0,.38-.07.41-.36.22-1.87.14-3.72-.22-5.56C37.18,7.84,25.38,1.36,14.92,5.46,3.66,9.88-.25,23.62,6.99,33.31c.19.26.4.5.66.83ZM32.7,32.25c0-.32-.03-.66,0-1,.04-.38-.13-.6-.42-.8-.84-.58-1.79-.82-2.78-.96-1.14-.17-2.28-.28-3.42-.46-.77-.12-1.36-.56-1.6-1.3-.21-.65-.31-1.34-.44-2.02-.02-.09.07-.23.14-.29,1.48-1.18,2.42-2.73,3.1-4.46.05-.13.18-.29.31-.33.96-.32,1.42-2.1.84-2.91-.34-.47-.36-.93-.37-1.44,0-.31-.04-.62-.08-.93-.34-2.41-1.53-4.18-3.88-5.06-1.13-.42-2.3-.5-3.49-.4-2.59.2-4.66,1.78-5.35,4.22-.25.87-.25,1.8-.38,2.71-.03.23-.1.49-.23.66-.7.91-.34,2.62.67,3.14.17.09.33.28.4.47.67,1.67,1.59,3.16,3.01,4.31.1.08.2.25.17.36-.13.69-.25,1.39-.47,2.06-.21.62-.7,1.03-1.35,1.16-.74.15-1.49.21-2.23.35-1.07.19-2.16.34-3.2.63-1.12.32-1.9,1.1-2.2,2.24-.24.91-.37,1.85-.58,2.77-.07.34.03.54.27.76,3.27,2.95,7.08,4.59,11.48,4.81,3.53.17,6.82-.65,9.89-2.39.24-.13.33-.28.32-.56-.02-.92,0-1.83,0-2.75,0-1.49.41-2.07,1.84-2.58ZM38.41,43.77c1.76,0,3.52,0,5.28,0,.71,0,.99-.29.99-1,0-2.72,0-5.44,0-8.16,0-.74-.28-1.02-1.02-1.02-3.49,0-6.98,0-10.46,0-.73,0-1.03.3-1.03,1.02,0,2.71,0,5.41,0,8.12,0,.76.3,1.04,1.05,1.05,1.73,0,3.46,0,5.19,0Z"/>
  <g>
    <path class="cls-1" d="M33.53,43.08s.07-.05.1-.08c1.2-1.2,2.41-2.4,3.61-3.61.46-.46.45-1.03-.01-1.49-1.19-1.19-2.38-2.38-3.57-3.57-.04-.04-.1-.08-.09-.07-.36.36-.7.7-1.05,1.05,1.1,1.09,2.22,2.21,3.4,3.38-1.15,1.13-2.29,2.26-3.41,3.37.35.35.68.69,1.03,1.03Z"/>
    <path class="cls-1" d="M39.42,42.1h4.93v-1.44h-4.93v1.44Z"/>
  </g>
</svg>