<?xml version="1.0" encoding="UTF-8"?>
<svg id="Layer_1" data-name="Layer 1" xmlns="http://www.w3.org/2000/svg" viewBox="0 0 48 48">
  <defs>
    <style>
      .cls-1 {
        fill: #000;
        stroke-width: 0px;
      }

      .cls-2 {
        fill: none;
        stroke: #000;
        stroke-miterlimit: 10;
      }
    </style>
  </defs>
  <path class="cls-1" d="M23.94,41.15c-5.75,0-11.5,0-17.25,0-3.22,0-4.68-1.47-4.69-4.69,0-6.03,0-12.07,0-18.1,0-2.99,1.49-4.47,4.5-4.47,4.24,0,8.48.03,12.72-.02,1.2-.02,1.66.37,1.59,1.58-.08,1.42,0,2.85-.03,4.27-.02.86.31,1.22,1.18,1.19,1.34-.04,2.69-.04,4.03,0,.86.02,1.22-.31,1.2-1.18-.03-1.55.02-3.1-.01-4.65-.02-.85.32-1.21,1.19-1.2,4.62.02,9.23-.03,13.85.03,2.14.03,3.73,1.65,3.74,3.8.04,6.54.04,13.07,0,19.61-.02,2.33-1.71,3.8-4.27,3.81-5.62.03-11.25,0-16.87.01-.29,0-.59,0-.88,0ZM23.99,39.04c5.92,0,11.84,0,17.76,0,1.61,0,2.14-.51,2.15-2.1.02-6.33.02-12.66,0-18.98,0-1.4-.52-1.95-1.89-1.96-4.37-.03-8.73,0-13.1-.02-.84,0-1.1.38-1.08,1.16.03.96,0,1.93,0,2.89,0,.95-.43,1.51-1.43,1.52-1.6,0-3.19,0-4.79,0-1,0-1.44-.54-1.45-1.5,0-.92-.05-1.85,0-2.77.06-1-.35-1.31-1.32-1.31-4.2.04-8.4,0-12.59.02-1.68,0-2.16.5-2.16,2.21-.01,6.16-.01,12.32,0,18.48,0,1.93.46,2.37,2.39,2.37,5.83,0,11.67,0,17.5,0ZM23.97,39.68c-5.88,0-11.75,0-17.63,0-2.04,0-2.97-.86-2.98-2.88-.03-6.16-.03-12.32,0-18.48,0-2.1.91-2.95,3.03-2.96,4.03,0,8.06,0,12.09,0,.34,0,.67,0,1.01-.01.26-.01.54-.05.56-.37.02-.33-.24-.4-.51-.42-.21-.02-.42-.02-.63-.02-4.24,0-8.48-.01-12.72,0-2.34.01-3.53,1.23-3.54,3.62-.01,6.24-.01,12.49,0,18.73,0,2.33,1.24,3.62,3.56,3.63,11.84.02,23.68.02,35.51,0,2.4,0,3.62-1.29,3.63-3.69.01-6.2.01-12.41,0-18.61,0-2.5-1.19-3.68-3.72-3.69-4.16-.01-8.31,0-12.47,0-.29,0-.59,0-.88.06-.13.03-.3.18-.33.31-.06.24.12.39.35.42.33.03.67.04,1,.04,4.16,0,8.31,0,12.47,0,1.88,0,2.83.87,2.84,2.75.04,6.2.04,12.41,0,18.61-.01,2.13-.92,2.96-3.03,2.96-5.88,0-11.75,0-17.63,0Z"/>
  <path class="cls-1" d="M26.35,13.66c0,1.8-.03,3.6,0,5.4.02.81-.34,1.09-1.12,1.15-3.44.27-3.61.13-3.61-3.26,0-2.89.03-5.78-.02-8.67-.02-1.01.3-1.44,1.36-1.43,4.1.06,3.29-.39,3.37,3.29.03,1.17,0,2.35,0,3.52ZM25.73,13.52c0-1.38,0-2.76,0-4.14q0-1.91-1.95-1.89c-.17,0-.34.01-.5,0-.77-.06-1.03.34-1.02,1.06.02,3.26.02,6.53,0,9.79,0,.82.35,1.15,1.14,1.1.25-.02.51-.03.75,0,1.17.15,1.68-.29,1.61-1.53-.09-1.46-.02-2.93-.02-4.39Z"/>
  <path class="cls-2" d="M13.54,36.53c1.84,0,3.69-.06,5.53.02,1.18.05,1.48-.46,1.31-1.51-.12-.78-.18-1.58-.31-2.36-.34-2.15-1.39-3.12-3.57-3.35-1.08-.11-1.56-.96-.9-1.81.59-.78,1.01-1.59,1.39-2.49.78-1.83.41-4.39-1.02-5.8-.43-.43-.95-.65-1.56-.72-2.51-.25-4.4,1.55-4.51,4.34-.06,1.67.8,3.01,1.71,4.29.38.53.59,1,.42,1.6-.18.66-.76.54-1.24.58-1.91.18-3.13,1.35-3.37,3.27-.12.91-.15,1.84-.33,2.74-.19.93.17,1.21,1.04,1.2,1.8-.03,3.6,0,5.41,0Z"/>
  <path class="cls-1" d="M28.01,35.92c.06-.18.12-.37.18-.55.59-1.81,1.17-3.61,1.76-5.42.04-.12.03-.18-.08-.26-1.66-1.2-3.31-2.4-4.96-3.6-.04-.03-.08-.06-.16-.13.1,0,.16,0,.22,0,2.03,0,4.07,0,6.1,0,.13,0,.19-.04.23-.17.63-1.95,1.26-3.9,1.9-5.85.01-.04.03-.07.06-.15.09.27.17.51.25.74.57,1.76,1.14,3.52,1.71,5.28.04.11.08.14.2.14,2.05,0,4.1,0,6.15,0,.05,0,.1,0,.15,0,0,.01,0,.02,0,.03-.14.1-.27.2-.41.3-1.55,1.13-3.11,2.26-4.67,3.39-.1.07-.13.13-.09.26.63,1.93,1.26,3.86,1.88,5.79.02.06.04.13.03.21-.24-.17-.48-.34-.71-.51-1.45-1.06-2.91-2.11-4.36-3.17-.1-.07-.17-.09-.28,0-1.66,1.21-3.33,2.42-4.99,3.63-.02.02-.05.03-.08.05-.01,0-.02-.01-.03-.02ZM27,26.68s0,.02-.01.04c.07.05.13.1.2.15,1.18.85,2.35,1.71,3.53,2.56.09.06.12.12.08.23-.37,1.12-.73,2.23-1.09,3.35-.11.35-.22.69-.35,1.09.09-.07.15-.1.2-.14,1.18-.86,2.36-1.71,3.54-2.58.13-.09.2-.08.32,0,1.18.86,2.37,1.72,3.55,2.59.05.03.1.06.18.12-.03-.09-.04-.14-.06-.19-.46-1.4-.91-2.8-1.37-4.2-.03-.09-.07-.17.05-.26.96-.68,1.91-1.38,2.86-2.07.3-.22.6-.44.92-.67-.07,0-.1-.01-.14-.01-1.51,0-3.02,0-4.52,0-.09,0-.15-.01-.18-.12-.39-1.2-.78-2.41-1.17-3.61-.09-.27-.18-.54-.28-.85-.03.08-.05.12-.07.17-.46,1.42-.93,2.84-1.38,4.27-.04.11-.08.14-.2.14-1.41,0-2.82,0-4.22,0-.13,0-.26,0-.39,0Z"/>
</svg>