<?xml version="1.0" encoding="utf-8"?>
<!-- Generator: Adobe Illustrator 28.4.1, SVG Export Plug-In . SVG Version: 6.00 Build 0)  -->
<svg version="1.1" id="Layer_1" xmlns="http://www.w3.org/2000/svg" xmlns:xlink="http://www.w3.org/1999/xlink" x="0px" y="0px"
	 viewBox="0 0 120 120" style="enable-background:new 0 0 120 120;" xml:space="preserve">
<style type="text/css">
	.st0{fill:#FFFFFF;}
</style>
<path d="M95.8,99.3c-16.8,4.1-32.4,11.1-48.1,18.5c0-0.7,0-1.2,0-1.6c0-5.7,0-11.4,0-17.2c0-2.8-0.6-3.3-3.4-3.5
	c-2.7-0.2-5.4-0.5-8.1-0.7c-3.1-0.3-5.3-2-7-4.4c-3.6-4.9-5.6-10.4-7.1-16.2c-0.4-1.7-1.1-2.3-2.9-2.4c-1.8-0.2-3.6-0.3-5.4-0.5
	c-4.1-0.6-6.2-3.9-4.8-7.8c1.1-3.2,2.4-6.4,4-9.4c3.7-7.2,6.4-14.7,8.6-22.5c1-3.8,2.5-7.7,4.4-11.2c4-7.5,10.6-12.2,18.5-14.9
	C57.4,0.7,70.5,1.4,83.5,6c6.3,2.2,11.8,5.6,16.5,10.4c5.5,5.6,9.1,12.3,10.4,20.1c2.2,12.1,1,23.9-4.1,35.2
	c-2.4,5.2-5.7,9.9-10.1,13.7c-1.1,1-1.6,2.2-1.4,3.7C95.2,92.3,95.4,95.7,95.8,99.3z M94.6,63.1c0-3.9,0-7.7,0-11.6
	c0-1.8-0.4-2.2-2.2-2.2c-7.7,0-15.5,0-23.2,0c-1.9,0-2.2,0.4-2.2,2.1c0,7.7,0,15.5,0,23.2c0,1.9,0.3,2.3,2.2,2.3
	c7.7,0,15.4,0,23.1,0c2,0,2.3-0.4,2.3-2.4C94.6,70.7,94.6,66.9,94.6,63.1z M36,32.1c0,4,0,8,0,12c0,1.5,0.4,2,2,2
	c7.9,0,15.8,0,23.6,0c1.6,0,2.1-0.5,2.1-2.1c0-7.8,0-15.7,0-23.5c0-1.7-0.5-2.1-2.1-2.1c-7.8,0-15.6,0-23.4,0
	c-1.8,0-2.2,0.4-2.2,2.2C36,24.4,36,28.3,36,32.1z M36,63.1c0,3.8,0,7.6,0,11.5c0,2,0.3,2.4,2.3,2.4c7.7,0,15.4,0,23.1,0
	c1.9,0,2.3-0.4,2.3-2.3c0-7.7,0-15.4,0-23.1c0-1.9-0.4-2.3-2.3-2.3c-7.7,0-15.5,0-23.2,0c-1.8,0-2.2,0.4-2.2,2.2
	C36,55.3,36,59.2,36,63.1z M67,32.3c0,3.9,0,7.8,0,11.8c0,1.7,0.4,2.1,2,2.1c7.8,0,15.7,0,23.5,0c1.6,0,2.1-0.4,2.1-2
	c0-7.8,0-15.7,0-23.5c0-1.7-0.4-2.1-2.1-2.1c-7.8,0-15.6,0-23.4,0c-1.8,0-2.1,0.4-2.1,2.1C67,24.4,67,28.4,67,32.3z"/>
<path class="st0" d="M94.6,63.1c0,3.8,0,7.6,0,11.5c0,2-0.4,2.4-2.3,2.4c-7.7,0-15.4,0-23.1,0c-1.9,0-2.2-0.3-2.2-2.3
	c0-7.7,0-15.5,0-23.2c0-1.8,0.4-2.1,2.2-2.1c7.7,0,15.5,0,23.2,0c1.8,0,2.2,0.4,2.2,2.2C94.6,55.3,94.6,59.2,94.6,63.1z M82.4,66.9
	c0-1.8,0.9-2.9,2.1-3.8c0.7-0.5,1.3-1.2,1.8-1.9c2.1-3,0.7-7-2.8-7.8c-1.6-0.4-3.5-0.3-5.2,0.1c-2.3,0.5-3.6,2.8-3.2,5.1
	c0.6,0,1.2,0,1.9,0c1,0.1,1.8,0.1,2.2-1.2c0.1-0.5,1-1,1.6-1.1c0.7,0,1.6,0.3,2,0.8c0.6,0.9,0.6,2-0.2,3c-0.7,0.8-1.5,1.6-2.3,2.4
	c-1.1,1.2-1.7,2.7-1.4,4.4C80.2,66.9,81.3,66.9,82.4,66.9z M80.8,73.1c1.3,0,2.2-0.8,2.2-2c0-1.1-1-2-2.2-2.1
	c-1.2,0-2.3,0.9-2.3,2.1C78.6,72.3,79.5,73.1,80.8,73.1z"/>
<path class="st0" d="M36,32.1c0-3.8,0-7.6,0-11.5c0-1.8,0.4-2.2,2.2-2.2c7.8,0,15.6,0,23.4,0c1.7,0,2.1,0.5,2.1,2.1
	c0,7.8,0,15.7,0,23.5c0,1.6-0.5,2.1-2.1,2.1c-7.9,0-15.8,0-23.6,0c-1.5,0-2-0.5-2-2C36,40.1,36,36.1,36,32.1z M44.2,27.6
	c0.5,0,1,0,1.4,0c1.2,0,2.5,0.3,2.9-1.5c0-0.2,0.5-0.6,0.7-0.6c0.9,0,2-0.1,2.5,0.4c0.9,0.8,0.8,2.2,0.1,3.2
	c-0.6,0.9-1.5,1.6-2.2,2.4c-1.2,1.2-1.6,2.7-1.5,4.6c1.1,0,2,0,3,0c0.2,0,0.7-0.2,0.7-0.3c0.1-2.3,2-3.3,3.3-4.8
	c2.6-3.1,1.5-7.5-2.2-8.4c-1.7-0.4-3.6-0.3-5.3,0.1C45.2,23,44.1,25.1,44.2,27.6z M49.8,42.2c1.3,0,2.2-0.8,2.2-1.9
	c0-1.1-1-2.1-2.2-2.1c-1.2,0-2.2,0.9-2.2,2C47.6,41.3,48.5,42.2,49.8,42.2z"/>
<path class="st0" d="M36,63.1c0-3.9,0-7.7,0-11.6c0-1.8,0.4-2.2,2.2-2.2c7.7,0,15.5,0,23.2,0c1.8,0,2.3,0.4,2.3,2.3
	c0,7.7,0,15.4,0,23.1c0,1.8-0.4,2.2-2.3,2.3c-7.7,0-15.4,0-23.1,0c-2,0-2.3-0.3-2.3-2.4C36,70.7,36,66.9,36,63.1z M56.7,73
	c-0.4-2.4-0.7-4.4-1.1-6.4c-0.2-0.9,0-1.5,0.7-2.2c1.5-1.4,2.8-3,4.3-4.6c-1.6-0.2-3.3-0.6-5.1-0.7c-1.7-0.1-2.7-0.8-3.3-2.3
	c-0.6-1.6-1.6-3.1-2.5-4.9c-1.1,2.1-2,4-2.9,5.9c-0.3,0.8-0.8,1.1-1.6,1.2c-2.1,0.3-4.1,0.6-6,0.9c1.4,1.6,2.8,3.2,4.3,4.7
	c0.6,0.6,0.8,1.1,0.6,1.9c-0.5,2.1-0.8,4.1-1.2,6.5c2.2-1.1,4.1-2,5.9-3c0.7-0.4,1.3-0.4,2,0C52.7,70.9,54.5,71.8,56.7,73z"/>
<path class="st0" d="M67,32.3c0-3.9,0-7.8,0-11.8c0-1.7,0.4-2.1,2.1-2.1c7.8,0,15.6,0,23.4,0c1.7,0,2.1,0.4,2.1,2.1
	c0,7.8,0,15.7,0,23.5c0,1.6-0.4,2-2.1,2c-7.8,0-15.7,0-23.5,0c-1.6,0-2-0.4-2-2.1C67,40.1,67,36.2,67,32.3z M80.9,27.2
	c-1.2-0.8-2.2-1.7-3.3-2.3c-2.2-1-4.9-0.1-6.2,1.9c-1.4,2-1.2,4.7,0.5,6.5c2.8,2.9,5.7,5.7,8.6,8.6c0.1,0.1,0.2,0.1,0.6,0.2
	c0.9-0.9,1.7-1.9,2.7-2.9c1.9-1.9,3.9-3.8,5.7-5.8c2-2.2,2-5.5,0-7.4c-2-2-5.1-2.1-7.4-0.1C81.7,26.4,81.3,26.9,80.9,27.2z"/>
<path d="M82.4,66.9c-1.2,0-2.2,0-3.4,0c-0.2-1.7,0.3-3.2,1.4-4.4c0.7-0.8,1.6-1.6,2.3-2.4c0.8-0.9,0.8-2.1,0.2-3
	c-0.3-0.5-1.3-0.9-2-0.8c-0.6,0-1.4,0.6-1.6,1.1c-0.4,1.3-1.2,1.3-2.2,1.2c-0.6,0-1.3,0-1.9,0c-0.4-2.3,1-4.6,3.2-5.1
	c1.7-0.4,3.5-0.5,5.2-0.1c3.5,0.8,4.9,4.9,2.8,7.8c-0.5,0.7-1.1,1.4-1.8,1.9C83.4,64,82.5,65.1,82.4,66.9z"/>
<path d="M80.8,73.1c-1.3,0-2.2-0.8-2.2-1.9c0-1.2,1-2.1,2.3-2.1c1.2,0,2.1,0.9,2.2,2.1C83,72.3,82.1,73.1,80.8,73.1z"/>
<path d="M44.2,27.6c-0.1-2.5,1.1-4.5,3.3-5c1.7-0.4,3.6-0.5,5.3-0.1c3.7,0.9,4.8,5.3,2.2,8.4c-1.3,1.5-3.1,2.5-3.3,4.8
	c0,0.1-0.4,0.3-0.7,0.3c-1,0-1.9,0-3,0c-0.1-1.8,0.3-3.3,1.5-4.6c0.8-0.8,1.6-1.6,2.2-2.4c0.7-1,0.8-2.3-0.1-3.2
	c-0.5-0.5-1.6-0.3-2.5-0.4c-0.2,0-0.7,0.3-0.7,0.6c-0.3,1.8-1.7,1.5-2.9,1.5C45.2,27.6,44.7,27.6,44.2,27.6z"/>
<path d="M49.8,42.2c-1.3,0-2.2-0.9-2.1-2c0-1.1,1-2,2.2-2c1.2,0,2.2,1,2.2,2.1C52,41.4,51,42.2,49.8,42.2z"/>
<path d="M56.7,73c-2.2-1.1-4-2-5.9-3c-0.7-0.4-1.3-0.4-2,0c-1.9,1-3.7,1.9-5.9,3c0.4-2.4,0.8-4.5,1.2-6.5c0.2-0.8,0-1.3-0.6-1.9
	c-1.5-1.5-2.8-3.1-4.3-4.7c1.9-0.3,3.9-0.7,6-0.9c0.8-0.1,1.3-0.4,1.6-1.2c0.9-1.9,1.8-3.7,2.9-5.9c0.9,1.8,1.8,3.3,2.5,4.9
	c0.6,1.6,1.6,2.2,3.3,2.3c1.7,0.1,3.4,0.5,5.1,0.7c-1.5,1.6-2.8,3.1-4.3,4.6c-0.7,0.7-0.9,1.3-0.7,2.2C56.1,68.6,56.3,70.6,56.7,73z
	"/>
<path d="M80.9,27.2c0.4-0.4,0.8-0.8,1.3-1.2c2.3-2,5.3-1.9,7.4,0.1c1.9,1.9,2,5.2,0,7.4c-1.9,2-3.8,3.9-5.7,5.8
	c-0.9,1-1.8,2-2.7,2.9c-0.3-0.1-0.5-0.1-0.6-0.2c-2.9-2.9-5.8-5.7-8.6-8.6c-1.7-1.8-1.9-4.5-0.5-6.5c1.3-2,4.1-2.9,6.2-1.9
	C78.7,25.5,79.7,26.4,80.9,27.2z"/>
</svg>
