<?xml version="1.0" encoding="utf-8"?>
<!-- Generator: Adobe Illustrator 28.4.1, SVG Export Plug-In . SVG Version: 6.00 Build 0)  -->
<svg version="1.1" id="Layer_1" xmlns="http://www.w3.org/2000/svg" xmlns:xlink="http://www.w3.org/1999/xlink" x="0px" y="0px"
	 viewBox="0 0 128 128" style="enable-background:new 0 0 128 128;" xml:space="preserve">
<style type="text/css">
	.st0{fill:#663399;stroke:url(#SVGID_1_);stroke-miterlimit:10;}
	.st1{fill:#FFFFFF;}
</style>
<g>
	<linearGradient id="SVGID_1_" gradientUnits="userSpaceOnUse" x1="99.3585" y1="30.241" x2="28.6415" y2="97.759">
		<stop  offset="0" style="stop-color:#FFF5A8"/>
		<stop  offset="0.3123" style="stop-color:#BD8100"/>
		<stop  offset="0.7592" style="stop-color:#E0BE58"/>
		<stop  offset="1" style="stop-color:#F1DC83"/>
	</linearGradient>
	<path class="st0" d="M72.1,16.9L72.1,16.9c2.5,1.6,5.5,2.4,8.5,2.3l0,0c5.8-0.2,11.2,3,14,8.1v0c1.4,2.6,3.6,4.8,6.2,6.2l0,0
		c5.1,2.8,8.2,8.2,8.1,14l0,0c-0.1,3,0.7,5.9,2.3,8.5l0,0c3,4.9,3,11.2,0,16.1h0c-1.6,2.5-2.4,5.5-2.3,8.5l0,0
		c0.2,5.8-3,11.2-8.1,14l0,0c-2.6,1.4-4.8,3.6-6.2,6.2v0c-2.8,5.1-8.2,8.2-14,8.1l0,0c-3-0.1-5.9,0.7-8.5,2.3h0
		c-4.9,3-11.2,3-16.1,0l0,0c-2.5-1.6-5.5-2.4-8.5-2.3l0,0c-5.8,0.2-11.2-3-14-8.1v0c-1.4-2.6-3.6-4.8-6.2-6.2l0,0
		c-5.1-2.8-8.2-8.2-8.1-14l0,0c0.1-3-0.7-5.9-2.3-8.5l0,0c-3-4.9-3-11.2,0-16.1v0c1.6-2.5,2.4-5.5,2.3-8.5l0,0
		c-0.2-5.8,3-11.2,8.1-14l0,0c2.6-1.4,4.8-3.6,6.2-6.2v0c2.8-5.1,8.2-8.2,14-8.1l0,0c3,0.1,5.9-0.7,8.5-2.3l0,0
		C60.9,13.9,67.1,13.9,72.1,16.9z"/>
	<g>
		<path class="st1" d="M63.8,22.1c4.7,0,9.1,0.5,13.3,1.9c4.9,1.6,9.5,4,13.5,7.3c3.7,3,6.8,6.5,9.3,10.6c2.8,4.5,4.6,9.3,5.5,14.5
			c0.6,3.2,0.7,6.5,0.6,9.8c-0.2,5.4-1.6,10.5-3.9,15.4c-2.2,4.8-5.2,9-9.1,12.6c-6.3,5.9-13.6,9.7-22.1,11.1c-3,0.5-6,0.7-8.9,0.5
			c-5.6-0.3-11-1.5-16-3.9c-4.6-2.2-8.7-5-12.2-8.6C28,87.2,24.2,80,22.6,71.6c-0.5-2.8-0.8-5.7-0.7-8.6C22,57.9,23,52.8,25,48
			c1.9-4.5,4.5-8.6,7.8-12.2c2.4-2.6,5.1-5,8.1-6.9c3.2-2.2,6.8-3.7,10.5-4.8c2.6-0.8,5.2-1.3,7.9-1.6
			C60.8,22.2,62.4,22.1,63.8,22.1z M103.7,64c0-2.8-0.2-5.6-0.8-8.3c-1.8-8.2-5.8-15.2-12-20.9c-3.1-2.8-6.6-5.1-10.4-6.8
			c-4.8-2.2-9.8-3.3-15-3.5c-3-0.1-6,0.1-9,0.7c-3.9,0.7-7.5,2-11,3.8c-2.9,1.5-5.6,3.4-8,5.6c-3.4,3.1-6.2,6.7-8.4,10.7
			c-2.9,5.3-4.3,11.1-4.5,17.1c-0.1,3,0.1,6,0.7,9c1.7,8.1,5.5,15.1,11.4,20.9c2.8,2.7,6,5,9.5,6.7c6.2,3.1,12.8,4.5,19.8,4.2
			c2.2-0.1,4.5-0.4,6.7-0.8c5.4-1.1,10.2-3.3,14.7-6.5c4.1-2.9,7.5-6.6,10.3-10.8C101.6,78.7,103.7,71.7,103.7,64z"/>
		<path class="st1" d="M66.9,54.8c-2.2,0-4.4,0-6.6,0c-0.5,0-0.9,0-1.4-0.2c-0.3-0.1-0.5,0-0.7,0.1c-0.6,0.5-1.3,1-1.9,1.4
			c-0.5,0.4-1.2,0.5-1.8,0.2c-0.6-0.3-0.8-0.9-0.8-1.6c0-1.8,0-3.5,0-5.3c0-0.3-0.1-0.5-0.4-0.6c-2.1-0.5-3.4-2.2-3.4-4.3
			c0-2.8,0-5.6,0-8.3c0-2.2,1.5-3.9,3.6-4.3c0.2,0,0.5-0.1,0.7-0.1c3.6,0,7.3,0,10.9,0c2.6,0,4.6,1.9,4.6,4.5c0,0.3,0,0.6,0,0.9
			c0,0.4,0.1,0.5,0.5,0.5c1.2,0,2.3,0,3.5,0c2.5,0,4.2,1.7,4.3,4.2c0,2.6,0,5.3,0.1,7.9c0,1-0.1,2-0.8,2.9c-0.8,1.2-2,1.9-3.5,1.9
			C71.5,54.8,69.2,54.8,66.9,54.8z M69.5,44.2C69.5,44.2,69.5,44.2,69.5,44.2c0.9,0,1.9,0,2.8,0c0.3,0,0.4,0.1,0.3,0.4
			c-0.3,1-0.8,2-1.3,2.9c-0.3,0.5-0.3,0.4-0.6,0c-0.3-0.5-0.6-1-0.9-1.5c-0.2-0.2-0.4-0.3-0.7-0.2c-0.3,0.1-0.3,0.3-0.3,0.6
			c0,0.3,0.1,0.5,0.2,0.7c0.3,0.5,0.6,0.9,0.9,1.3c0.2,0.2,0.2,0.3-0.1,0.5c-0.2,0.1-0.5,0.3-0.7,0.4c-0.5,0.3-1,0.6-1.5,0.9
			c-0.2,0.1-0.4,0.3-0.3,0.7c0.1,0.3,0.4,0.3,0.6,0.3c0.2,0,0.4-0.1,0.7-0.2c0.7-0.3,1.4-0.8,2-1.3c0.2-0.1,0.3-0.2,0.5,0
			c0.6,0.6,1.3,1,2.1,1.3c0.2,0.1,0.4,0.2,0.7,0.2c0.2,0,0.4-0.1,0.5-0.3c0.1-0.2,0-0.4-0.2-0.6C74.1,50.1,74,50,73.8,50
			c-0.6-0.4-1.2-0.7-1.8-1.1c-0.3-0.1-0.3-0.3-0.1-0.5c1-1.1,1.7-2.3,2-3.8c0.1-0.3,0.2-0.4,0.5-0.4c0.3,0,0.5,0,0.8,0
			c0.4,0,0.6-0.2,0.6-0.6c0-0.4-0.3-0.5-0.6-0.5c-1.1,0-2.1,0-3.2,0c-0.3,0-0.4-0.1-0.4-0.4c0-0.3,0-0.6,0-0.9
			c0-0.4-0.2-0.6-0.6-0.6c-0.3,0-0.6,0.2-0.6,0.6c0,0.3,0,0.6,0,0.8c0,0.4-0.1,0.5-0.5,0.5c-1,0-2,0-3,0c-0.3,0-0.6,0.1-0.6,0.5
			c0,0.4,0.3,0.5,0.7,0.5C67.7,44.2,68.6,44.2,69.5,44.2z M61.5,44c0.7,0,0.8-0.2,0.6-0.8c-0.9-2.4-1.8-4.9-2.7-7.3
			c-0.1-0.3-0.3-0.7-0.7-0.6c-0.5,0.1-1-0.1-1.3,0.6c-0.6,1.7-1.2,3.3-1.8,5c-0.3,0.8-0.6,1.6-0.9,2.4c-0.1,0.2-0.1,0.5,0.2,0.6
			c0.4,0.2,0.9,0,1.1-0.4c0.2-0.5,0.4-0.9,0.5-1.4c0.1-0.3,0.2-0.4,0.5-0.4c0.9,0,1.8,0,2.7,0c0.3,0,0.4,0.1,0.5,0.4
			c0.1,0.4,0.3,0.8,0.5,1.3C60.8,43.8,61.1,44,61.5,44z M60.7,49.4c0-0.6,0-0.6,0.6-0.6c0.8,0,1.5,0,2.3,0c0.9,0,0.9,0,1,0.9
			c0,0,0,0.1,0,0.1c0.1,0.3,0.3,0.4,0.5,0.2c0.6-0.5,1.2-1,1.8-1.7c0.2-0.2,0.1-0.3-0.1-0.5c-0.4-0.4-0.8-0.8-1.2-1.2
			c-0.2-0.2-0.5-0.5-0.8-0.3c-0.3,0.2-0.2,0.5-0.2,0.8c0,0,0,0.1,0,0.1c0,0.2-0.1,0.3-0.3,0.3c-1.1,0-2.1,0-3.2,0
			c-0.2,0-0.3-0.1-0.3-0.3c0-0.1,0-0.3,0-0.4c0-0.2,0-0.4-0.2-0.5c-0.2-0.1-0.4,0-0.6,0.1c-0.5,0.4-0.9,0.9-1.4,1.3
			c-0.2,0.2-0.2,0.5,0,0.7c0.5,0.5,1,1,1.5,1.5c0.3,0.3,0.5,0.1,0.6-0.3C60.7,49.6,60.7,49.5,60.7,49.4z"/>
		<path class="st1" d="M39.4,64c-0.3,1-0.7,2-1,3c-0.3,0.9-0.6,1.8-0.9,2.7c-0.1,0.3-0.2,0.4-0.5,0.4c-1,0-1,0-1.4-0.9
			c-0.6-1.7-1.2-3.4-1.9-5.2c0,0.2,0,0.5,0,0.7c0.1,1.6,0,3.2,0.1,4.8c0,0.4-0.1,0.6-0.5,0.5c-1.3,0-1.1,0.2-1.1-1.1
			c0-2.3,0-4.6,0-6.9c0-0.6,0-0.6,0.6-0.6c0.4,0,0.8,0,1.3,0c0.4,0,0.6,0.1,0.7,0.5c0.6,1.8,1.2,3.6,1.9,5.4c0,0.1,0.1,0.2,0.2,0.5
			c0.3-0.8,0.5-1.4,0.7-2.1c0.4-1.3,0.9-2.6,1.3-3.9c0.1-0.3,0.3-0.4,0.6-0.4c0.5,0,1,0,1.5,0c0.3,0,0.4,0.1,0.4,0.4
			c0,2.6,0,5.1,0,7.7c0,0.3-0.1,0.4-0.4,0.4c-1.5,0-1.3,0.2-1.3-1.2C39.4,67.3,39.4,65.7,39.4,64C39.4,64.1,39.4,64,39.4,64z"/>
		<path class="st1" d="M76.9,64.4c0.1-0.1,0.1-0.2,0.1-0.3c0-0.3,0.1-0.4,0.4-0.4c1.5,0,1.2-0.2,1.2,1.1c0,1.7,0.1,3.4-0.1,5.1
			c-0.1,1.9-1.5,2.9-3.3,2.8c-0.9,0-1.7-0.3-2.3-1c-0.1-0.1-0.1-0.2-0.2-0.3c-0.4-0.7-0.3-0.9,0.5-1c0.4,0,0.6,0,0.9,0.3
			c0.4,0.5,1.1,0.5,1.7,0.3c0.5-0.2,0.9-0.6,0.9-1.1c0-0.3,0.1-0.5,0.1-0.8c-0.1-0.1-0.2,0-0.2,0c-1.1,1.1-3.1,0.6-3.9-0.6
			c-0.8-1.3-0.6-3.5,0.4-4.4c1-1,2.5-1,3.5,0C76.8,64.3,76.8,64.3,76.9,64.4z M76.9,66.8c0-0.5-0.1-0.9-0.4-1.3
			c-0.3-0.5-0.8-0.6-1.4-0.5c-0.5,0.1-0.8,0.4-1,0.8c-0.3,0.7-0.2,1.3,0.1,2c0.3,0.6,0.9,0.8,1.5,0.7C76.4,68.3,76.9,67.7,76.9,66.8
			z"/>
		<path class="st1" d="M53.5,74.3c0.9,0,1.8,0.2,2.4,0.9c0.3,0.4,0.5,0.8,0.6,1.3c0,0.2,0,0.4-0.3,0.4c-0.2,0-0.5,0-0.7,0
			c-0.4,0.1-0.7,0-0.8-0.5c-0.1-0.3-0.3-0.5-0.6-0.6c-0.5-0.2-1-0.2-1.6,0c-0.3,0.1-0.5,0.4-0.5,0.7c0,0.4,0.1,0.6,0.4,0.8
			c0.4,0.2,0.9,0.3,1.3,0.4c0.6,0.1,1.2,0.3,1.7,0.6c1.6,0.9,1.6,3.1,0.1,4.1c-1.5,0.9-3.7,0.7-4.9-0.5c-0.4-0.4-0.6-0.9-0.6-1.5
			c0-0.3,0.1-0.4,0.4-0.4c0.1,0,0.3,0,0.4,0c0.5-0.1,0.8,0,1,0.6c0.3,0.9,2,1.2,2.7,0.5c0.4-0.4,0.4-1.1-0.2-1.4
			c-0.4-0.2-0.9-0.3-1.3-0.5c-0.5-0.1-1.1-0.3-1.5-0.6c-1.6-0.8-1.8-2.9-0.4-3.9C51.9,74.5,52.4,74.3,53.5,74.3z"/>
		<path class="st1" d="M66.3,82.4c0,0.8,0,1.7,0,2.5c0,0.3-0.1,0.5-0.5,0.5c-1.3,0-1.2,0.2-1.2-1.2c0-2.3,0-4.6,0-6.9
			c0-0.6,0-0.6,0.6-0.6c0.1,0,0.2,0,0.3,0c0.4,0,0.7,0,0.6,0.6c0.5-0.5,1-0.7,1.6-0.8c1.8-0.1,2.8,1.3,3,2.7
			c0.1,0.5,0.1,1.1-0.1,1.6C70.3,83.1,67.7,83.8,66.3,82.4z M69.2,79.9c0-0.3,0-0.6-0.1-0.9c-0.2-0.6-0.6-0.9-1.2-1
			c-0.6-0.1-1.1,0.1-1.4,0.7c-0.3,0.7-0.4,1.5,0,2.2c0.3,0.6,0.7,0.8,1.3,0.8c0.6,0,1-0.3,1.2-0.8C69.2,80.5,69.2,80.2,69.2,79.9z"
			/>
		<path class="st1" d="M39.6,74.4c1.2,0,0.9-0.1,1.3,0.9c0.9,2.4,1.7,4.7,2.5,7.1c0.2,0.6,0.2,0.6-0.4,0.6c-1.4,0-1.1,0.3-1.5-1.1
			C41.3,81,41.3,81,40.4,81c-0.7,0-1.3,0-2,0c-0.3,0-0.4,0.1-0.5,0.4c-0.1,0.4-0.3,0.8-0.4,1.3C37.4,82.9,37.3,83,37,83
			c-0.3,0-0.6,0-1,0c-0.3,0-0.4-0.1-0.3-0.4c0.6-1.5,1.1-3.1,1.7-4.7c0.3-1,0.7-2,1-2.9c0.1-0.5,0.4-0.7,0.9-0.6
			C39.4,74.4,39.5,74.4,39.6,74.4z M39.7,76.2C39.6,76.2,39.6,76.2,39.7,76.2c-0.4,1-0.8,2-1.1,3c-0.1,0.2,0,0.3,0.2,0.3
			c0.6,0,1.1,0,1.7,0c0.2,0,0.3-0.1,0.2-0.3C40.4,78.3,40,77.3,39.7,76.2z"/>
		<path class="st1" d="M73.4,82.4c0,0.9,0,1.7,0,2.5c0,0.3-0.1,0.5-0.5,0.5c-1.4,0-1.1,0.2-1.1-1.1c0-2.4,0-4.7,0-7.1
			c0-0.4,0.1-0.6,0.5-0.5c0.1,0,0.3,0,0.4,0c0.6,0,0.6,0,0.7,0.6c0.8-0.8,1.8-0.9,2.8-0.5c1.2,0.5,1.7,1.5,1.7,2.7
			c0.1,1.3-0.2,2.4-1.3,3.2c-0.7,0.6-2.4,0.7-3.1-0.2C73.6,82.4,73.5,82.4,73.4,82.4z M73.4,79.8c0,0.2,0,0.3,0,0.5
			c0.1,0.8,0.6,1.3,1.4,1.4c0.8,0,1.3-0.4,1.5-1.3c0.1-0.5,0.1-1-0.1-1.5C76,78.3,75.6,78,75,78c-0.7,0-1.1,0.2-1.4,0.9
			C73.5,79.1,73.4,79.5,73.4,79.8z"/>
		<path class="st1" d="M91.1,69.4c-0.9,0.8-1.8,1-2.9,0.7c-0.8-0.3-1.3-0.8-1.4-1.7c-0.1-0.7,0.4-1.4,1.1-1.8
			c0.7-0.3,1.4-0.4,2.1-0.5c0.2,0,0.3-0.1,0.5-0.1c0.2-0.1,0.4-0.1,0.4-0.4c0-0.2,0-0.5-0.2-0.6c-0.6-0.5-1.6-0.2-1.9,0.5
			c-0.1,0.2-0.2,0.3-0.5,0.3c-0.2,0-0.5,0-0.7-0.1c-0.5-0.1-0.5-0.1-0.4-0.6c0.2-0.7,0.6-1.2,1.3-1.4c0.8-0.3,1.7-0.3,2.6,0
			c0.9,0.3,1.4,1,1.5,2c0.1,1.4-0.1,2.7,0.1,4.1c0,0.2-0.1,0.3-0.3,0.3c-0.2,0-0.4,0-0.7,0C91.3,70.1,91,70,91.1,69.4z M89.5,68.9
			c1,0,1.6-0.7,1.5-1.5c0-0.1,0-0.3-0.2-0.2c-0.6,0.1-1.2,0.2-1.8,0.4c-0.3,0.1-0.4,0.3-0.4,0.7c0,0.3,0.2,0.5,0.5,0.6
			C89.3,68.9,89.4,68.9,89.5,68.9z"/>
		<path class="st1" d="M85,79.8c0,1.9-1,3.1-2.8,3.3c-1.8,0.2-3.3-1.1-3.4-2.9c-0.1-1.1,0.1-2.2,1-3c1-0.9,2.3-1,3.5-0.4
			C84.4,77.3,85,78.4,85,79.8z M80.4,79.9c0,0.1,0,0.3,0,0.5c0.1,0.7,0.5,1.1,1.1,1.3c0.6,0.1,1.3-0.1,1.5-0.6
			c0.4-0.7,0.4-1.4,0.1-2.2c-0.2-0.6-0.7-0.9-1.4-0.9c-0.6,0-1.1,0.3-1.3,1C80.5,79.2,80.4,79.5,80.4,79.9z"/>
		<path class="st1" d="M46.6,69.4c-0.5,0.5-1,0.7-1.7,0.8c-1.5,0.1-2.4-0.7-2.5-2.2c-0.1-1.3,0-2.6,0-3.9c0-0.3,0.1-0.4,0.4-0.4
			c1.5,0,1.2-0.1,1.2,1.1c0,0.9,0,1.8,0,2.7c0,0.8,0.4,1.2,1.2,1.3c0.6,0,1.3-0.6,1.3-1.2c0-1.1,0-2.2,0-3.3c0-0.4,0.1-0.6,0.5-0.6
			c1.3,0,1.1-0.1,1.1,1.1c0,1.6,0,3.2,0,4.8c0,0.4-0.1,0.5-0.5,0.5c-0.2,0-0.3,0-0.5,0C46.9,70.1,46.5,70.1,46.6,69.4z"/>
		<path class="st1" d="M84,69.4c-0.4,0.4-0.8,0.7-1.4,0.8c-1.5,0.3-2.7-0.6-2.8-2.1c0-1.3,0-2.6,0-3.9c0-0.3,0.1-0.4,0.4-0.4
			c0,0,0,0,0,0c1.4,0,1.2-0.2,1.2,1.1c0,0.9,0,1.8,0,2.6c0,1.1,0.9,1.7,1.9,1.1c0.5-0.3,0.7-0.8,0.7-1.3c0-1,0-2.1,0-3.1
			c0-0.4,0.1-0.6,0.5-0.6c1.3,0,1.1-0.1,1.1,1.1c0,1.5,0,3.1,0,4.6c0,0.6,0,0.6-0.6,0.6c-0.1,0-0.1,0-0.2,0
			C84.1,70.1,84.1,70.1,84,69.4z"/>
		<path class="st1" d="M67.1,64.4c0.7-0.9,1.6-1,2.5-0.8c1.1,0.2,1.7,1,1.7,2.4c0.1,1.2,0,2.5,0,3.7c0,0.3-0.1,0.4-0.4,0.4
			c-1.4,0-1.2,0.2-1.2-1.1c0-0.8,0-1.5,0-2.3c0-0.2,0-0.4-0.1-0.6c-0.1-0.7-0.5-1-1.2-1c-0.7,0-1.2,0.4-1.3,1
			c-0.1,0.7,0,1.4-0.1,2.2c0,0.5,0,1,0,1.6c0,0.3-0.1,0.3-0.4,0.4c-1.2,0.1-1.2,0.1-1.2-1.1c0-1.6,0-3.1,0-4.7
			c0-0.4,0.1-0.6,0.5-0.5c0.1,0,0.3,0,0.4,0C66.8,63.6,67.1,63.7,67.1,64.4z"/>
		<path class="st1" d="M61.8,82.3c-0.5,0.6-1.2,0.8-1.9,0.8c-1.3,0-2.1-0.9-2.2-2.2c0-1.3,0-2.5,0-3.8c0-0.3,0.1-0.4,0.4-0.4
			c1.3,0,1.1-0.1,1.2,1.1c0,0.9,0,1.8,0,2.7c0,0.8,0.4,1.2,1,1.2c0.8,0.1,1.3-0.3,1.4-1.1c0.1-0.6,0-1.1,0-1.7c0-0.6,0-1.2,0-1.9
			c0-0.3,0.1-0.4,0.4-0.4c1.4,0,1.2-0.2,1.2,1.1c0,1.6,0,3.2,0,4.7c0,0.4-0.1,0.6-0.5,0.5c-0.1,0-0.2,0-0.3,0
			C61.9,83,61.9,83,61.8,82.3z"/>
		<path class="st1" d="M53,66.9c0-0.5,0-1,0-1.4c0-0.3-0.1-0.4-0.4-0.4c-0.9,0-0.9-0.1-0.8-0.9c0-0.3,0.1-0.4,0.4-0.4
			c0.1,0,0.2,0,0.3,0c0.4,0,0.5-0.1,0.5-0.5c0-1-0.1-0.9,0.9-0.9c0.7,0,0.7,0,0.7,0.7c0,0.7,0,0.7,0.7,0.7c0.2,0,0.5-0.1,0.6,0.2
			c0.1,0.3,0.1,0.7,0,1c0,0.1-0.2,0.1-0.3,0.1c-0.2,0-0.4,0-0.6,0c-0.2,0-0.3,0.1-0.3,0.3c0,0.9,0,1.8,0,2.7c0,0.6,0.2,0.7,0.8,0.7
			c0.4,0,0.5,0.1,0.5,0.4c0,1-0.1,1.1-1.1,1.1c-1.2-0.1-1.7-0.6-1.8-1.9C53,67.8,53,67.3,53,66.9C53,66.9,53,66.9,53,66.9z"/>
		<path class="st1" d="M90.9,79.9c0-0.5,0-1,0-1.5c0-0.3-0.1-0.5-0.4-0.5c-0.2,0-0.5,0.1-0.6-0.2c-0.1-0.3-0.1-0.7,0-1
			c0.1-0.2,0.4-0.1,0.6-0.1c0.4,0,0.5-0.1,0.5-0.5c0-1.1-0.2-1,1-1c0.6,0,0.6,0,0.6,0.6c0,0.1,0,0.1,0,0.2c0,0.7,0,0.7,0.7,0.7
			c0.2,0,0.5-0.1,0.6,0.2c0.1,0.3,0.1,0.7,0,1.1C93.7,78,93.4,78,93.3,78c-0.8,0-0.8-0.1-0.8,0.8c0,0.7,0,1.4,0,2.1
			c0,0.6,0.2,0.8,0.8,0.8c0.4,0,0.5,0.1,0.5,0.4c0,1,0,1-1,1c-1.3,0-1.9-0.6-1.9-1.9C90.9,80.8,90.9,80.3,90.9,79.9z"/>
		<path class="st1" d="M46.3,78.7c0,1.2,0,2.5,0,3.7c0,0.6,0,0.6-0.6,0.6c-1.2,0-1.1,0.2-1.1-1.1c0-2.3,0-4.6,0-6.9
			c0-0.6,0-0.6,0.6-0.6c1.2,0,1.1-0.2,1.1,1.1C46.3,76.6,46.3,77.6,46.3,78.7z"/>
		<path class="st1" d="M94.1,65.8c0-1.3,0-2.5,0-3.8c0-0.3,0.1-0.4,0.4-0.4c1.2-0.1,1.2-0.1,1.2,1.1c0,2.3,0,4.5,0,6.8
			c0,0.6,0,0.6-0.6,0.6c-1.2,0-1,0.2-1-1C94,67.9,94.1,66.9,94.1,65.8C94.1,65.8,94.1,65.8,94.1,65.8z"/>
		<path class="st1" d="M51.1,65.9c0,1.3,0,2.5,0,3.8c0,0.3-0.1,0.4-0.4,0.4c-1.5,0-1.2,0.2-1.3-1.2c0-2.2,0-4.5,0-6.7
			c0-0.4,0.1-0.6,0.5-0.6c1.1-0.1,1.1-0.1,1.1,1C51.1,63.7,51.1,64.8,51.1,65.9C51.1,65.9,51.1,65.9,51.1,65.9z"/>
		<path class="st1" d="M87.5,77.3c0.5-0.6,1.1-0.9,1.8-0.8c0.2,0,0.3,0,0.3,0.2c0.1,0.4,0.1,0.7,0,1.1c0,0.2-0.2,0.2-0.3,0.2
			c-1.3,0.2-1.7,0.6-1.7,1.9c0,0.9,0,1.7,0,2.6c0,0.3-0.1,0.5-0.5,0.5c-1.3,0-1.1,0.2-1.1-1.1c0-1.6,0-3.2,0-4.7
			c0-0.4,0.1-0.6,0.5-0.5c0.1,0,0.3,0,0.4,0C87.5,76.6,87.5,76.6,87.5,77.3z"/>
		<path class="st1" d="M59.9,65.7c0-1.3,0-2.5,0-3.8c0-0.3,0.1-0.4,0.3-0.3c1.5,0,1.3-0.2,1.3,1.2c0,2.3,0,4.5,0,6.8
			c0,0.4-0.1,0.5-0.5,0.5c-1.2,0-1,0.1-1-1C59.9,67.9,59.9,66.8,59.9,65.7C59.9,65.7,59.9,65.7,59.9,65.7z"/>
		<path class="st1" d="M62.7,66.8c0-0.9,0-1.8,0-2.7c0-0.3,0.1-0.4,0.4-0.4c1.4,0,1.2-0.2,1.2,1.1c0,1.6,0,3.2,0,4.7
			c0,0.4-0.1,0.5-0.5,0.5c-1.3,0-1.1,0.2-1.1-1.1c0-0.4,0-0.7,0-1.1C62.7,67.5,62.7,67.2,62.7,66.8z"/>
		<path class="st1" d="M58.6,66.9c0,0.9,0,1.8,0,2.7c0,0.4-0.1,0.5-0.5,0.5c-1.3,0-1.1,0.2-1.1-1.1c0-1.6,0-3.2,0-4.7
			c0-0.4,0.1-0.5,0.5-0.5c1.3,0,1.1-0.1,1.1,1.1C58.6,65.5,58.6,66.2,58.6,66.9z"/>
		<path class="st1" d="M57.8,63c-0.6,0-1-0.4-1-0.9c0-0.5,0.4-1,1-1c0.5,0,1,0.4,1,0.9C58.7,62.6,58.3,63,57.8,63z"/>
		<path class="st1" d="M63.5,63c-0.5,0-0.9-0.4-0.9-0.9c0-0.5,0.4-1,1-1c0.5,0,1,0.4,1,0.9C64.5,62.6,64.1,63,63.5,63z"/>
		<path class="st1" d="M58.3,40.6c-0.4,0-0.7,0-1.1,0c-0.3,0-0.4-0.1-0.3-0.4c0.4-1.1,0.8-2.1,1.2-3.2c0-0.1,0-0.2,0.1-0.2
			c0.1,0,0.1,0.1,0.2,0.2c0.4,1.1,0.8,2.2,1.3,3.3c0.1,0.2,0,0.3-0.2,0.3C59.1,40.6,58.7,40.6,58.3,40.6z"/>
	</g>
	
		<image style="overflow:visible;" width="1080" height="1080" xlink:href="../../../Downloads/341759877_228988323117671_5533063600566795209_n.png"  transform="matrix(0.1184 0 0 0.1184 5.601997e-02 5.601997e-02)">
	</image>
</g>
</svg>
