<?xml version="1.0" encoding="utf-8"?>
<!-- Generator: Adobe Illustrator 27.5.0, SVG Export Plug-In . SVG Version: 6.00 Build 0)  -->
<svg version="1.1" id="Layer_1" xmlns="http://www.w3.org/2000/svg" xmlns:xlink="http://www.w3.org/1999/xlink" x="0px" y="0px"
	 viewBox="0 0 140 54" style="enable-background:new 0 0 140 54;" xml:space="preserve">
<style type="text/css">
	.st0{fill:#D59B47;}
</style>
<g>
	<g>
		<path class="st0" d="M32.9,6.4c0-1.7-0.7-3.2-2.5-3.9c-0.6-0.2-1.3-0.3-2.2-0.3c-3.2,0-8,1.4-11.5,3c-6.6,2.9-8.9,6.1-8.9,9.5
			c0,6.6,9.2,13.7,12.6,19.3c4.5-3,9.1-5.9,13.9-7.3c0.1,0,0.2-0.1,0.3-0.1c0.4,0,0.8,0.6,0.8,1c0,0.2-0.1,0.4-0.2,0.5
			c-4.7,1.4-9.6,4.1-14,7.1c0.7,1.1,1,2.1,1,3.2c0,5.7-9.5,10.6-13.7,10.6H8.2c-0.9,0-1.3-0.4-1.3-1.1c0-0.3,0.1-0.6,0.3-1
			c1.4-3.4,9.4-10.3,12.3-12.4c-4-6.7-13-13.3-13-19.9c0-3.8,2.9-7.5,11.3-11.2C21,2,24.4,1.1,27.3,1.1c1.2,0,2.4,0.2,3.3,0.5
			C33.2,2.5,34,4.6,34,7c0,5-3.9,11.3-3.9,11.3c-0.3,0.5-0.8,0.8-1.3,0.8s-1-0.3-1-1.1C27.9,17.9,32.9,11.1,32.9,6.4z M8.1,47.2
			C8,47.4,8,47.5,8,47.7S8.1,48,8.3,48s0.4,0,0.7,0c4.2,0,11.9-4.5,11.9-9.7c0-0.8-0.2-1.7-0.7-2.6C17.3,37.8,9.6,43.7,8.1,47.2z"/>
		<path class="st0" d="M38.1,28.3c-1.9,1.8-4.1,3.9-5.1,3.9h-0.1c-0.3,0-0.5-0.2-0.6-0.4c-0.2-0.2-0.3-0.5-0.3-0.9
			c0-0.1,0-0.2,0-0.4c0-0.4,0.2-0.9,0.4-1.4c0.7-1.6,2.2-3.4,4.1-3.9c0.5-0.1,0.9-0.2,1.3-0.2c0.8,0,1.3,0.2,1.7,0.6
			c0.7-0.6,1.6-1.2,2-1.2c0.1,0,0.1,0,0.2,0c0.3,0,0.5,0.4,0.5,0.9c0,0.6-0.2,1.4-0.6,2.4c-0.3,0.7-0.4,1.3-0.4,1.8
			c0,1.3,0.8,1.7,2,1.7c3.1,0,8.8-3.2,9.6-4.3c0.1-0.3,0.3-0.4,0.5-0.4s0.4,0.2,0.4,0.5c0,0.1,0,0.3-0.2,0.4
			c-0.3,0.4-6.8,4.2-10.6,4.2c-1.6,0-2.6-0.7-2.6-2.5c0-0.5,0.1-1,0.2-1.7c0.1-0.9,0.5-1.8,0.5-2l0,0c0,0-0.4,0.3-0.9,0.9
			c0,0.5,0,0.7,0,0.9v0.1c-0.2,0.3-0.5,0.5-0.8,0.5c-0.1,0-0.2,0-0.3-0.1l-0.1-0.2C38.6,27.8,38.5,27.9,38.1,28.3z M37.7,26.7
			c-1.2,0-3.2,2.6-3.2,3.2c0,0.1,0,0.1,0.1,0.1c0.5,0,1.9-1.2,3.4-3.2C37.9,26.7,37.8,26.7,37.7,26.7z"/>
		<path class="st0" d="M51.4,39.8c0,0.8,0.1,1.3,0.3,1.7c0.2,0.5,0.6,0.8,1,0.8c3.6,0,12.7-14.7,12.7-14.7c0.2-0.4,0.5-0.5,0.7-0.5
			c0.3,0,0.5,0.2,0.5,0.5l0,0c0,0-9.6,15-14,15c-0.7,0-1.2-0.3-1.6-1.1c-0.2-0.5-0.3-1.3-0.3-2.3c0-6.3,4.7-21,7.9-25.4
			c0.8-1.3,1.6-2.4,2.2-3.2c0.8-0.8,1.4-1.3,2-1.3l0,0c0.4,0,0.7,0.3,0.9,0.8c0.1,0.3,0.1,0.6,0.1,0.9c0,4.4-6.9,14.6-9.8,16.5
			C52.3,33.3,51.4,37.5,51.4,39.8z M63,10.7c0-0.1,0-0.2,0-0.3c-0.1-0.1-0.1-0.2-0.2-0.2l0,0c-0.2,0-0.7,0.4-1.2,1
			c-0.6,0.7-1.4,1.8-2.1,3.1c-1.5,2.6-3.4,7.9-4.6,11.1C56.4,24,63,13.2,63,10.7z"/>
		<path class="st0" d="M70.3,23.5c0-0.1,0-0.2-0.2-0.2c-0.1,0-0.3,0-0.5,0.2c-0.5,0.2-1.3,1-2.1,2c-0.5,0.7-0.7,1.3-0.7,1.9
			c0,1.6,1.4,3,2.6,4.9c2.2-1.6,4.1-2.8,6.6-4c1.4-0.7,3.2-1.6,4.9-2.2c0.6,0,0.8,0.5,0.8,0.9c0,0.3-0.1,0.5-0.4,0.7
			c-1.7,0.2-3.2,0.8-4.5,1.5c-2.5,1.2-4.8,2.3-7.1,3.9c0.4,0.8,0.6,1.7,0.6,2.7c0,3.6-2.7,7.8-6,7.8c-0.3,0-0.6,0-0.9-0.1
			c-1-0.2-1.4-1.2-1.4-2.1c0-0.4,0.1-0.7,0.2-1.1c0.5-1.6,2.5-4.4,6.6-7.5c-0.9-1.6-3.4-3.5-3.4-5.8c0-0.7,0.2-1.4,0.8-2.1
			c0.9-1.2,2.3-1.9,2.8-2.2c0.6-0.2,1-0.3,1.3-0.3c0.7,0,0.9,0.4,1,0.9c0,0.1,0,0.2,0,0.4c0,1.5-0.8,3.3-0.8,3.4
			c-0.2,0.3-0.5,0.4-0.8,0.4c-0.5,0-1-0.3-1-0.8c0-0.1,0-0.1,0-0.2C68.9,26.2,70.3,24.2,70.3,23.5z M63.3,40.5
			c-0.1,0.2-0.1,0.5-0.1,0.7c0,0.4,0.1,0.8,0.6,0.9c0.2,0.1,0.4,0.1,0.7,0.1c2.6,0,5.2-4,5.2-7c0-0.6-0.1-1.2-0.3-1.7
			C65.7,36.2,63.7,39,63.3,40.5z"/>
		<path class="st0" d="M85.3,23.5c0-0.1,0-0.2-0.2-0.2c-0.1,0-0.3,0-0.5,0.2c-0.5,0.2-1.3,1-2.1,2c-0.5,0.7-0.7,1.3-0.7,1.9
			c0,1.6,1.4,3,2.6,4.9c2.2-1.6,4.1-2.8,6.6-4c1.4-0.7,3.2-1.6,4.9-2.2c0.6,0,0.8,0.5,0.8,0.9c0,0.3-0.1,0.5-0.4,0.7
			c-1.7,0.2-3.1,0.8-4.5,1.5c-2.5,1.2-4.8,2.3-7.1,3.9c0.4,0.8,0.6,1.7,0.6,2.7c0,3.6-2.7,7.8-6,7.8c-0.3,0-0.6,0-0.9-0.1
			c-1-0.2-1.4-1.2-1.4-2.1c0-0.4,0.1-0.7,0.2-1.1c0.5-1.6,2.5-4.4,6.6-7.5c-0.9-1.6-3.4-3.5-3.4-5.8c0-0.7,0.2-1.4,0.8-2.1
			c0.9-1.2,2.3-1.9,2.8-2.2c0.6-0.2,1-0.3,1.3-0.3c0.7,0,0.9,0.4,1,0.9c0,0.1,0,0.2,0,0.4c0,1.5-0.8,3.3-0.8,3.4
			c-0.2,0.3-0.5,0.4-0.8,0.4c-0.5,0-1-0.3-1-0.8c0-0.1,0-0.1,0-0.2C83.9,26.2,85.3,24.2,85.3,23.5z M78.2,40.5
			c0,0.2-0.1,0.5-0.1,0.7c0,0.4,0.1,0.8,0.6,0.9c0.2,0.1,0.4,0.1,0.7,0.1c2.6,0,5.2-4,5.2-7c0-0.6-0.1-1.2-0.3-1.7
			C80.6,36.2,78.7,39,78.2,40.5z"/>
		<path class="st0" d="M98.4,24.6l0.3-0.2c0.8-0.6,1.7-1.2,2.5-1.8c2-1.4,3.1-1.9,4.3-2c0.4,0,0.6,0.3,0.6,0.6
			c0,0.3-0.1,0.6-0.3,0.9c-0.1,0-0.3,0-0.4,0c-1.2,0-2.6,0.6-3.6,1.3c-1.4,0.9-3.5,2.5-4.8,3.5c-0.4,1.1-0.7,1.9-1.1,3
			c1.7,0.1,3.2,0.2,4.7,0.2c3.8,0,7.1-0.6,11.3-2.1c0.1-0.1,0.2-0.1,0.3-0.1c0.2,0,0.3,0.2,0.3,0.5s-0.1,0.6-0.4,0.7
			c-3.1,1.1-7.2,1.4-11.1,1.4c-1.9,0-3.7-0.1-5.3-0.1c-1.2,3.1-2.8,10.4-4,13.6c-0.1,0.2-0.6,0.4-0.9,0.4s-0.6-0.1-0.6-0.5
			c0-0.1,0-0.2,0.1-0.4l0.4-1.1c0.7-3.4,2.1-7.7,3.9-12.1c-0.4-0.1-0.6-0.2-0.8-0.4c-0.1-0.1-0.2-0.3-0.2-0.4c0-0.7,0.8-1.6,2-2.6
			c0.2-0.2,0.4-0.3,0.6-0.5C99.3,19.2,103,12,106,7.5c0.5-0.9,1-1.3,1.3-1.3c0.1,0,0.1,0,0.2,0.1c0.1,0.1,0.1,0.2,0.1,0.4
			c-0.4,1.9-0.7,0.9-1.3,1.5c-2.7,4.2-5.8,10.7-8.7,17l0.6-0.5C98.2,24.7,98.3,24.6,98.4,24.6z M95.2,28.5c-0.4,0.4-0.7,0.7-0.7,0.8
			l0,0c0,0,0.1,0.2,0.2,0.4C94.9,29.3,95,28.9,95.2,28.5z"/>
		<path class="st0" d="M124.3,25.7c0,2.1-1.2,5.2-1.5,6.2c2.1-2.8,8-5.2,10-5.2c0.1,0,0.2,0,0.3,0c0.3,0.1,0.4,0.2,0.4,0.3
			c0,0.2-0.2,0.4-0.4,0.6c-5.4,0.2-9.1,3.2-11,5.8c-1,3.4-3.3,9.4-4.5,12.5c-0.3,0.8-2.6,6.9-4,6.9c-0.1,0-0.1,0-0.2,0
			c-0.7-0.2-0.9-0.9-0.9-1.7s0.2-1.7,0.3-2c0.4-1.5,1.1-3.4,2-5.5c1.2-2.8,3.6-6.7,5.5-9.3c0.3-1,0.8-2.6,1-3.6
			c0.1-0.5,1.2-4.8,1.2-5.8c0-0.1,0-0.2,0-0.2l0,0c-0.8,0-6.8,7.8-9,8.3c-0.3,0.1-0.6,0.1-0.9,0.1c-0.8,0-1.4-0.4-1.4-1.1
			c-0.1-0.3-0.1-0.7-0.1-1c0-2.2,1.2-5.2,1.6-7.1c0.1-0.4,0.3-0.5,0.7-0.5c0.6,0,1.4,0.5,1.4,1.1c0,0,0,0.1,0,0.2
			c-0.5,1.8-1.4,4.1-1.4,6c0,0.2,0,0.4,0,0.6c0,0.4,0.1,0.6,0.4,0.6l0,0c2.2-0.4,6.9-8.1,9.1-8.1C124,23.8,124.3,24.6,124.3,25.7z
			 M119.6,37.4c-1,1.8-2.5,5.1-3.3,6.9c-0.9,2.1-1.6,4-2,5.4c-0.3,1-0.4,1.7-0.4,2.1v0.1c0.5-0.4,2-3.1,3.3-6.5
			C118,43.4,118.9,39.7,119.6,37.4z"/>
	</g>
</g>
</svg>
