<?xml version="1.0" encoding="utf-8"?>
<!-- Generator: Adobe Illustrator 28.4.1, SVG Export Plug-In . SVG Version: 6.00 Build 0)  -->
<svg version="1.1" id="Layer_1" xmlns="http://www.w3.org/2000/svg" xmlns:xlink="http://www.w3.org/1999/xlink" x="0px" y="0px"
	 viewBox="0 0 233 86" style="enable-background:new 0 0 233 86;" xml:space="preserve">
<g>
	<path d="M65.9,33.1c0,0-3.9,5.7-5.3,7.4c-1.2,1.6-2.3,3.2-3.4,4.9c-1.2,1.8-2.5,3.5-3.7,5.3c-2.9,4.1-5.8,8.2-8.6,12.3
		c-0.2,0.2-0.3,0.5-0.6,0.6c-0.3,0.2-1.7,0.9-1.4-1c0.6-1.2-0.8-0.6-1.4-1c-0.5-0.4-1.3-1.1-0.7-2c1-1.5,2.1-3,3.1-4.5
		c3.6-5.1,7.1-10.2,10.8-15.3c2.7-3.6,5.5-7.2,8.2-10.7c0.5-0.6,1.2-1.2,1.9-1.6c1.6-1,2.9-0.5,3.7,1.2c1,0.8,1.7,6.7,2.1,11.5
		c0.2,2.5,1.2,11.5,1.6,15.2c0.5,4.2,0.9,8,0.9,8s0.1,1.2-0.7,1.5c-0.7,0.4-1.8-0.1-2.2-0.7c0-0.1-0.8-3.9-0.9-4.4
		c-1-7.5-3.5-26.4-3.5-26.4L65.9,33.1z"/>
	<path d="M109.3,64.6c-0.2,1-1.5,1.4-1.9,1.5c-1.7,0.7-3.5,0.8-5.3,1c-3.9,0.4-9.7,0.9-11.6,0.7c-1.9-0.1-4.9-1-6.6-2.6
		c-0.7-0.6-1.2-1.7-1.5-2.6C82.1,62,82,60.9,82,60.2c0-0.3,0-0.6,0-0.8c0.1-1,3.6-10.9,4.4-13.1c0.8-2.2,1.6-4.4,2.3-6.6
		c0.6-1.6,2.2-6.7,2.4-7.6c0.2-0.8,0.4-1.5,0.6-2.3c0.1-0.3,0.4-0.6,0.6-0.6c0.2,0,0.6,0.2,0.8,0.4c0.2,0.2,0.3,0.4,0.3,0.7
		c-0.1,1.5,0.6,2.9,0.7,4.4c0.1,0.9-0.4,1.9-0.6,2.8c-0.2,0.9-0.5,1.8-0.7,2.7C92.7,41,88.6,52.7,88.1,54c-0.2,0.5-0.4,0.9-0.5,1.4
		c-0.7,1.9-1.3,3.8-2,5.7c-0.2,0.7-0.4,0.9,0.1,1c0.2,0,3.4,0.6,7.7,0.3c4.5-0.5,9.1-1.3,13.6-2c0.9-0.1,1.9,0.5,2,1.4
		C109.1,62.9,109.4,63.6,109.3,64.6z"/>
	<path d="M172,23.3c0.4-1.8-0.7-3.9-2.4-4.7c-2.2-1-4.2-0.3-6.1,0.7c-4.5,2.4-7.9,6.1-10.6,10.3c-1.5,2.4-2.1,5.1-1.5,8
		c0.2,0.9,0.4,1.8,0.5,2.7c0.1,2.4,1.2,4.3,2.5,6.2c1.7,2.5,3.5,4.9,5.2,7.4c0.9,1.3,0.8,1.5-0.6,2.3c-3.1,1.9-6.7,2.7-10.2,3.5
		c-2.1,0.4-4.4,0.3-6.5,0.6c-0.6,0.1-1.1,0.2-1.7,0.3c-0.7,0.1-1.7,3.1-1.4,5c0,0.2,0.1,0.4,0.2,0.6c0.1,0.1,0.2,0.1,0.4,0.2
		s2.4-0.1,2.5-0.2c0.1,0,0.1,0,0.2,0c0.1,0,0.2,0,0.3,0c0.7-0.1,2.6-0.4,2.8-0.4c4.7-0.5,9.2-1.6,13.6-3.4c2.5-1,3.9-2.3,3.6-4.9
		c0-0.4,0-0.9,0.1-1.3c0.4-1.5,0-3-0.8-4.2c-2.1-3.1-4.2-6.2-6.4-9.2c-2.3-3.1-2.6-5.5-0.4-8.7c2.6-3.8,5.6-7.2,9.8-9.3
		c1.1-0.5,2.4-1.1,3.5-0.8c0.9,0.2,1.3,0.5,1.7,1c0.4,0.4,0.8,1.6,1,1.7s0.7-0.6,0.7-1C172,25.3,171.9,23.5,172,23.3z"/>
	<path d="M119,67.1c0.1,0,0.3,0.1,0.3,0.1c0.8,0.3,3.6,0.5,7.7,0.1c2-0.2,4.4-1.8,5.8-3.3c0.3-0.3,0.9-0.9,1.3-1.7
		c0.1-0.2,0.4-0.9,0.4-1.1c0.3-0.8,0.6-2.1-0.4-3.6c-0.4-0.5-0.9-1-1.5-1.6c-0.6-0.6-3.2-3.5-3.8-4.2c-1.3-1.6-2.5-3.1-3.5-4.4
		c-1.7-2.5-3.3-5-3.8-6c-0.7-1.5-1.2-3.2-1.2-4.6c0-0.4,0-0.7,0.1-1c0.4-1.5,1.7-2.3,2.2-2.6c0.3-0.2,0.6-0.4,0.9-0.5
		c2-0.9,5-1.2,7.4-0.9c0.7,0.1,1.7,0.3,2.1,0.2c0.4-0.1,2.6-0.7,3.7-2.9c0-0.2,0.1,0,0.1-0.5c0-0.5-0.3-0.2-2.9-0.8
		c-3-0.4-4.5-0.6-7.1-0.2c-2.6,0.4-5.5,2.2-6.8,3.5s-1.9,1.5-3,4.6s0.9,7.7,1.3,8.5c0.3,0.8,1.7,3.5,2.8,4.9
		c1.9,2.7,6.5,7.6,9.6,11.4c0.1,0.1,0.2,0.3,0,0.4c-3,1.5-5.6,1.4-8.6,1.1c-2.7-0.2-5.3-1-5.8-0.9c-0.1,0,0,0.2,0,0.3
		c0,0.8,0,2.8,2.1,5.1C118.6,66.8,118.8,67,119,67.1z"/>
	<path d="M205.5,59.2c0.1,0.8-0.6,1-1.2,1.2c-1.8,0.5-3.4,0.1-4.9-0.8c-3.6-2.1-6.4-5.2-9.2-8.1c-1.3-1.3-2.7-2.5-4.5-3.1
		c-1.6-0.6-3.1-0.2-4.5,0.4c-0.2,0.1-0.3,0.7-0.3,1c-0.4,3.5,0.1,10.5,0.1,11.5c-0.1,1,0,2-1,2c-1,0-3.6,0.1-3.6-0.3
		c-0.1-3.8,1.2-13.4,1.3-14.5c0.6-5.8,2.5-23.7,2.5-24.8c0-1.3,0.2-3.9,0.4-4.4c0.2-0.4,0.8-0.7,1.5-0.6c0.7,0.1,1.4,0,1.4,2.8
		c-0.2,2.8-0.2,5.7-0.5,8.5c-0.3,3.2-1.3,10.4-1.3,10.4s8.1-6.5,9.8-8.9c0.8-1,1.1-1.7,1.3-2.3c0.2-0.7-0.6-2.1-0.7-2.5
		c-0.3-0.7-0.6-1.8,0.3-1.9c0.4-0.1,0.8-0.1,1.1,0c0.6,0.1,1,0.4,1.2,0.7c1,1.7,1.1,3.5,0.9,4.8c0,0.3-0.2,1.3-0.5,1.9
		c-0.4,1-1.5,2.7-4.3,5.5c-0.9,1-1.8,1.9-2.1,2.1c-1,0.9-1.9,2-2.5,3c3.4,1.7,5.7,4.7,8.4,7.3c1.1,1.1,2.3,2.2,3.6,3.2
		c1.9,1.5,3.9,2.4,6.4,2c0.8-0.1,1.7-0.1,1.8,1C206.5,57.2,205.4,58.3,205.5,59.2z"/>
	<path d="M207.2,30.6c0,0-0.8-5.9-0.7-6c0.7-0.7,1.3,0,1.8,0.5c1.1,0.9,2.1,1.9,3.1,2.9c3.3,3.2,11.8,11.7,11.8,11.7
		s0.9-6.7,1.5-9.4c0.7-3,1.6-5.9,2.5-8.8c0.3-1,1.2-1.8,2-2.5c0.9-0.8,1.4,0.2,2,0.8c0.6,0.6,0.1,0.9-0.3,1.3
		c-0.6,0.6-1.4,1.2-1,2.3c0.1,0.2,0,0.5-0.2,0.7c-2.2,3.2-2.6,6.9-3,10.6c-1,8.6-2.5,17.2-4.9,25.6c-0.2,0.6-1.3,4.5-1.6,5.2
		c0,0.1-0.1,0.2-0.2,0.3c-0.1,0.1-0.1,0.1-0.3,0.2c-0.3,0-0.6,0-0.6,0c-0.3,0-3.1-1-3.1-1s5.5-15.8,6.1-18.5
		C222.6,44.5,207.2,30.6,207.2,30.6z"/>
	<path d="M41.9,32.5c-0.3-0.3-0.6-0.7-0.9-1c-0.7-1-1.7-1.7-3-1.9c-3-0.5-5.9,0.2-8.7,1.1c-3.4,1-6.5,2.5-9.3,4.8
		c-0.8,0.6-1.9,1.6-1.7,2.6c0.1,1.8,10.9,10.6,13.1,12.7c0.6,0.7,1.1,1.2,1.6,2c0.6,0.9,1.1,2,0.7,4.1c-0.2,0.5-0.5,1-0.8,1.5
		c-0.2,0.3-1.4,1.5-3,2.5c-0.9,0.5-1.8,0.9-2.2,1.1c-14,5.2-18.7,5.8-21.5,5.7c-1.4-0.2-2.5-0.9-2.9-1.1c-0.4-0.3-1.8-1.6-1.8-2.5
		c0-0.9,0.5-0.9,1.6-1s2.7-0.1,5.1-0.5c2.4-0.4,10.6-2.5,14.1-3.7c1-0.3,1.8-0.6,2.4-0.9c1-0.4,0.6-0.2,2.3-1.2
		c1.8-1,2.3-1.6,2.8-2.1c0.5-0.5,0.5-1.4-0.1-2c-0.7-0.7-1.5-1.4-2.3-2.1c-1.3-1.1-10-8.9-10-8.9s-1.1-0.9-1.6-1.8
		c-1.9-3.2-0.4-8,1.8-9.7c3-2.3,6.4-3.8,10.1-4.9c2.6-0.8,5.2-1.4,8-1.1c2.6,0.2,4.3,1.5,5.2,3.9c0.3,0.8,0.7,1.5,1,2.3
		c0.2,0.6,0.3,1.3,0.4,1.9C42.1,32.4,42,32.4,41.9,32.5z"/>
</g>
</svg>
