<?xml version="1.0" encoding="utf-8"?>
<!-- Generator: Adobe Illustrator 27.5.0, SVG Export Plug-In . SVG Version: 6.00 Build 0)  -->
<svg version="1.1" id="Layer_1" xmlns="http://www.w3.org/2000/svg" xmlns:xlink="http://www.w3.org/1999/xlink" x="0px" y="0px"
	 viewBox="0 0 140 54" style="enable-background:new 0 0 140 54;" xml:space="preserve">
<style type="text/css">
	.st0{enable-background:new    ;}
	.st1{fill:#FFFFFF;}
</style>
<g class="st0">
	<path class="st1" d="M32.8,6.4c0-1.7-0.7-3.2-2.5-3.9c-0.6-0.2-1.3-0.3-2.2-0.3c-3.2,0-8,1.4-11.5,3c-6.6,2.9-8.9,6.1-8.9,9.5
		c0,6.6,9.2,13.7,12.6,19.3c4.5-3,9.1-5.9,13.9-7.3c0.1,0,0.2-0.1,0.3-0.1c0.4,0,0.8,0.6,0.8,1c0,0.2-0.1,0.4-0.2,0.5
		c-4.7,1.4-9.6,4.1-14,7.1c0.7,1.1,1,2.1,1,3.2c0,5.7-9.5,10.6-13.7,10.6H8.1c-0.9,0-1.3-0.4-1.3-1.1c0-0.3,0.1-0.6,0.3-1
		c1.4-3.4,9.4-10.3,12.3-12.4c-4-6.7-13-13.3-13-19.9c0-3.8,2.9-7.5,11.3-11.2c3.2-1.4,6.6-2.3,9.5-2.3c1.2,0,2.4,0.2,3.3,0.5
		c2.6,0.9,3.4,3,3.4,5.4c0,5-3.9,11.3-3.9,11.3c-0.3,0.5-0.8,0.8-1.3,0.8c-0.5,0-1-0.3-1-1.1C27.8,17.9,32.8,11.1,32.8,6.4z M8,47.2
		c-0.1,0.2-0.1,0.3-0.1,0.5c0,0.2,0.1,0.3,0.3,0.3c0.2,0,0.4,0,0.7,0c4.2,0,11.9-4.5,11.9-9.7c0-0.8-0.2-1.7-0.7-2.6
		C17.2,37.8,9.5,43.7,8,47.2z"/>
	<path class="st1" d="M38,28.3c-1.9,1.8-4.1,3.9-5.1,3.9c0,0-0.1,0-0.1,0c-0.3,0-0.5-0.2-0.6-0.4c-0.2-0.2-0.3-0.5-0.3-0.9
		c0-0.1,0-0.2,0-0.4c0-0.4,0.2-0.9,0.4-1.4c0.7-1.6,2.2-3.4,4.1-3.9c0.5-0.1,0.9-0.2,1.3-0.2c0.8,0,1.3,0.2,1.7,0.6
		c0.7-0.6,1.6-1.2,2-1.2c0.1,0,0.1,0,0.2,0c0.3,0,0.5,0.4,0.5,0.9c0,0.6-0.2,1.4-0.6,2.4c-0.3,0.7-0.4,1.3-0.4,1.8
		c0,1.3,0.8,1.7,2,1.7c3.1,0,8.8-3.2,9.6-4.3c0.1-0.3,0.3-0.4,0.5-0.4c0.2,0,0.4,0.2,0.4,0.5c0,0.1,0,0.3-0.2,0.4
		c-0.3,0.4-6.8,4.2-10.6,4.2c-1.6,0-2.6-0.7-2.6-2.5c0-0.5,0.1-1,0.2-1.7c0.1-0.9,0.5-1.8,0.5-2v0c0,0-0.4,0.3-0.9,0.9
		C40,26.8,40,27,40,27.2v0.1c-0.2,0.3-0.5,0.5-0.8,0.5c-0.1,0-0.2,0-0.3-0.1l-0.1-0.2C38.5,27.8,38.4,27.9,38,28.3z M37.6,26.7
		c-1.2,0-3.2,2.6-3.2,3.2c0,0.1,0,0.1,0.1,0.1c0.5,0,1.9-1.2,3.4-3.2C37.8,26.7,37.7,26.7,37.6,26.7z"/>
	<path class="st1" d="M51.3,39.8c0,0.8,0.1,1.3,0.3,1.7c0.2,0.5,0.6,0.8,1,0.8c3.6,0,12.7-14.7,12.7-14.7c0.2-0.4,0.5-0.5,0.7-0.5
		c0.3,0,0.5,0.2,0.5,0.5v0c0,0-9.6,15-14,15c-0.7,0-1.2-0.3-1.6-1.1c-0.2-0.5-0.3-1.3-0.3-2.3c0-6.3,4.7-21,7.9-25.4
		c0.8-1.3,1.6-2.4,2.2-3.2c0.8-0.8,1.4-1.3,2-1.3h0c0.4,0,0.7,0.3,0.9,0.8c0.1,0.3,0.1,0.6,0.1,0.9c0,4.4-6.9,14.6-9.8,16.5
		C52.2,33.3,51.3,37.5,51.3,39.8z M62.9,10.7c0-0.1,0-0.2,0-0.3c-0.1-0.1-0.1-0.2-0.2-0.2h0c-0.2,0-0.7,0.4-1.2,1
		c-0.6,0.7-1.4,1.8-2.1,3.1c-1.5,2.6-3.4,7.9-4.6,11.1C56.3,24,62.9,13.2,62.9,10.7z"/>
	<path class="st1" d="M70.2,23.5c0-0.1,0-0.2-0.2-0.2c-0.1,0-0.3,0-0.5,0.2c-0.5,0.2-1.3,1-2.1,2c-0.5,0.7-0.7,1.3-0.7,1.9
		c0,1.6,1.4,3,2.6,4.9c2.2-1.6,4.1-2.8,6.6-4c1.4-0.7,3.2-1.6,4.9-2.2c0.6,0,0.8,0.5,0.8,0.9c0,0.3-0.1,0.5-0.4,0.7
		c-1.7,0.2-3.2,0.8-4.5,1.5c-2.5,1.2-4.8,2.3-7.1,3.9c0.4,0.8,0.6,1.7,0.6,2.7c0,3.6-2.7,7.8-6,7.8c-0.3,0-0.6,0-0.9-0.1
		c-1-0.2-1.4-1.2-1.4-2.1c0-0.4,0.1-0.7,0.2-1.1c0.5-1.6,2.5-4.4,6.6-7.5c-0.9-1.6-3.4-3.5-3.4-5.8c0-0.7,0.2-1.4,0.8-2.1
		c0.9-1.2,2.3-1.9,2.8-2.2c0.6-0.2,1-0.3,1.3-0.3c0.7,0,0.9,0.4,1,0.9c0,0.1,0,0.2,0,0.4c0,1.5-0.8,3.3-0.8,3.4
		c-0.2,0.3-0.5,0.4-0.8,0.4c-0.5,0-1-0.3-1-0.8c0-0.1,0-0.1,0-0.2C68.8,26.2,70.2,24.2,70.2,23.5z M63.2,40.5
		c-0.1,0.2-0.1,0.5-0.1,0.7c0,0.4,0.1,0.8,0.6,0.9c0.2,0.1,0.4,0.1,0.7,0.1c2.6,0,5.2-4,5.2-7c0-0.6-0.1-1.2-0.3-1.7
		C65.6,36.2,63.6,39,63.2,40.5z"/>
	<path class="st1" d="M85.2,23.5c0-0.1,0-0.2-0.2-0.2c-0.1,0-0.3,0-0.5,0.2c-0.5,0.2-1.3,1-2.1,2c-0.5,0.7-0.7,1.3-0.7,1.9
		c0,1.6,1.4,3,2.6,4.9c2.2-1.6,4.1-2.8,6.6-4c1.4-0.7,3.2-1.6,4.9-2.2c0.6,0,0.8,0.5,0.8,0.9c0,0.3-0.1,0.5-0.4,0.7
		c-1.7,0.2-3.1,0.8-4.5,1.5c-2.5,1.2-4.8,2.3-7.1,3.9c0.4,0.8,0.6,1.7,0.6,2.7c0,3.6-2.7,7.8-6,7.8c-0.3,0-0.6,0-0.9-0.1
		c-1-0.2-1.4-1.2-1.4-2.1c0-0.4,0.1-0.7,0.2-1.1c0.5-1.6,2.5-4.4,6.6-7.5c-0.9-1.6-3.4-3.5-3.4-5.8c0-0.7,0.2-1.4,0.8-2.1
		c0.9-1.2,2.3-1.9,2.8-2.2c0.6-0.2,1-0.3,1.3-0.3c0.7,0,0.9,0.4,1,0.9c0,0.1,0,0.2,0,0.4c0,1.5-0.8,3.3-0.8,3.4
		c-0.2,0.3-0.5,0.4-0.8,0.4c-0.5,0-1-0.3-1-0.8c0-0.1,0-0.1,0-0.2C83.8,26.2,85.2,24.2,85.2,23.5z M78.1,40.5
		C78.1,40.7,78,41,78,41.2c0,0.4,0.1,0.8,0.6,0.9c0.2,0.1,0.4,0.1,0.7,0.1c2.6,0,5.2-4,5.2-7c0-0.6-0.1-1.2-0.3-1.7
		C80.5,36.2,78.6,39,78.1,40.5z"/>
	<path class="st1" d="M98.3,24.6l0.3-0.2c0.8-0.6,1.7-1.2,2.5-1.8c2-1.4,3.1-1.9,4.3-2c0.4,0,0.6,0.3,0.6,0.6c0,0.3-0.1,0.6-0.3,0.9
		c-0.1,0-0.3,0-0.4,0c-1.2,0-2.6,0.6-3.6,1.3c-1.4,0.9-3.5,2.5-4.8,3.5c-0.4,1.1-0.7,1.9-1.1,3c1.7,0.1,3.2,0.2,4.7,0.2
		c3.8,0,7.1-0.6,11.3-2.1c0.1-0.1,0.2-0.1,0.3-0.1c0.2,0,0.3,0.2,0.3,0.5s-0.1,0.6-0.4,0.7c-3.1,1.1-7.2,1.4-11.1,1.4
		c-1.9,0-3.7-0.1-5.3-0.1c-1.2,3.1-2.8,10.4-4,13.6c-0.1,0.2-0.6,0.4-0.9,0.4c-0.3,0-0.6-0.1-0.6-0.5c0-0.1,0-0.2,0.1-0.4l0.4-1.1
		c0.7-3.4,2.1-7.7,3.9-12.1c-0.4-0.1-0.6-0.2-0.8-0.4c-0.1-0.1-0.2-0.3-0.2-0.4c0-0.7,0.8-1.6,2-2.6c0.2-0.2,0.4-0.3,0.6-0.5
		c3.1-7.2,6.8-14.4,9.8-18.9c0.5-0.9,1-1.3,1.3-1.3c0.1,0,0.1,0,0.2,0.1c0.1,0.1,0.1,0.2,0.1,0.4c-0.4,1.9-0.7,0.9-1.3,1.5
		c-2.7,4.2-5.8,10.7-8.7,17l0.6-0.5C98.1,24.7,98.2,24.6,98.3,24.6z M95.1,28.5c-0.4,0.4-0.7,0.7-0.7,0.8l0,0c0,0,0.1,0.2,0.2,0.4
		C94.8,29.3,94.9,28.9,95.1,28.5z"/>
	<path class="st1" d="M124.2,25.7c0,2.1-1.2,5.2-1.5,6.2c2.1-2.8,8-5.2,10-5.2c0.1,0,0.2,0,0.3,0c0.3,0.1,0.4,0.2,0.4,0.3
		c0,0.2-0.2,0.4-0.4,0.6c-5.4,0.2-9.1,3.2-11,5.8c-1,3.4-3.3,9.4-4.5,12.5c-0.3,0.8-2.6,6.9-4,6.9c-0.1,0-0.1,0-0.2,0
		c-0.7-0.2-0.9-0.9-0.9-1.7c0-0.8,0.2-1.7,0.3-2c0.4-1.5,1.1-3.4,2-5.5c1.2-2.8,3.6-6.7,5.5-9.3c0.3-1,0.8-2.6,1-3.6
		c0.1-0.5,1.2-4.8,1.2-5.8c0-0.1,0-0.2,0-0.2h0c-0.8,0-6.8,7.8-9,8.3c-0.3,0.1-0.6,0.1-0.9,0.1c-0.8,0-1.4-0.4-1.4-1.1
		c-0.1-0.3-0.1-0.7-0.1-1c0-2.2,1.2-5.2,1.6-7.1c0.1-0.4,0.3-0.5,0.7-0.5c0.6,0,1.4,0.5,1.4,1.1c0,0,0,0.1,0,0.2
		c-0.5,1.8-1.4,4.1-1.4,6c0,0.2,0,0.4,0,0.6c0,0.4,0.1,0.6,0.4,0.6h0c2.2-0.4,6.9-8.1,9.1-8.1C123.9,23.8,124.2,24.6,124.2,25.7z
		 M119.5,37.4c-1,1.8-2.5,5.1-3.3,6.9c-0.9,2.1-1.6,4-2,5.4c-0.3,1-0.4,1.7-0.4,2.1v0.1c0.5-0.4,2-3.1,3.3-6.5
		C117.9,43.4,118.8,39.7,119.5,37.4z"/>
</g>
</svg>
