<svg width="157" height="54" viewBox="0 0 157 54" fill="none" xmlns="http://www.w3.org/2000/svg">
<path d="M26.9338 9.78C26.6338 9.75 26.4538 8.655 26.3938 6.495C26.5138 5.895 26.7538 5.115 27.1138 4.155C27.4738 3.165 27.9838 2.01 28.6438 0.689998C28.8238 0.629998 28.9588 0.599999 29.0488 0.599999C29.5888 0.599999 29.8588 1.155 29.8588 2.265C29.5588 2.745 29.2588 3.24 28.9588 3.75C28.6588 4.23 28.3738 4.71 28.1038 5.19C27.2938 6.75 26.9038 8.28 26.9338 9.78ZM14.2888 39.3C9.69875 39.3 6.14375 38.205 3.62375 36.015C1.55375 34.155 0.51875 31.785 0.51875 28.905C0.51875 25.665 1.85375 23.025 4.52375 20.985C6.92375 19.125 9.66875 18.18 12.7588 18.15C15.3388 18.15 17.3638 18.81 18.8338 20.13C20.1238 21.33 20.7688 22.8 20.7688 24.54C20.7688 26.31 20.1388 27.825 18.8788 29.085C17.4388 30.465 15.6088 31.155 13.3888 31.155C13.1188 31.155 12.9838 31.11 12.9838 31.02C12.9838 30.84 13.1188 30.735 13.3888 30.705C14.3488 30.495 15.2038 30.195 15.9538 29.805C16.7338 29.415 17.3938 28.905 17.9338 28.275C18.9538 27.165 19.4638 25.875 19.4638 24.405C19.4638 22.785 18.8788 21.465 17.7088 20.445C16.5088 19.335 14.9188 18.78 12.9388 18.78C10.2388 18.78 7.86875 19.665 5.82875 21.435C3.60875 23.295 2.49875 25.665 2.49875 28.545C2.49875 31.365 3.35375 33.63 5.06375 35.34C7.04375 37.44 10.0138 38.49 13.9738 38.49C17.8438 38.49 21.0838 37.335 23.6938 35.025C26.5438 32.565 27.9688 29.46 27.9688 25.71C27.9688 22.98 26.9188 20.385 24.8188 17.925L19.9138 12.885C19.0138 11.955 18.3538 11.04 17.9338 10.14C17.5438 9.21 17.3488 8.325 17.3488 7.485C17.3488 5.625 18.0688 4.14 19.5088 3.03C20.8888 1.92 22.4938 1.365 24.3238 1.365C25.0438 1.365 25.7638 1.47 26.4838 1.68C27.2038 1.89 27.5638 2.145 27.5638 2.445C27.5638 2.595 27.4738 2.67 27.2938 2.67C27.2038 2.67 26.8438 2.535 26.2138 2.265C25.7038 2.055 25.1788 1.95 24.6388 1.95C23.2888 1.95 22.0888 2.445 21.0388 3.435C20.0188 4.455 19.5088 5.625 19.5088 6.945C19.5088 8.445 20.2138 9.945 21.6238 11.445L26.2138 15.72C27.6838 17.07 28.7638 18.54 29.4538 20.13C30.1738 21.69 30.5338 23.34 30.5338 25.08C30.5338 29.1 28.8088 32.52 25.3588 35.34C22.1188 37.98 18.4288 39.3 14.2888 39.3ZM25.1338 24.54C24.9838 24.6 24.9088 24.51 24.9088 24.27C24.6988 22.8 24.0988 21.3 23.1088 19.77C23.0488 20.22 22.9588 20.73 22.8388 21.3C22.2688 21.39 21.7588 21.195 21.3088 20.715C21.2488 20.625 21.1738 20.49 21.0838 20.31C21.0238 20.13 20.9938 19.92 20.9938 19.68V19.365C20.9938 19.035 21.0388 18.81 21.1288 18.69C21.7588 19.14 22.2838 19.32 22.7038 19.23C22.0138 18.24 21.2188 17.34 20.3188 16.53C19.4188 15.69 18.4438 14.94 17.3938 14.28C15.2038 12.96 13.2688 12.3 11.5888 12.3C9.78875 12.3 8.54375 13.05 7.85375 14.55C8.18375 14.31 8.51375 14.19 8.84375 14.19C9.20375 14.19 9.54875 14.295 9.87875 14.505C10.4788 14.925 10.7638 15.405 10.7338 15.945C10.3438 15.765 9.92375 15.675 9.47375 15.675C8.63375 15.675 8.01875 16.035 7.62875 16.755C7.29875 16.245 7.13375 15.81 7.13375 15.45C7.13375 15 7.34375 14.445 7.76375 13.785C8.63375 12.345 9.98375 11.625 11.8138 11.625C14.5438 11.625 17.3638 12.975 20.2738 15.675C21.7738 16.995 22.9888 18.36 23.9188 19.77C24.8488 21.15 25.3138 22.59 25.3138 24.09V24.225C25.3138 24.375 25.2538 24.48 25.1338 24.54ZM35.99 33.27C34.76 33.27 34.145 32.67 34.145 31.47C34.145 30.33 34.97 28.74 36.62 26.7C38.12 24.81 39.425 23.505 40.535 22.785C41.645 22.065 42.68 21.705 43.64 21.705C44.78 21.705 45.35 22.035 45.35 22.695C45.35 22.845 45.2 23.07 44.9 23.37C44.6 23.64 44.435 23.805 44.405 23.865C43.835 24.795 43.55 26.685 43.55 29.535C43.55 31.185 43.91 32.01 44.63 32.01C45.29 32.01 46.055 31.62 46.925 30.84C47.795 30.06 48.605 29.19 49.355 28.23C49.445 28.14 49.52 28.095 49.58 28.095C49.7 28.095 49.76 28.17 49.76 28.32C49.76 28.38 49.73 28.485 49.67 28.635C49.64 28.785 49.595 28.905 49.535 28.995C48.305 30.645 47.24 31.755 46.34 32.325C45.47 32.895 44.615 33.18 43.775 33.18C42.425 33.18 41.765 31.74 41.795 28.86C41.225 29.88 40.4 30.84 39.32 31.74C38.06 32.76 36.95 33.27 35.99 33.27ZM37.205 32.055C37.715 32.055 38.255 31.845 38.825 31.425C40.595 30.015 41.75 27.375 42.29 23.505C42.2 23.505 42.14 23.49 42.11 23.46C41.51 23.46 40.715 23.82 39.725 24.54C38.885 25.11 38.21 25.725 37.7 26.385C36.5 27.945 35.9 29.295 35.9 30.435C35.9 31.515 36.335 32.055 37.205 32.055ZM53.8828 33.54C50.8528 33.54 49.3378 31.305 49.3378 26.835C49.3378 22.455 50.7778 17.7 53.6578 12.57C56.4778 7.47 59.1478 4.92 61.6678 4.92C62.5678 4.92 63.1678 5.535 63.4678 6.765V7.35C63.4678 9.51 61.8028 13.155 58.4728 18.285C57.0628 20.505 55.7278 22.44 54.4678 24.09C53.2378 25.74 52.0828 27.135 51.0028 28.275C51.3628 30.975 52.6078 32.325 54.7378 32.325C56.0278 32.325 57.1228 31.965 58.0228 31.245C58.9228 30.495 59.8828 29.49 60.9028 28.23C61.0828 28.05 61.2028 27.96 61.2628 27.96C61.3528 27.96 61.3978 28.035 61.3978 28.185C61.3978 28.395 61.2928 28.665 61.0828 28.995C59.7928 30.645 58.5778 31.815 57.4378 32.505C56.2978 33.195 55.1128 33.54 53.8828 33.54ZM51.0478 27.15C52.6678 25.56 54.7828 22.41 57.3928 17.7C60.1528 12.69 61.5328 9.24 61.5328 7.35C61.5328 6.51 61.2928 6.09 60.8128 6.09C58.9528 6.09 56.8378 8.76 54.4678 14.1C53.3578 16.74 52.5028 19.14 51.9028 21.3C51.3328 23.46 51.0478 25.41 51.0478 27.15ZM65.1704 33.135C64.8704 33.135 64.5554 33.09 64.2254 33C63.3254 32.79 62.3204 32.19 61.2104 31.2C60.0104 30.09 59.4104 29.145 59.4104 28.365C59.4104 27.705 59.6654 27.375 60.1754 27.375C60.5654 27.375 60.9404 27.615 61.3004 28.095C62.3504 27.255 63.3404 26.295 64.2704 25.215C65.2004 24.135 66.0554 22.92 66.8354 21.57L67.8254 19.86C67.8554 19.74 67.9454 19.68 68.0954 19.68C68.3954 19.68 68.6954 19.875 68.9954 20.265C69.3254 20.625 69.4904 20.955 69.4904 21.255C69.4904 21.465 69.3104 21.84 68.9504 22.38C68.5604 22.86 68.3654 23.37 68.3654 23.91C68.3654 24.12 68.3804 24.45 68.4104 24.9C68.4404 25.32 68.4554 25.65 68.4554 25.89C68.4554 28.65 68.0054 30.69 67.1054 32.01C67.2854 32.04 67.4804 32.07 67.6904 32.1C67.9304 32.1 68.1554 32.1 68.3654 32.1C69.5654 32.1 70.5404 31.995 71.2904 31.785C72.0704 31.545 72.7754 31.14 73.4054 30.57C74.0354 30 74.7254 29.22 75.4754 28.23C75.5654 28.11 75.6704 28.05 75.7904 28.05C75.9104 28.05 75.9704 28.14 75.9704 28.32C75.9704 28.41 75.9254 28.53 75.8354 28.68C75.7754 28.83 75.7154 28.935 75.6554 28.995C74.5754 30.465 73.4654 31.5 72.3254 32.1C71.2154 32.7 69.7454 33 67.9154 33C67.3454 33 66.7904 32.955 66.2504 32.865C65.9504 33.045 65.5904 33.135 65.1704 33.135ZM65.2154 31.47C66.1754 31.29 66.6554 30.03 66.6554 27.69C66.6554 27.09 66.6254 26.49 66.5654 25.89C66.5354 25.26 66.4604 24.615 66.3404 23.955C65.2604 25.545 63.7454 27.15 61.7954 28.77C62.6954 30 63.8354 30.9 65.2154 31.47ZM79.7602 33.135C79.4602 33.135 79.1452 33.09 78.8152 33C77.9152 32.79 76.9102 32.19 75.8002 31.2C74.6002 30.09 74.0002 29.145 74.0002 28.365C74.0002 27.705 74.2552 27.375 74.7652 27.375C75.1552 27.375 75.5302 27.615 75.8902 28.095C76.9402 27.255 77.9302 26.295 78.8602 25.215C79.7902 24.135 80.6452 22.92 81.4252 21.57L82.4152 19.86C82.4452 19.74 82.5352 19.68 82.6852 19.68C82.9852 19.68 83.2852 19.875 83.5852 20.265C83.9152 20.625 84.0802 20.955 84.0802 21.255C84.0802 21.465 83.9002 21.84 83.5402 22.38C83.1502 22.86 82.9552 23.37 82.9552 23.91C82.9552 24.12 82.9702 24.45 83.0002 24.9C83.0302 25.32 83.0452 25.65 83.0452 25.89C83.0452 28.65 82.5952 30.69 81.6952 32.01C81.8752 32.04 82.0702 32.07 82.2802 32.1C82.5202 32.1 82.7452 32.1 82.9552 32.1C84.1552 32.1 85.1302 31.995 85.8802 31.785C86.6602 31.545 87.3652 31.14 87.9952 30.57C88.6252 30 89.3152 29.22 90.0652 28.23C90.1552 28.11 90.2602 28.05 90.3802 28.05C90.5002 28.05 90.5602 28.14 90.5602 28.32C90.5602 28.41 90.5152 28.53 90.4252 28.68C90.3652 28.83 90.3052 28.935 90.2452 28.995C89.1652 30.465 88.0552 31.5 86.9152 32.1C85.8052 32.7 84.3352 33 82.5052 33C81.9352 33 81.3802 32.955 80.8402 32.865C80.5402 33.045 80.1802 33.135 79.7602 33.135ZM79.8052 31.47C80.7652 31.29 81.2452 30.03 81.2452 27.69C81.2452 27.09 81.2152 26.49 81.1552 25.89C81.1252 25.26 81.0502 24.615 80.9302 23.955C79.8502 25.545 78.3352 27.15 76.3852 28.77C77.2852 30 78.4252 30.9 79.8052 31.47ZM100.56 33.9C99.4201 33.9 98.3701 33.57 97.4101 32.91C96.4501 32.25 95.7601 31.14 95.3401 29.58C95.3101 29.37 95.2501 29.04 95.1601 28.59C95.1001 28.11 95.0251 27.48 94.9351 26.7C94.0351 27.51 92.9401 28.92 91.6501 30.93C91.5001 31.17 91.3051 31.47 91.0651 31.83C90.8551 32.16 90.5851 32.55 90.2551 33C90.1351 33.12 89.9701 33.18 89.7601 33.18C89.2201 33.18 88.9501 32.88 88.9501 32.28C88.9501 32.16 89.3401 30.885 90.1201 28.455C95.3401 12.405 98.2501 4.08 98.8501 3.48C98.9701 3.36 99.1651 3.3 99.4351 3.3C100.395 3.3 100.875 3.645 100.875 4.335C100.875 4.755 100.47 6 99.6601 8.07C98.9701 9.81 98.2651 11.535 97.5451 13.245C96.8251 14.955 96.1051 16.665 95.3851 18.375C93.1051 23.955 91.9801 27.15 92.0101 27.96L96.8251 23.955C97.8751 23.085 98.8651 22.455 99.7951 22.065C100.725 21.645 101.535 21.435 102.225 21.435C103.605 21.435 104.295 22.125 104.295 23.505C104.295 24.225 103.965 24.9 103.305 25.53C102.675 26.13 101.91 26.625 101.01 27.015C100.11 27.375 99.2551 27.555 98.4451 27.555C98.0251 27.555 97.6201 27.48 97.2301 27.33C97.2301 28.83 97.5751 30.105 98.2651 31.155C98.6551 31.755 99.1201 32.19 99.6601 32.46C100.23 32.7 100.815 32.82 101.415 32.82C102.015 32.82 102.63 32.715 103.26 32.505C103.89 32.295 104.46 32.04 104.97 31.74C105.87 31.17 106.605 30.615 107.175 30.075C107.775 29.535 108.375 28.92 108.975 28.23C109.125 28.08 109.245 28.005 109.335 28.005C109.455 28.005 109.515 28.08 109.515 28.23C109.515 28.32 109.47 28.455 109.38 28.635C109.29 28.785 109.215 28.905 109.155 28.995C108.735 29.535 108.255 30.06 107.715 30.57C107.175 31.08 106.53 31.59 105.78 32.1C105 32.67 104.145 33.105 103.215 33.405C102.315 33.735 101.43 33.9 100.56 33.9ZM97.9051 26.52C98.7751 26.52 99.6151 26.28 100.425 25.8C101.235 25.32 101.64 24.75 101.64 24.09C101.64 23.4 101.235 23.055 100.425 23.055C99.9151 23.055 99.3901 23.22 98.8501 23.55C98.3101 23.88 97.8001 24.27 97.3201 24.72C96.8401 25.14 96.4051 25.545 96.0151 25.935C96.4951 26.325 97.1251 26.52 97.9051 26.52ZM99.2076 53.475C97.2576 53.475 95.7426 52.98 94.6626 51.99C93.4626 50.97 92.8626 49.53 92.8626 47.67C92.8626 41.67 100.873 36.645 116.893 32.595C117.043 31.125 117.148 29.775 117.208 28.545C117.298 27.285 117.358 26.16 117.388 25.17C117.178 25.8 116.938 26.4 116.668 26.97C116.398 27.54 116.113 28.08 115.813 28.59C115.393 29.43 114.673 30.3 113.653 31.2C112.453 32.16 111.478 32.64 110.728 32.64C110.158 32.64 109.663 32.325 109.243 31.695C108.913 31.125 108.748 30.525 108.748 29.895C108.748 28.875 109.003 27.72 109.513 26.43C110.053 24.81 110.743 24 111.583 24C111.883 24 112.048 24.195 112.078 24.585C110.908 26.475 110.323 28.215 110.323 29.805C110.323 30.705 110.683 31.155 111.403 31.155C112.693 31.155 114.058 29.925 115.498 27.465C116.818 25.275 117.478 23.43 117.478 21.93C117.478 21.48 117.838 21.255 118.558 21.255C119.128 21.255 119.413 21.54 119.413 22.11C119.413 23.19 119.353 24.585 119.233 26.295C119.143 27.975 118.993 29.97 118.783 32.28C119.113 32.19 119.563 32.1 120.133 32.01C120.733 31.92 121.243 31.875 121.663 31.875C122.803 31.875 123.373 32.04 123.373 32.37C123.373 32.52 123.268 32.595 123.058 32.595C122.968 32.595 122.773 32.595 122.473 32.595C122.173 32.565 121.858 32.55 121.528 32.55C121.228 32.55 120.763 32.61 120.133 32.73C119.533 32.85 119.023 32.97 118.603 33.09C117.463 41.73 113.698 47.79 107.308 51.27C105.958 51.99 104.623 52.53 103.303 52.89C101.953 53.28 100.588 53.475 99.2076 53.475ZM100.603 52.17C103.273 52.17 105.433 51.69 107.083 50.73C112.543 47.64 115.768 41.865 116.758 33.405C101.638 37.395 94.0776 42 94.0776 47.22C94.0776 50.52 96.2526 52.17 100.603 52.17ZM138.45 15.4805C138.45 13.5566 137.649 12.5947 136.048 12.5947C135.589 12.5947 135.14 12.6729 134.7 12.8291C134.261 12.9854 133.68 13.3174 132.957 13.8252L132.298 12.6973C133.626 11.75 134.9 11.2764 136.121 11.2764C137.342 11.2764 138.274 11.6328 138.919 12.3457C139.563 13.0488 139.886 14.0742 139.886 15.4219C139.886 16.7695 139.5 18.2344 138.729 19.8164C137.977 21.3984 136.59 23.4346 134.568 25.9248L129.866 31.6816H136.795L136.517 33H127.977L128.123 31.8574L133.279 25.5C134.852 23.5762 135.931 22.1455 136.517 21.208C137.806 19.167 138.45 17.2578 138.45 15.4805ZM139.52 32.2236C139.52 31.6182 139.656 31.1152 139.93 30.7148C140.213 30.3145 140.579 30.1143 141.028 30.1143C141.292 30.1143 141.497 30.2168 141.644 30.4219C141.79 30.627 141.863 30.8955 141.863 31.2275C141.863 31.8232 141.727 32.3066 141.453 32.6777C141.189 33.0488 140.848 33.2344 140.428 33.2344C140.174 33.2344 139.959 33.1465 139.783 32.9707C139.607 32.7852 139.52 32.5361 139.52 32.2236ZM156.058 15.7441C156.058 17.6973 155.848 19.8115 155.428 22.0869C155.018 24.3525 154.461 26.3643 153.758 28.1221C152.391 31.5693 150.735 33.293 148.792 33.293C146.829 33.293 145.848 31.7842 145.848 28.7666C145.848 26.3545 146.204 23.6445 146.917 20.6367C147.64 17.6191 148.538 15.3047 149.612 13.6934C150.696 12.082 151.863 11.2764 153.113 11.2764C154.061 11.2764 154.788 11.6572 155.296 12.4189C155.804 13.1807 156.058 14.2891 156.058 15.7441ZM153.025 12.6533C152.088 12.6533 151.199 13.4541 150.359 15.0557C149.52 16.6475 148.797 18.8252 148.191 21.5889C147.596 24.3428 147.298 26.7354 147.298 28.7666C147.298 29.8506 147.425 30.6465 147.679 31.1543C147.933 31.6621 148.343 31.916 148.909 31.916C149.856 31.916 150.745 31.1445 151.575 29.6016C152.415 28.0586 153.128 25.9053 153.714 23.1416C154.31 20.3682 154.607 17.9268 154.607 15.8174C154.607 13.708 154.08 12.6533 153.025 12.6533Z" fill="#F4F4F4"/>
</svg>
